<?xml version="1.0" encoding="utf-8"?>
<!-- Generator: Adobe Illustrator 21.0.0, SVG Export Plug-In . SVG Version: 6.00 Build 0)  -->
<svg version="1.1" xmlns="http://www.w3.org/2000/svg" xmlns:xlink="http://www.w3.org/1999/xlink" x="0px" y="0px"
	 viewBox="0 0 1400 1400" enable-background="new 0 0 1400 1400" xml:space="preserve">
<g id="Layer_2" display="none">
	<g display="inline">
		<path fill="none" stroke="#0D0E1F" stroke-width="11" stroke-miterlimit="10" d="M453.546,794.467
			c25.57,112.51,126.2,196.49,246.45,196.49s220.89-83.98,246.46-196.49"/>
		<path fill="none" stroke="#0D0E1F" stroke-width="8" stroke-miterlimit="10" d="M479.256,681.967
			c25.62-101.26,115.59-171.49,220.74-171.49c105.16,0,195.13,70.23,220.75,171.49"/>
		<path fill="none" stroke="#0D0E1F" stroke-width="8" stroke-miterlimit="10" d="M920.746,794.47
			c-25.62,101.26-115.59,171.49-220.75,171.49c-105.15,0-195.12-70.23-220.74-171.49"/>
		<path fill="none" stroke="#0D0E1F" stroke-width="11" stroke-miterlimit="10" d="M453.546,681.967
			c25.57-112.51,126.2-196.49,246.45-196.49s220.89,83.98,246.46,196.49"/>
		<path fill="none" stroke="#0D0E1F" stroke-width="11" stroke-miterlimit="10" d="M962.128,794.466H437.872
			c-7.24,0-13.109-5.869-13.109-13.109V695.08c0-7.24,5.869-13.109,13.109-13.109h524.255c7.24,0,13.109,5.869,13.109,13.109v86.277
			C975.236,788.597,969.367,794.466,962.128,794.466z"/>
		<polyline fill="none" stroke="#0D0E1F" stroke-width="11" stroke-miterlimit="10" points="662.666,488.217 662.666,457.047 
			737.336,457.047 737.336,488.217 		"/>
		<path fill="none" stroke="#0D0E1F" stroke-width="11" stroke-miterlimit="10" d="M651.966,409.043h96.07
			c5.86,0,10.61,4.75,10.61,10.61v26.783c0,5.86-4.75,10.61-10.61,10.61h-96.07c-5.86,0-10.61-4.75-10.61-10.61v-26.783
			C641.356,413.794,646.106,409.043,651.966,409.043z"/>
		<g>
			
				<line fill="none" stroke="#0D0E1F" stroke-width="5" stroke-miterlimit="10" x1="674.376" y1="457.047" x2="674.376" y2="483.877"/>
			
				<line fill="none" stroke="#0D0E1F" stroke-width="5" stroke-miterlimit="10" x1="684.626" y1="457.047" x2="684.626" y2="483.877"/>
			
				<line fill="none" stroke="#0D0E1F" stroke-width="5" stroke-miterlimit="10" x1="694.876" y1="457.047" x2="694.876" y2="483.877"/>
			
				<line fill="none" stroke="#0D0E1F" stroke-width="5" stroke-miterlimit="10" x1="705.126" y1="457.047" x2="705.126" y2="483.877"/>
			
				<line fill="none" stroke="#0D0E1F" stroke-width="5" stroke-miterlimit="10" x1="715.376" y1="457.047" x2="715.376" y2="483.877"/>
			
				<line fill="none" stroke="#0D0E1F" stroke-width="5" stroke-miterlimit="10" x1="725.626" y1="457.047" x2="725.626" y2="483.877"/>
		</g>
		<line fill="none" stroke="#0D0E1F" stroke-width="8" stroke-miterlimit="10" x1="587.801" y1="539.65" x2="700" y2="681.971"/>
		<line fill="none" stroke="#0D0E1F" stroke-width="8" stroke-miterlimit="10" x1="812.199" y1="539.65" x2="700" y2="681.971"/>
		<line fill="none" stroke="#0D0E1F" stroke-width="8" stroke-miterlimit="10" x1="587.801" y1="936.787" x2="700" y2="794.466"/>
		<line fill="none" stroke="#0D0E1F" stroke-width="8" stroke-miterlimit="10" x1="812.199" y1="936.787" x2="700" y2="794.466"/>
		<circle fill="none" stroke="#0D0E1F" stroke-width="5" stroke-miterlimit="10" cx="581.308" cy="583.722" r="9.75"/>
		<circle fill="none" stroke="#0D0E1F" stroke-width="5" stroke-miterlimit="10" cx="526.826" cy="655.377" r="9.75"/>
		<circle fill="none" stroke="#0D0E1F" stroke-width="5" stroke-miterlimit="10" cx="636.294" cy="549.4" r="9.75"/>
		<circle fill="none" stroke="#0D0E1F" stroke-width="5" stroke-miterlimit="10" cx="864.508" cy="645.627" r="9.75"/>
		<circle fill="none" stroke="#0D0E1F" stroke-width="5" stroke-miterlimit="10" cx="821.114" cy="586.472" r="9.75"/>
		<circle fill="none" stroke="#0D0E1F" stroke-width="5" stroke-miterlimit="10" cx="765.576" cy="655.377" r="9.75"/>
		<circle fill="none" stroke="#0D0E1F" stroke-width="5" stroke-miterlimit="10" cx="700.001" cy="625.066" r="9.75"/>
		<circle fill="none" stroke="#0D0E1F" stroke-width="5" stroke-miterlimit="10" cx="749.615" cy="552.127" r="9.75"/>
		<circle fill="none" stroke="#0D0E1F" stroke-width="5" stroke-miterlimit="10" cx="646.044" cy="672.217" r="9.75"/>
		<path fill="none" stroke="#0D0E1F" stroke-width="4" stroke-miterlimit="10" d="M554.883,620.914l-10.392-6
			c-1.435-0.828-1.927-2.663-1.098-4.098l0,0c0.828-1.435,2.663-1.927,4.098-1.098l10.392,6c1.435,0.828,1.927,2.663,1.098,4.098
			l0,0C558.152,621.25,556.318,621.742,554.883,620.914z"/>
		<path fill="none" stroke="#0D0E1F" stroke-width="4" stroke-miterlimit="10" d="M705.25,547.975l-10.392-6
			c-1.435-0.828-1.927-2.663-1.098-4.098l0,0c0.828-1.435,2.663-1.927,4.098-1.098l10.392,6c1.435,0.828,1.927,2.663,1.098,4.098
			l0,0C708.52,548.312,706.685,548.803,705.25,547.975z"/>
		<path fill="none" stroke="#0D0E1F" stroke-width="4" stroke-miterlimit="10" d="M796.722,620.914l-10.392-6
			c-1.435-0.828-1.927-2.663-1.098-4.098l0,0c0.828-1.435,2.663-1.927,4.098-1.098l10.392,6c1.435,0.828,1.927,2.663,1.098,4.098
			l0,0C799.992,621.25,798.157,621.742,796.722,620.914z"/>
		<path fill="none" stroke="#0D0E1F" stroke-width="4" stroke-miterlimit="10" d="M578.352,675.626l6.516-10.077
			c0.9-1.391,2.757-1.79,4.148-0.89l0,0c1.391,0.9,1.79,2.757,0.89,4.148l-6.516,10.077c-0.9,1.391-2.757,1.79-4.148,0.89l0,0
			C577.851,678.875,577.453,677.018,578.352,675.626z"/>
		<path fill="none" stroke="#0D0E1F" stroke-width="4" stroke-miterlimit="10" d="M637.091,630.389l-9.295,7.589
			c-1.283,1.048-3.173,0.857-4.221-0.426l0,0c-1.048-1.283-0.857-3.173,0.426-4.221l9.295-7.589
			c1.283-1.048,3.173-0.857,4.221,0.426l0,0C638.565,627.452,638.375,629.342,637.091,630.389z"/>
		<path fill="none" stroke="#0D0E1F" stroke-width="4" stroke-miterlimit="10" d="M667.254,587.143l-1.683,11.881
			c-0.232,1.641-1.751,2.782-3.391,2.55l0,0c-1.641-0.232-2.782-1.751-2.55-3.391l1.683-11.881c0.232-1.64,1.751-2.782,3.391-2.55
			l0,0C666.345,583.984,667.486,585.502,667.254,587.143z"/>
		<path fill="none" stroke="#0D0E1F" stroke-width="4" stroke-miterlimit="10" d="M824.926,668.548l-1.683,11.881
			c-0.232,1.641-1.751,2.782-3.391,2.55h0c-1.64-0.232-2.782-1.751-2.55-3.391l1.683-11.881c0.232-1.641,1.751-2.782,3.391-2.55l0,0
			C824.017,665.389,825.159,666.907,824.926,668.548z"/>
		<path fill="none" stroke="#0D0E1F" stroke-width="4" stroke-miterlimit="10" d="M738.043,589.766l8.08,8.872
			c1.116,1.225,1.027,3.122-0.198,4.238l0,0c-1.225,1.116-3.122,1.027-4.238-0.198l-8.08-8.872
			c-1.116-1.225-1.027-3.122,0.198-4.238l0,0C735.03,588.452,736.928,588.541,738.043,589.766z"/>
		<path fill="none" stroke="#0D0E1F" stroke-width="4" stroke-miterlimit="10" d="M900.122,667.546l2.701,11.692
			c0.373,1.614-0.633,3.225-2.248,3.598l0,0c-1.614,0.373-3.225-0.633-3.598-2.248l-2.701-11.692
			c-0.373-1.614,0.633-3.225,2.248-3.598l0,0C898.138,664.926,899.749,665.932,900.122,667.546z"/>
		<path fill="none" stroke="#0D0E1F" stroke-width="4" stroke-miterlimit="10" d="M865.533,603.358l11.692-2.701
			c1.614-0.373,3.225,0.633,3.598,2.248l0,0c0.373,1.614-0.633,3.225-2.248,3.598l-11.692,2.701
			c-1.614,0.373-3.225-0.633-3.598-2.248l0,0C862.912,605.342,863.919,603.731,865.533,603.358z"/>
		<circle fill="none" stroke="#0D0E1F" stroke-width="5" stroke-miterlimit="10" cx="581.308" cy="892.715" r="9.75"/>
		<circle fill="none" stroke="#0D0E1F" stroke-width="5" stroke-miterlimit="10" cx="526.826" cy="821.06" r="9.75"/>
		<circle fill="none" stroke="#0D0E1F" stroke-width="5" stroke-miterlimit="10" cx="636.294" cy="927.037" r="9.75"/>
		<circle fill="none" stroke="#0D0E1F" stroke-width="5" stroke-miterlimit="10" cx="864.508" cy="830.81" r="9.75"/>
		<circle fill="none" stroke="#0D0E1F" stroke-width="5" stroke-miterlimit="10" cx="821.114" cy="889.965" r="9.75"/>
		<circle fill="none" stroke="#0D0E1F" stroke-width="5" stroke-miterlimit="10" cx="765.576" cy="821.06" r="9.75"/>
		<circle fill="none" stroke="#0D0E1F" stroke-width="5" stroke-miterlimit="10" cx="700.001" cy="851.372" r="9.75"/>
		<circle fill="none" stroke="#0D0E1F" stroke-width="5" stroke-miterlimit="10" cx="749.615" cy="924.31" r="9.75"/>
		<circle fill="none" stroke="#0D0E1F" stroke-width="5" stroke-miterlimit="10" cx="646.044" cy="804.22" r="9.75"/>
		<path fill="none" stroke="#0D0E1F" stroke-width="4" stroke-miterlimit="10" d="M554.883,855.523l-10.392,6
			c-1.435,0.828-1.927,2.663-1.098,4.098l0,0c0.828,1.435,2.663,1.927,4.098,1.098l10.392-6c1.435-0.828,1.927-2.663,1.098-4.098
			l0,0C558.152,855.187,556.318,854.695,554.883,855.523z"/>
		<path fill="none" stroke="#0D0E1F" stroke-width="4" stroke-miterlimit="10" d="M705.25,928.462l-10.392,6
			c-1.435,0.828-1.927,2.663-1.098,4.098l0,0c0.828,1.435,2.663,1.927,4.098,1.098l10.392-6c1.435-0.828,1.927-2.663,1.098-4.098
			l0,0C708.52,928.126,706.685,927.634,705.25,928.462z"/>
		<path fill="none" stroke="#0D0E1F" stroke-width="4" stroke-miterlimit="10" d="M796.722,855.523l-10.392,6
			c-1.435,0.828-1.927,2.663-1.098,4.098l0,0c0.828,1.435,2.663,1.927,4.098,1.098l10.392-6c1.435-0.828,1.927-2.663,1.098-4.098
			l0,0C799.992,855.187,798.157,854.695,796.722,855.523z"/>
		<path fill="none" stroke="#0D0E1F" stroke-width="4" stroke-miterlimit="10" d="M578.352,800.811l6.516,10.077
			c0.9,1.391,2.757,1.79,4.148,0.89l0,0c1.391-0.9,1.79-2.757,0.89-4.148l-6.516-10.077c-0.9-1.391-2.757-1.79-4.148-0.89l0,0
			C577.851,797.562,577.453,799.419,578.352,800.811z"/>
		<path fill="none" stroke="#0D0E1F" stroke-width="4" stroke-miterlimit="10" d="M637.091,846.048l-9.295-7.589
			c-1.283-1.048-3.173-0.857-4.221,0.426l0,0c-1.048,1.283-0.857,3.173,0.426,4.221l9.295,7.589
			c1.283,1.048,3.173,0.857,4.221-0.426l0,0C638.565,848.985,638.375,847.096,637.091,846.048z"/>
		<path fill="none" stroke="#0D0E1F" stroke-width="4" stroke-miterlimit="10" d="M667.254,889.294l-1.683-11.881
			c-0.232-1.64-1.751-2.782-3.391-2.55l0,0c-1.641,0.232-2.782,1.751-2.55,3.391l1.683,11.881c0.232,1.641,1.751,2.782,3.391,2.55
			l0,0C666.345,892.453,667.486,890.935,667.254,889.294z"/>
		<path fill="none" stroke="#0D0E1F" stroke-width="4" stroke-miterlimit="10" d="M824.926,807.889l-1.683-11.881
			c-0.232-1.641-1.751-2.782-3.391-2.55h0c-1.64,0.232-2.782,1.751-2.55,3.391l1.683,11.881c0.232,1.641,1.751,2.782,3.391,2.55l0,0
			C824.017,811.048,825.159,809.53,824.926,807.889z"/>
		<path fill="none" stroke="#0D0E1F" stroke-width="4" stroke-miterlimit="10" d="M738.043,886.672l8.08-8.872
			c1.116-1.225,1.027-3.122-0.198-4.238l0,0c-1.225-1.116-3.122-1.027-4.238,0.198l-8.08,8.872
			c-1.116,1.225-1.027,3.122,0.198,4.238l0,0C735.03,887.985,736.928,887.896,738.043,886.672z"/>
		<path fill="none" stroke="#0D0E1F" stroke-width="4" stroke-miterlimit="10" d="M900.122,808.891l2.701-11.692
			c0.373-1.614-0.633-3.225-2.248-3.598l0,0c-1.614-0.373-3.225,0.633-3.598,2.248l-2.701,11.692
			c-0.373,1.614,0.633,3.225,2.248,3.598l0,0C898.138,811.511,899.749,810.505,900.122,808.891z"/>
		<path fill="none" stroke="#0D0E1F" stroke-width="4" stroke-miterlimit="10" d="M865.533,873.079l11.692,2.701
			c1.614,0.373,3.225-0.633,3.598-2.248l0,0c0.373-1.614-0.633-3.225-2.248-3.598l-11.692-2.701
			c-1.614-0.373-3.225,0.633-3.598,2.248l0,0C862.912,871.095,863.919,872.706,865.533,873.079z"/>
	</g>
</g>
<g id="Layer_6">
	<rect x="-10" y="-10" fill="#E6E6E6" width="1420" height="1420"/>
	<g>
		<g>
			<g>
				<path fill="#B3B3B3" d="M1064.692,634.318H877.601c-5.234,0-5.243,6.335,0,6.335h187.091
					C1069.926,640.653,1069.934,634.318,1064.692,634.318z"/>
				<path fill="#B3B3B3" d="M1249.071,634.318h-113.882c-5.234,0-5.243,6.335,0,6.335h113.882
					C1254.305,640.653,1254.314,634.318,1249.071,634.318z"/>
			</g>
			<g>
				<path fill="#B3B3B3" d="M695.933,353.474v145.701c0,4.076,8.134,4.083,8.134,0V353.474
					C704.067,349.398,695.933,349.392,695.933,353.474z"/>
				<path fill="#B3B3B3" d="M695.933,209.885v88.688c0,4.076,8.134,4.083,8.134,0v-88.688
					C704.067,205.809,695.933,205.802,695.933,209.885z"/>
			</g>
			<g>
				<path fill="#B3B3B3" d="M335.308,640.653h187.091c5.234,0,5.243-6.335,0-6.335H335.308
					C330.074,634.318,330.066,640.653,335.308,640.653z"/>
				<path fill="#B3B3B3" d="M150.929,640.653H264.81c5.234,0,5.243-6.335,0-6.335H150.929
					C145.695,634.318,145.686,640.653,150.929,640.653z"/>
			</g>
		</g>
		<g>
			<g>
				<path fill="#B3B3B3" d="M869.333,402.742l-86.767,117.037c-2.617,3.53,4.423,6.703,7.045,3.167l86.767-117.037
					C878.995,402.379,871.955,399.206,869.333,402.742z"/>
			</g>
			<g>
				<path fill="#B3B3B3" d="M523.622,405.909l86.767,117.037c2.617,3.53,9.666,0.368,7.045-3.167l-86.767-117.037
					C528.049,399.212,521.001,402.373,523.622,405.909z"/>
			</g>
		</g>
		<g>
			<g>
				<path fill="#B3B3B3" d="M695.933,368.256v135.143c0,4.076,8.134,4.083,8.134,0V368.256
					C704.067,364.179,695.933,364.173,695.933,368.256z"/>
			</g>
			<g>
				<path fill="#B3B3B3" d="M398.572,505.614l150.284,67.572c4.533,2.038,8.608-3.445,4.067-5.486l-150.284-67.572
					C398.106,498.09,394.031,503.572,398.572,505.614z"/>
			</g>
			<g>
				<path fill="#B3B3B3" d="M997.361,500.128l-150.284,67.572c-4.533,2.038-0.473,7.528,4.067,5.486l150.284-67.572
					C1005.962,503.576,1001.902,498.086,997.361,500.128z"/>
			</g>
		</g>
		<g>
			<g>
				<path fill="#B3B3B3" d="M429.662,431.433l128.458,100.04c3.701,2.882,9.459-1.592,5.752-4.479l-128.458-100.04
					C431.713,424.072,425.955,428.546,429.662,431.433z"/>
				<path fill="#B3B3B3" d="M362.556,379.174l40.263,31.356c3.701,2.882,9.459-1.592,5.752-4.479l-40.263-31.356
					C364.607,371.812,358.849,376.287,362.556,379.174z"/>
			</g>
			<g>
				<path fill="#B3B3B3" d="M1064.308,558.186L888.83,594.803c-5.056,1.055-2.959,7.175,2.105,6.119l175.477-36.617
					C1071.469,563.25,1069.372,557.129,1064.308,558.186z"/>
				<path fill="#B3B3B3" d="M1155.976,539.058l-55,11.477c-5.056,1.055-2.959,7.176,2.105,6.119l55-11.477
					C1163.136,544.122,1161.039,538.001,1155.976,539.058z"/>
			</g>
			<g>
				<path fill="#B3B3B3" d="M793.97,352.134l-47.019,136.657c-1.355,3.937,6.5,5.583,7.857,1.639l47.019-136.657
					C803.181,349.836,795.326,348.19,793.97,352.134z"/>
				<path fill="#B3B3B3" d="M818.532,280.746l-14.737,42.833c-1.355,3.937,6.5,5.584,7.857,1.64l14.737-42.833
					C827.743,278.448,819.889,276.802,818.532,280.746z"/>
			</g>
		</g>
		<g>
			<g>
				<path fill="#B3B3B3" d="M964.586,426.954l-128.458,100.04c-3.701,2.882,2.045,7.367,5.752,4.479l128.458-100.04
					C974.039,428.551,968.294,424.067,964.586,426.954z"/>
				<path fill="#B3B3B3" d="M1031.692,374.694l-40.263,31.356c-3.701,2.882,2.045,7.367,5.752,4.479l40.263-31.356
					C1041.145,376.292,1035.399,371.807,1031.692,374.694z"/>
			</g>
			<g>
				<path fill="#B3B3B3" d="M598.173,353.773l47.019,136.657c1.355,3.937,9.214,2.304,7.857-1.639L606.03,352.134
					C604.676,348.196,596.816,349.829,598.173,353.773z"/>
				<path fill="#B3B3B3" d="M573.611,282.385l14.737,42.833c1.355,3.937,9.214,2.304,7.857-1.64l-14.737-42.833
					C580.114,276.809,572.254,278.441,573.611,282.385z"/>
			</g>
			<g>
				<path fill="#B3B3B3" d="M333.587,564.305l175.477,36.617c5.056,1.055,7.17-5.062,2.105-6.119l-175.478-36.617
					C330.636,557.131,328.522,563.248,333.587,564.305z"/>
				<path fill="#B3B3B3" d="M241.919,545.177l55,11.477c5.056,1.055,7.17-5.062,2.105-6.119l-55-11.477
					C238.969,538.003,236.855,544.12,241.919,545.177z"/>
			</g>
		</g>
	</g>
	<path fill="#B3B3B3" d="M1031.574,808.422h-14.33c-16.921-68.872-56.565-131.238-112.088-176.102
		c-28.438-22.979-60.221-40.883-94.471-53.217c-18.395-6.624-37.279-11.538-56.501-14.747v-26.534h6.577
		c11.236,0,20.378-9.142,20.378-20.378v-33.879c0-11.236-9.142-20.378-20.378-20.378H639.24c-11.237,0-20.378,9.142-20.378,20.378
		v33.879c0,11.237,9.142,20.378,20.378,20.378h6.577v26.532c-19.226,3.209-38.113,8.123-56.512,14.749
		c-34.247,12.334-66.03,30.238-94.467,53.217c-55.519,44.864-95.159,107.229-112.081,176.102h-14.331
		c-12.979,0-23.539,10.559-23.539,23.539v109.135c0,12.979,10.56,23.538,23.539,23.538h14.333
		c16.922,68.871,56.563,131.235,112.08,176.097c28.436,22.979,60.219,40.884,94.467,53.217
		c35.438,12.762,72.68,19.233,110.689,19.233s75.252-6.472,110.691-19.233c34.25-12.333,66.033-30.239,94.471-53.217
		c55.522-44.863,95.165-107.228,112.087-176.097h14.331c12.979,0,23.538-10.559,23.538-23.538V831.961
		C1055.112,818.981,1044.553,808.422,1031.574,808.422z M766.372,480.368c0.332,0.581,0.581,1.214,0.72,1.889h-0.001
		C766.952,481.582,766.704,480.949,766.372,480.368z M632.909,482.257L632.909,482.257c0.028-0.137,0.067-0.27,0.104-0.404
		C632.976,481.987,632.937,482.12,632.909,482.257z M767.224,484.798h0.001v4.279h-0.001V484.798z M639.242,477.101
		c-0.545,0-1.071,0.075-1.577,0.202c0.505-0.127,1.031-0.202,1.575-0.202H639.242z M639.24,523.908c-2.16,0-4.071-1.069-5.245-2.701
		c1.174,1.63,3.085,2.697,5.248,2.697h121.522c3.563,0,6.459-2.897,6.459-6.459v-7.438v-14.844h0.001v22.281
		c0,3.564-2.9,6.464-6.464,6.464h-6.577H645.817H639.24z"/>
</g>
<g id="Layer_4">
	<path fill="#39B54A" d="M643.915,529.861c-0.074-0.011-0.148-0.016-0.221-0.016c-0.772,0-1.449,0.57-1.561,1.356l-2.652,18.73
		c-0.122,0.861,0.479,1.66,1.34,1.783c0.556,0.078,0.972-0.154,1.168-0.301c0.195-0.147,0.533-0.477,0.613-1.038l2.654-18.732
		c0.079-0.562-0.155-0.973-0.301-1.168C644.808,530.28,644.478,529.94,643.915,529.861z"/>
	<path fill="#F49600" d="M924.888,1058.941c-64.451,50.139-142.218,76.64-224.895,76.64c-82.67,0-160.433-26.501-224.881-76.64
		c-62.43-48.568-106.346-114.612-127.342-191.35h-25.263c44.224,172.724,197.908,292.419,377.486,292.419
		c179.587,0,333.277-119.694,377.502-292.419h-25.262C1031.236,944.331,987.319,1010.373,924.888,1058.941z"/>
	<path fill="#FFFFFF" d="M1077.49,867.59c-44.22,172.73-197.91,292.42-377.5,292.42c-179.57,0-333.26-119.69-377.48-292.42h1.4
		c45.98,169.87,198.35,287.12,376.08,287.12c177.75,0,330.12-117.25,376.1-287.12H1077.49z"/>
	<path fill="#F49600" d="M1076.09,867.59c-45.98,169.87-198.35,287.12-376.1,287.12c-177.73,0-330.1-117.25-376.08-287.12h23.86
		c21,76.74,64.91,142.78,127.34,191.35c64.45,50.14,142.21,76.64,224.88,76.64c82.68,0,160.45-26.5,224.9-76.64
		c62.43-48.57,106.35-114.61,127.34-191.35H1076.09z"/>
	<path fill="#E53722" d="M959.339,612.853c-6.303,0-11.429,5.127-11.429,11.429c0,6.302,5.127,11.429,11.429,11.429
		s11.429-5.127,11.429-11.429C970.769,617.98,965.642,612.853,959.339,612.853z"/>
	<path fill="#E53722" d="M426.998,889.417c-6.302,0-11.429,5.127-11.429,11.429c0,6.303,5.127,11.429,11.429,11.429
		c6.302,0,11.429-5.127,11.429-11.429C438.428,894.543,433.3,889.417,426.998,889.417z"/>
	<path fill="#F5CD00" d="M867.104,459.426c-50.084-26.868-107.14-41.896-167.111-41.896c-59.966,0-117.018,15.028-167.099,41.895
		L700,671.392L867.104,459.426z M778.216,457.572c10.649,0,19.312,8.663,19.312,19.312c0,10.649-8.663,19.312-19.312,19.312
		c-10.649,0-19.312-8.663-19.312-19.312C758.905,466.235,767.567,457.572,778.216,457.572z M751.172,533.577
		c1.553-1.417,3.545-2.14,5.673-2.046c2.103,0.099,4.041,1.01,5.459,2.566l12.738,13.986c1.418,1.556,2.145,3.572,2.048,5.675
		c-0.099,2.103-1.01,4.042-2.566,5.459c-1.464,1.333-3.335,2.055-5.301,2.055c-0.125,0-0.249-0.003-0.376-0.008
		c-2.103-0.099-4.043-1.01-5.459-2.567l-12.738-13.986c-1.418-1.557-2.145-3.572-2.046-5.675
		C748.702,536.933,749.614,534.994,751.172,533.577z M687.432,452.843c2.174-3.763,7.005-5.057,10.767-2.884l16.383,9.459
		c1.823,1.052,3.127,2.752,3.672,4.785c0.547,2.034,0.266,4.158-0.785,5.982c-1.459,2.526-4.115,3.94-6.842,3.94
		c-1.336,0-2.69-0.339-3.927-1.055l-16.383-9.459c-1.824-1.052-3.128-2.752-3.672-4.786S686.379,454.666,687.432,452.843z
		 M599.571,491.898c-10.649,0-19.312-8.663-19.312-19.312c0-10.649,8.663-19.312,19.312-19.312c10.649,0,19.312,8.663,19.312,19.312
		C618.883,483.235,610.22,491.898,599.571,491.898z M651.499,532.528l-2.653,18.73c-0.295,2.084-1.384,3.929-3.067,5.194
		c-1.38,1.038-3.024,1.584-4.72,1.584c-0.373,0-0.747-0.026-1.122-0.08c-2.084-0.295-3.93-1.384-5.194-3.067
		c-1.265-1.683-1.8-3.758-1.505-5.843l2.653-18.73c0.61-4.303,4.615-7.298,8.909-6.7c2.086,0.296,3.931,1.386,5.196,3.068
		C651.26,528.368,651.794,530.443,651.499,532.528z M680.689,591.869c0-10.649,8.663-19.312,19.312-19.312
		c10.65,0,19.312,8.663,19.312,19.312c0,10.649-8.663,19.312-19.312,19.312C689.352,611.18,680.689,602.517,680.689,591.869z"/>
	<path fill="#E53722" d="M711.431,591.869c0-6.302-5.128-11.429-11.43-11.429c-6.302,0-11.429,5.127-11.429,11.429
		c0,6.302,5.127,11.429,11.429,11.429C706.303,603.298,711.431,598.171,711.431,591.869z"/>
	<path fill="#39B54A" d="M960.683,561.422c-0.129,0.206-0.328,0.636-0.2,1.189c0.128,0.553,0.494,0.853,0.702,0.982
		c0.208,0.129,0.639,0.326,1.19,0.199l18.431-4.258c0.554-0.128,0.854-0.494,0.984-0.701c0.104-0.169,0.246-0.49,0.229-0.901
		c-0.355-0.472-0.722-0.934-1.079-1.404c-0.267-0.09-0.55-0.135-0.843-0.067l-18.431,4.259
		C961.111,560.848,960.813,561.215,960.683,561.422z"/>
	<path fill="#E53722" d="M512.888,1025.237c6.302,0,11.429-5.127,11.429-11.429s-5.127-11.429-11.429-11.429
		s-11.429,5.127-11.429,11.429S506.586,1025.237,512.888,1025.237z"/>
	<path fill="#39B54A" d="M855.63,579.862l-16.382-9.459c-0.753-0.434-1.72-0.176-2.155,0.579c-0.283,0.49-0.22,0.959-0.157,1.195
		s0.243,0.673,0.734,0.957l16.383,9.46c0.493,0.286,0.962,0.222,1.198,0.158c0.236-0.063,0.673-0.242,0.956-0.734
		c0.285-0.493,0.222-0.961,0.159-1.197C856.303,580.584,856.123,580.147,855.63,579.862z"/>
	<path fill="#F5CD00" d="M504.427,867.591H360.885c25.472,89.402,84.272,162.503,160.871,207.241l163.379-207.241h-52.108
		c0.779,2.093,1.226,4.347,1.226,6.708c0,10.649-8.663,19.312-19.312,19.312c-10.649,0-19.312-8.663-19.312-19.312
		c0-2.361,0.447-4.615,1.226-6.708h-74.47l6.705,10.37c1.143,1.769,1.529,3.877,1.087,5.935c-0.442,2.058-1.659,3.823-3.428,4.965
		c-1.29,0.834-2.762,1.266-4.263,1.266c-0.555,0-1.115-0.059-1.67-0.179c-2.058-0.442-3.822-1.66-4.965-3.427l-10.271-15.885
		C504.974,869.698,504.597,868.662,504.427,867.591z M426.998,920.158c-10.649,0-19.312-8.663-19.312-19.312
		c0-10.649,8.663-19.312,19.312-19.312c10.649,0,19.312,8.663,19.312,19.312C446.31,911.495,437.647,920.158,426.998,920.158z
		 M477.535,966.098l-16.383,9.459c-1.215,0.701-2.563,1.059-3.928,1.059c-0.685,0-1.374-0.091-2.053-0.272
		c-2.034-0.545-3.734-1.849-4.786-3.673c-1.053-1.823-1.332-3.947-0.787-5.981s1.85-3.733,3.673-4.786l16.383-9.459
		c3.761-2.174,8.592-0.881,10.767,2.885C482.592,959.095,481.298,963.926,477.535,966.098z M577.076,926.952
		c1.332-1.632,3.218-2.646,5.314-2.857c2.097-0.212,4.146,0.405,5.778,1.737l14.654,11.965c1.63,1.332,2.645,3.218,2.857,5.313
		c0.212,2.094-0.405,4.146-1.737,5.776c-1.331,1.632-3.218,2.646-5.314,2.859c-0.27,0.026-0.539,0.04-0.807,0.04
		c-1.81,0-3.55-0.617-4.971-1.778l-14.654-11.965c-1.63-1.332-2.645-3.218-2.857-5.313
		C575.128,930.634,575.745,928.582,577.076,926.952z M532.199,1013.807c0,10.649-8.663,19.312-19.312,19.312
		s-19.312-8.663-19.312-19.312c0-10.649,8.663-19.312,19.312-19.312S532.199,1003.159,532.199,1013.807z"/>
	<path fill="#39B54A" d="M474.002,957.748c-0.236-0.062-0.704-0.126-1.196,0.159l-16.383,9.459
		c-0.753,0.434-1.011,1.399-0.577,2.152c0.285,0.493,0.722,0.673,0.958,0.736c0.237,0.062,0.704,0.126,1.196-0.159l16.383-9.459
		c0.492-0.283,0.671-0.72,0.734-0.956s0.126-0.705-0.157-1.196C474.675,957.991,474.237,957.811,474.002,957.748z"/>
	<path fill="#E53722" d="M890.931,519.598c-6.303,0-11.429,5.127-11.429,11.429c0,6.302,5.127,11.429,11.429,11.429
		s11.429-5.127,11.429-11.429C902.361,524.725,897.234,519.598,890.931,519.598z"/>
	<path fill="#39B54A" d="M582.185,933.157l14.654,11.965c0.44,0.36,0.909,0.371,1.155,0.346c0.242-0.025,0.703-0.131,1.061-0.571
		c0.36-0.44,0.373-0.913,0.348-1.156c-0.024-0.242-0.131-0.702-0.571-1.062l-14.654-11.965c-0.357-0.291-0.737-0.354-0.997-0.354
		c-0.059,0-0.112,0.003-0.158,0.008c-0.242,0.025-0.704,0.131-1.063,0.571s-0.372,0.913-0.347,1.156
		C581.638,932.337,581.745,932.797,582.185,933.157z"/>
	<path fill="#39B54A" d="M474.381,579.862l-16.383-9.459c-0.247-0.142-0.518-0.21-0.785-0.21c-0.546,0-1.077,0.282-1.369,0.788
		c-0.434,0.752-0.175,1.718,0.577,2.153l16.384,9.459c0.491,0.283,0.958,0.22,1.195,0.158c0.236-0.063,0.674-0.243,0.958-0.735
		C475.394,581.263,475.135,580.297,474.381,579.862z"/>
	<path fill="#39B54A" d="M523.327,656.934c-0.306-0.199-0.61-0.252-0.852-0.252c-0.134,0-0.249,0.016-0.334,0.035
		c-0.239,0.052-0.685,0.209-0.993,0.685l-10.026,15.507h3.755l8.919-13.794C524.267,658.384,524.057,657.405,523.327,656.934z"/>
	<path fill="#F5CD00" d="M685.135,672.907L521.756,465.667c-76.599,44.738-135.398,117.839-160.871,207.241h143.542
		c0.17-1.071,0.547-2.106,1.154-3.044l10.272-15.886c1.143-1.768,2.907-2.985,4.965-3.427c2.061-0.44,4.167-0.055,5.934,1.087
		c3.649,2.36,4.699,7.25,2.34,10.899l-6.705,10.371h74.47c-0.779-2.093-1.225-4.346-1.225-6.707
		c0-10.649,8.663-19.312,19.312-19.312c10.649,0,19.312,8.663,19.312,19.312c0,2.361-0.447,4.614-1.225,6.707H685.135z
		 M426.998,658.964c-10.649,0-19.312-8.663-19.312-19.312c0-10.649,8.663-19.312,19.312-19.312c10.649,0,19.312,8.663,19.312,19.312
		C446.31,650.301,437.647,658.964,426.998,658.964z M480.42,585.169c-1.053,1.824-2.753,3.128-4.786,3.672
		c-0.679,0.182-1.368,0.273-2.053,0.273c-1.366,0-2.714-0.359-3.929-1.06l-16.383-9.459c-3.763-2.172-5.058-7.002-2.886-10.767
		c2.175-3.766,7.005-5.06,10.768-2.886l16.383,9.459C481.298,576.575,482.593,581.405,480.42,585.169z M512.888,546.004
		c-10.649,0-19.312-8.663-19.312-19.312c0-10.649,8.663-19.312,19.312-19.312s19.312,8.663,19.312,19.312
		C532.199,537.341,523.536,546.004,512.888,546.004z M605.678,597.391c-0.212,2.094-1.226,3.982-2.857,5.314h-0.001l-14.654,11.964
		c-1.42,1.16-3.161,1.777-4.97,1.777c-0.267,0-0.537-0.014-0.807-0.041c-2.095-0.212-3.982-1.226-5.314-2.857
		c-2.748-3.368-2.245-8.343,1.12-11.091l14.654-11.965c1.631-1.332,3.686-1.945,5.778-1.737c2.095,0.212,3.982,1.227,5.314,2.858
		C605.273,593.244,605.89,595.296,605.678,597.391z"/>
	<path fill="#E53722" d="M603.512,666.201c0,2.507,0.821,4.82,2.195,6.707h18.469c1.374-1.886,2.195-4.2,2.195-6.707
		c0-6.302-5.127-11.429-11.429-11.429C608.639,654.771,603.512,659.899,603.512,666.201z"/>
	<path fill="#39B54A" d="M597.994,595.03c-0.045-0.005-0.098-0.008-0.158-0.008c-0.259,0-0.639,0.063-0.997,0.356l-14.654,11.965
		c-0.44,0.359-0.547,0.82-0.571,1.062c-0.025,0.242-0.012,0.715,0.347,1.155c0.359,0.441,0.82,0.548,1.063,0.572
		c0.238,0.025,0.714,0.013,1.155-0.347l14.655-11.964h-0.001c0.44-0.359,0.547-0.82,0.571-1.062
		c0.025-0.243,0.012-0.716-0.347-1.155C598.697,595.161,598.237,595.054,597.994,595.03z"/>
	<path fill="#E53722" d="M599.571,461.157c-6.302,0-11.429,5.127-11.429,11.429c0,6.302,5.127,11.429,11.429,11.429
		c6.302,0,11.429-5.127,11.429-11.429C611,466.284,605.873,461.157,599.571,461.157z"/>
	<path fill="#E53722" d="M512.888,515.263c-6.302,0-11.429,5.127-11.429,11.429c0,6.302,5.127,11.429,11.429,11.429
		s11.429-5.127,11.429-11.429C524.317,520.39,519.19,515.263,512.888,515.263z"/>
	<path fill="#E53722" d="M426.998,628.223c-6.302,0-11.429,5.127-11.429,11.429c0,6.302,5.127,11.429,11.429,11.429
		c6.302,0,11.429-5.127,11.429-11.429C438.428,633.351,433.3,628.223,426.998,628.223z"/>
	<path fill="#E53722" d="M778.216,488.313c6.303,0,11.429-5.127,11.429-11.429c0-6.302-5.127-11.429-11.429-11.429
		s-11.429,5.127-11.429,11.429C766.787,483.186,771.913,488.313,778.216,488.313z"/>
	<path fill="#39B54A" d="M1010.876,658.326c-0.117,0-0.236,0.013-0.354,0.041c-0.554,0.128-0.854,0.494-0.984,0.701
		c-0.128,0.207-0.326,0.637-0.199,1.19l2.923,12.65h3.237l-3.086-13.36C1012.243,658.819,1011.593,658.326,1010.876,658.326z"/>
	<path fill="#F5CD00" d="M1018.555,658.128l3.414,14.779h17.149c-11.431-40.119-29.56-76.963-53.012-109.428
		c-1.046,1.083-2.377,1.851-3.88,2.198l-18.431,4.258c-0.594,0.137-1.19,0.203-1.775,0.203c-3.587,0-6.839-2.469-7.679-6.109
		c-0.474-2.051-0.122-4.164,0.995-5.95s2.86-3.03,4.911-3.504l16.257-3.757c-27.217-34.29-60.586-63.148-98.259-85.151
		L714.866,672.907h167.568l2.019-14.259c0.296-2.085,1.386-3.93,3.068-5.195c1.684-1.265,3.767-1.799,5.842-1.505
		c4.303,0.61,7.308,4.607,6.698,8.911l-1.706,12.048h107.436l-2.595-11.231c-0.474-2.051-0.122-4.164,0.995-5.95
		c1.115-1.786,2.859-3.03,4.911-3.504c2.054-0.473,4.166-0.121,5.95,0.995C1016.837,654.333,1018.082,656.077,1018.555,658.128z
		 M803.376,658.964c-10.649,0-19.312-8.663-19.312-19.312c0-10.649,8.663-19.312,19.312-19.312c10.649,0,19.312,8.663,19.312,19.312
		C822.688,650.301,814.025,658.964,803.376,658.964z M861.67,585.169c-1.053,1.824-2.753,3.128-4.786,3.672
		c-0.679,0.182-1.369,0.273-2.054,0.273c-1.366,0-2.714-0.359-3.929-1.06l-16.382-9.459c-1.823-1.052-3.128-2.751-3.673-4.786
		c-0.545-2.034-0.265-4.157,0.787-5.981c2.174-3.763,7.005-5.06,10.767-2.887l16.383,9.459c1.824,1.052,3.128,2.753,3.673,4.786
		S862.721,583.345,861.67,585.169z M890.931,550.339c-10.649,0-19.312-8.663-19.312-19.312c0-10.649,8.663-19.312,19.312-19.312
		c10.649,0,19.312,8.663,19.312,19.312C910.243,541.676,901.58,550.339,890.931,550.339z M959.339,643.594
		c-10.649,0-19.312-8.663-19.312-19.312c0-10.649,8.663-19.312,19.312-19.312c10.649,0,19.312,8.663,19.312,19.312
		C978.651,634.931,969.988,643.594,959.339,643.594z"/>
	<path fill="#39B54A" d="M522.141,883.782c0.239,0.052,0.71,0.092,1.186-0.217c0.477-0.308,0.634-0.754,0.686-0.993
		c0.051-0.239,0.091-0.71-0.218-1.187l-8.919-13.794h-3.754l10.026,15.506C521.456,883.574,521.902,883.731,522.141,883.782z"/>
	<path fill="#39B54A" d="M768.049,554.452c0.383,0.42,0.848,0.502,1.091,0.513c0.249,0.003,0.717-0.029,1.136-0.41
		c0.42-0.382,0.502-0.847,0.513-1.091c0.011-0.243-0.026-0.715-0.409-1.135l-12.738-13.988c-0.383-0.419-0.848-0.501-1.091-0.513
		c-0.022-0.001-0.046-0.002-0.071-0.002c-0.257,0-0.682,0.063-1.064,0.411c-0.42,0.383-0.502,0.848-0.514,1.091
		c-0.011,0.244,0.028,0.715,0.409,1.136L768.049,554.452z"/>
	<path fill="#39B54A" d="M892.48,658.192c-0.078-0.011-0.154-0.015-0.226-0.015c-0.448,0-0.776,0.191-0.944,0.316
		c-0.194,0.147-0.533,0.477-0.613,1.04l-1.894,13.374h3.183l1.832-12.933C893.939,659.114,893.339,658.315,892.48,658.192z"/>
	<path fill="#39B54A" d="M693.469,458.148l16.383,9.46c0.757,0.436,1.721,0.174,2.155-0.578c0.433-0.751,0.174-1.717-0.579-2.152
		l-16.383-9.459c-0.248-0.143-0.519-0.211-0.786-0.211c-0.545,0-1.076,0.282-1.368,0.788c-0.284,0.492-0.221,0.96-0.158,1.195
		S692.978,457.865,693.469,458.148z"/>
	<path fill="#39B54A" d="M756.551,1002.669c0.243-0.011,0.71-0.092,1.091-0.513l12.738-13.986c0.383-0.42,0.42-0.893,0.409-1.136
		c-0.011-0.243-0.092-0.71-0.513-1.091c-0.302-0.274-0.682-0.41-1.061-0.41c-0.43,0-0.856,0.172-1.165,0.513l-12.739,13.988
		c-0.382,0.42-0.42,0.891-0.409,1.135c0.012,0.243,0.094,0.708,0.513,1.09C755.835,1002.641,756.307,1002.695,756.551,1002.669z"/>
	<path fill="#E53722" d="M778.216,1075.044c6.303,0,11.429-5.126,11.429-11.429s-5.127-11.429-11.429-11.429
		s-11.429,5.127-11.429,11.429S771.913,1075.044,778.216,1075.044z"/>
	<path fill="#F49600" d="M720.298,363.658v-27.993h-8.276v27.673C714.785,363.418,717.543,363.523,720.298,363.658z"/>
	<path fill="#39B54A" d="M711.049,1072.734c-0.1-0.028-0.243-0.054-0.413-0.054c-0.226,0-0.5,0.049-0.782,0.211l-0.002,0.002
		l-16.383,9.459c-0.493,0.283-0.672,0.72-0.735,0.956c-0.063,0.236-0.126,0.703,0.158,1.196c0.284,0.491,0.722,0.671,0.958,0.734
		c0.233,0.065,0.704,0.125,1.195-0.157l16.383-9.46c0.753-0.434,1.011-1.399,0.577-2.152
		C711.723,1072.977,711.285,1072.797,711.049,1072.734z"/>
	<path fill="#F49600" d="M687.98,363.337v-27.672h-8.276v27.992C682.459,363.523,685.218,363.417,687.98,363.337z"/>
	<path fill="#F49600" d="M699.993,363.142c1.384,0,2.764,0.03,4.147,0.044v-27.521h-8.277v27.521
		C697.24,363.173,698.614,363.142,699.993,363.142z"/>
	<path fill="#39B54A" d="M642.602,990.125c-0.079-0.563-0.418-0.893-0.613-1.039c-0.168-0.126-0.496-0.317-0.942-0.317
		c-0.072,0-0.147,0.006-0.226,0.017c-0.563,0.08-0.893,0.419-1.04,0.613c-0.146,0.195-0.38,0.607-0.301,1.168l2.653,18.731
		c0.122,0.859,0.933,1.47,1.781,1.339c0.563-0.08,0.893-0.419,1.04-0.613c0.146-0.196,0.38-0.607,0.301-1.17L642.602,990.125z"/>
	<path fill="#F49600" d="M750.188,366.222v-30.557h-5.849v29.863C746.292,365.74,748.24,365.983,750.188,366.222z"/>
	<path fill="#F5CD00" d="M783.78,268.05v42.22c0,4.44-3.61,8.05-8.05,8.05H624.28c-4.45,0-8.06-3.61-8.06-8.05v-42.22
		c0-4.45,3.61-8.06,8.06-8.06h151.45C780.17,259.99,783.78,263.6,783.78,268.05z"/>
	<path fill="#F2C673" d="M1113.233,690.248H286.768c-6.615,0-11.995,5.381-11.995,11.995v136.012
		c0,6.614,5.381,11.994,11.995,11.994h826.465c6.614,0,11.994-5.381,11.994-11.994V702.244
		C1125.227,695.629,1119.847,690.248,1113.233,690.248z"/>
	<path fill="#E53722" d="M599.571,1056.484c-6.302,0-11.429,5.127-11.429,11.429s5.127,11.429,11.429,11.429
		c6.302,0,11.429-5.126,11.429-11.429S605.873,1056.484,599.571,1056.484z"/>
	<path fill="#E53722" d="M700.001,960.059c6.302,0,11.43-5.127,11.43-11.429s-5.128-11.429-11.43-11.429
		c-6.302,0-11.429,5.127-11.429,11.429S693.699,960.059,700.001,960.059z"/>
	<path fill="#F49600" d="M736.457,364.761v-29.096h-8.276v28.45C730.944,364.304,733.703,364.517,736.457,364.761z"/>
	<path fill="#F5CD00" d="M532.894,1081.075c50.081,26.867,107.133,41.895,167.099,41.895c59.971,0,117.027-15.028,167.111-41.896
		L700,869.107L532.894,1081.075z M599.571,1087.225c-10.649,0-19.312-8.663-19.312-19.312c0-10.649,8.663-19.312,19.312-19.312
		c10.649,0,19.312,8.663,19.312,19.312C618.883,1078.562,610.22,1087.225,599.571,1087.225z M649.995,1013.814
		c-1.265,1.683-3.11,2.773-5.194,3.068c-0.376,0.052-0.75,0.079-1.122,0.079c-1.697,0-3.341-0.545-4.721-1.583
		c-1.683-1.266-2.772-3.111-3.067-5.196l-2.653-18.731c-0.295-2.083,0.239-4.158,1.505-5.841c1.266-1.683,3.11-2.773,5.194-3.068
		c2.091-0.292,4.16,0.239,5.842,1.504c1.683,1.265,2.773,3.111,3.067,5.196l2.653,18.73
		C651.794,1010.056,651.26,1012.131,649.995,1013.814z M718.254,1076.296c-0.545,2.034-1.849,3.733-3.672,4.786l-16.383,9.459
		c-1.214,0.7-2.563,1.059-3.929,1.059c-0.684,0-1.373-0.089-2.052-0.272c-2.034-0.543-3.733-1.849-4.786-3.672
		c-1.053-1.823-1.333-3.947-0.787-5.981c0.545-2.034,1.849-3.733,3.673-4.786l16.382-9.459c3.759-2.169,8.59-0.881,10.767,2.883
		C718.52,1072.138,718.8,1074.262,718.254,1076.296z M797.528,1063.615c0,10.649-8.663,19.312-19.312,19.312
		c-10.649,0-19.312-8.663-19.312-19.312c0-10.649,8.663-19.312,19.312-19.312C788.865,1044.304,797.528,1052.966,797.528,1063.615z
		 M750.65,995.788l12.738-13.986c1.416-1.556,3.356-2.468,5.459-2.566c2.123-0.105,4.118,0.628,5.675,2.044
		c1.558,1.419,2.469,3.358,2.568,5.461c0.097,2.103-0.63,4.12-2.048,5.676l-12.738,13.986c-1.418,1.556-3.356,2.468-5.459,2.566
		c-0.126,0.005-0.251,0.008-0.376,0.008c-1.967,0-3.836-0.722-5.301-2.055c-1.555-1.416-2.466-3.356-2.565-5.459
		C748.505,999.359,749.232,997.344,750.65,995.788z M719.313,948.629c0,10.649-8.663,19.312-19.312,19.312
		c-10.649,0-19.312-8.663-19.312-19.312c0-10.649,8.663-19.312,19.312-19.312C710.65,929.318,719.313,937.981,719.313,948.629z"/>
	<path fill="#F49600" d="M671.822,364.114v-28.449h-8.276v29.094C666.299,364.515,669.059,364.303,671.822,364.114z"/>
	<path fill="#E53722" d="M959.339,927.646c6.303,0,11.429-5.127,11.429-11.429s-5.127-11.429-11.429-11.429
		s-11.429,5.127-11.429,11.429S953.036,927.646,959.339,927.646z"/>
	<path fill="#F49600" d="M475.112,481.558c64.448-50.138,142.211-76.64,224.881-76.64c82.677,0,160.444,26.502,224.895,76.64
		c62.431,48.567,106.347,114.609,127.345,191.349h25.264c-44.222-172.727-197.914-292.424-377.503-292.424
		c-179.58,0-333.265,119.697-377.487,292.424h25.264C368.767,596.169,412.682,530.126,475.112,481.558z"/>
	<path fill="#FFFFFF" d="M1077.5,672.91h-1.9c-46.58-168.88-198.5-285.29-375.61-285.29c-177.1,0-329.01,116.41-375.58,285.29h-1.9
		c44.22-172.73,197.9-292.43,377.48-292.43C879.58,380.48,1033.27,500.18,1077.5,672.91z"/>
	<path fill="#F49600" d="M1075.6,672.91h-23.37c-20.99-76.74-64.91-142.78-127.34-191.35c-64.45-50.14-142.22-76.64-224.9-76.64
		c-82.67,0-160.43,26.5-224.88,76.64c-62.43,48.57-106.34,114.61-127.34,191.35h-23.36c46.57-168.88,198.48-285.29,375.58-285.29
		C877.1,387.62,1029.02,504.03,1075.6,672.91z"/>
	<path fill="#E53722" d="M890.931,1020.902c6.303,0,11.429-5.127,11.429-11.429c0-6.303-5.127-11.429-11.429-11.429
		s-11.429,5.127-11.429,11.429C879.502,1015.775,884.628,1020.902,890.931,1020.902z"/>
	<path fill="#F49600" d="M655.663,365.527v-29.861h-5.849v30.555C651.762,365.981,653.71,365.738,655.663,365.527z"/>
	<path fill="#E53722" d="M803.376,889.417c-6.303,0-11.429,5.127-11.429,11.429c0,6.303,5.127,11.429,11.429,11.429
		c6.303,0,11.429-5.127,11.429-11.429C814.806,894.543,809.679,889.417,803.376,889.417z"/>
	<path fill="#39B54A" d="M854.054,957.906l-16.382,9.459c-0.493,0.283-0.673,0.721-0.736,0.956s-0.126,0.705,0.159,1.196
		c0.434,0.753,1.401,1.011,2.155,0.577l16.38-9.459c0.493-0.283,0.673-0.72,0.736-0.956s0.126-0.705-0.159-1.196
		C855.775,957.732,854.808,957.468,854.054,957.906z"/>
	<path fill="#E53722" d="M803.376,628.223c-6.303,0-11.429,5.127-11.429,11.429c0,6.302,5.127,11.429,11.429,11.429
		c6.303,0,11.429-5.127,11.429-11.429C814.806,633.351,809.679,628.223,803.376,628.223z"/>
	<path fill="#F5CD00" d="M884.453,881.85l-2.019-14.259H714.866l163.377,207.239c37.673-22.003,71.043-50.862,98.26-85.152
		l-16.257-3.756c-2.052-0.474-3.795-1.718-4.911-3.504s-1.469-3.9-0.995-5.95c0.978-4.232,5.225-6.882,9.453-5.907l18.433,4.261
		c1.502,0.346,2.833,1.114,3.879,2.197c23.453-32.465,41.582-69.309,53.013-109.428h-17.148l-3.414,14.779
		c-0.841,3.641-4.092,6.109-7.678,6.109c-0.587,0-1.181-0.065-1.775-0.203c-2.052-0.473-3.796-1.718-4.913-3.504
		c-1.115-1.786-1.467-3.9-0.993-5.95l2.595-11.231H898.356l1.706,12.05c0.61,4.303-2.396,8.299-6.698,8.909
		c-0.374,0.052-0.75,0.079-1.122,0.079c-1.697,0-3.339-0.545-4.72-1.583C885.839,885.781,884.749,883.935,884.453,881.85z
		 M803.376,920.158c-10.649,0-19.312-8.663-19.312-19.312c0-10.649,8.663-19.312,19.312-19.312c10.649,0,19.312,8.663,19.312,19.312
		C822.688,911.495,814.025,920.158,803.376,920.158z M862.456,961.312c-0.545,2.034-1.85,3.733-3.675,4.786l-16.38,9.459
		c-1.238,0.713-2.591,1.053-3.927,1.053c-2.726,0-5.382-1.413-6.84-3.94c-1.053-1.823-1.333-3.947-0.788-5.981
		s1.85-3.733,3.675-4.786l16.382-9.459c3.764-2.171,8.597-0.876,10.767,2.885C862.721,957.154,863.001,959.278,862.456,961.312z
		 M959.339,896.905c10.649,0,19.312,8.663,19.312,19.312c0,10.649-8.663,19.312-19.312,19.312c-10.649,0-19.312-8.663-19.312-19.312
		C940.028,905.568,948.69,896.905,959.339,896.905z M910.243,1009.472c0,10.649-8.663,19.312-19.312,19.312
		c-10.649,0-19.312-8.663-19.312-19.312c0-10.649,8.663-19.312,19.312-19.312C901.58,990.161,910.243,998.823,910.243,1009.472z"/>
	<path fill="#E53722" d="M626.371,874.299c0-2.507-0.821-4.821-2.195-6.708h-18.468c-1.374,1.886-2.195,4.2-2.195,6.708
		c0,6.303,5.127,11.429,11.429,11.429C621.243,885.728,626.371,880.602,626.371,874.299z"/>
	<path fill="#39B54A" d="M891.31,882.006c0.196,0.148,0.608,0.382,1.17,0.3c0.859-0.122,1.459-0.921,1.338-1.781l-1.832-12.933
		h-3.183l1.894,13.375C890.777,881.528,891.116,881.859,891.31,882.006z"/>
	<path fill="#39B54A" d="M980.806,980.965l-18.431-4.26c-0.845-0.185-1.695,0.336-1.892,1.182c-0.128,0.553,0.071,0.984,0.2,1.19
		s0.428,0.573,0.982,0.702l18.431,4.258c0.293,0.066,0.577,0.02,0.844-0.07c0.357-0.469,0.724-0.931,1.078-1.402
		c0.016-0.41-0.125-0.73-0.229-0.898C981.661,981.459,981.36,981.095,980.806,980.965z"/>
	<path fill="#39B54A" d="M1010.522,882.133c0.551,0.122,0.982-0.071,1.188-0.2c0.208-0.129,0.573-0.428,0.702-0.982l3.086-13.36
		h-3.237l-2.922,12.65c-0.128,0.554,0.071,0.984,0.2,1.19C1009.667,881.639,1009.967,882.004,1010.522,882.133z"/>
	<rect x="608" y="266.417" fill="#FFFFFF" width="181.667" height="3.167"/>
	<rect x="608" y="274.917" fill="#FFFFFF" width="181.667" height="7.583"/>
	<path fill="#F49600" d="M783.78,301v9.27c0,4.44-3.61,8.05-8.05,8.05H624.28c-4.45,0-8.06-3.61-8.06-8.05V301H783.78z"/>
	<path fill="#F49600" d="M367.059,643.517c-1.296,4.487-2.183,9.092-2.647,13.739c-0.165,1.658-0.263,3.404,0.435,4.916
		c0.917,1.987,2.98,3.13,4.837,4.287c1.858,1.157,3.783,2.697,4.073,4.866c0.32,2.386-1.592,4.624-3.845,5.471
		c-2.254,0.846-4.753,0.62-7.14,0.309s-4.837-0.693-7.177-0.128c1.561-5.99,3.121-11.979,4.682-17.969"/>
	<path fill="#F49600" d="M520.504,571.128c-1.195-0.553-2.375-1.13-3.477-1.839c-3.736-2.407-8.329-4.499-12.795-2.827
		c-3.51,1.314-5.932,4.841-6.44,8.554c-0.508,3.712,0.714,7.524,2.827,10.619c5.071,7.428,8.579,13.042,0.802,20.542
		c-3.038,2.929-6.643,5.429-8.704,9.112c-0.812,1.451-1.344,3.275-0.568,4.745c0.785,1.487,2.597,2.064,4.25,2.377
		c5.852,1.107,12.001,0.604,17.595-1.441c5.206-1.903,11.081-5.087,15.844-2.253c3.776,2.247,5.282,7.677,9.523,8.827
		c8.328,2.26,11.173-10.097,9.488-15.774c-2.602-8.767-10.784-8.775-16.857-13.775c-2.854-2.35-4.85-6.116-4.056-9.727
		c0.486-2.211,1.947-4.146,2.237-6.391c0.385-2.98-1.435-5.9-3.862-7.672C524.534,572.908,522.499,572.051,520.504,571.128z"/>
	<path fill="#F49600" d="M626.899,630.374c-1.827-3.969-5.457-7.065-9.665-8.243s-8.917-0.417-12.54,2.027
		c-2.074,1.399-3.918,3.751-3.383,6.195c0.617,2.815,3.932,4.065,6.801,4.335c2.869,0.27,6.024,0.127,8.292,1.904
		c1.443,1.131,2.475,3.003,4.282,3.307c1.315,0.221,2.642-0.528,3.478-1.566s1.277-2.332,1.702-3.595"/>
	<path fill="#F49600" d="M499.477,477.558c4.752-1.358,10.062-0.626,14.269,1.969c3.603,2.222,6.47,5.748,10.51,7.011
		c5.192,1.623,11.391-1.568,13.089-6.736s-1.404-11.413-6.547-13.184c-1.616-0.556-3.151-2.47-4.739-3.1s-3.446-0.788-4.976-0.029
		c-1.029,0.511-1.823,1.382-2.704,2.119c-2.27,1.899-5.13,2.912-7.924,3.888"/>
	<path fill="#F49600" d="M423.425,598.712c1.567,1.332,3.661,1.859,5.703,2.103c2.042,0.244,4.119,0.247,6.121,0.715
		c2.467,0.577,4.762,1.869,6.535,3.678c0.62,0.633,1.188,1.335,1.932,1.815c0.745,0.48,1.737,0.7,2.517,0.281
		c0.577-0.31,0.943-0.919,1.119-1.55c1.301-4.663-4.375-6.572-7.553-7.916c-2.906-1.23-4.498-3.015-6.833-4.968
		c-2.194-1.834-5.435-2.997-8.291-2.047C421.012,592.043,420.577,596.292,423.425,598.712z"/>
	<path fill="#F49600" d="M572.408,526.294c1.254,3.489-0.565,7.29-2.574,10.406c-2.009,3.116-4.356,6.378-4.235,10.083
		c0.1,3.069,2.096,5.998,4.916,7.213c5.615,2.419,12.774-1.782,17.977,1.429c1.409,0.869,2.508,2.216,4.015,2.9
		s3.744,0.289,4.139-1.318c0.34-1.386-0.859-2.625-1.91-3.591c-6.536-6.009-11.502-13.711-14.279-22.144"/>
	<path fill="#F49600" d="M552.344,677.33c0.094-2.313,1.405-4.432,3.067-6.044c2.663-2.583,6.429-4.118,10.116-3.7
		c3.686,0.419,7.157,2.956,8.296,6.486c0.137,0.426,0.233,0.922-0.011,1.296c-0.225,0.344-0.662,0.47-1.061,0.569
		c-2.763,0.688-5.525,1.377-8.288,2.065"/>
	<path fill="#F49600" d="M458.432,681.103c4.261-7.378,8.539-14.783,13.755-21.52c2.245-2.9,4.852-5.799,8.357-6.878
		c3.505-1.078,8.05,0.463,8.997,4.006c1.57,5.872-7.135,10.679-5.895,16.63c0.512,2.457,2.696,4.91,1.526,7.13
		c-0.62,1.176-1.985,1.728-3.267,2.077c-4.373,1.191-9.092,1.078-13.402-0.322"/>
	<path fill="#F49600" d="M603.513,426.517c8.257,1.579,15.515,6.585,21.42,12.569s10.661,12.978,15.774,19.651
		c1.316,1.718,2.848,3.535,4.976,3.924c3.512,0.641,6.387-2.934,7.406-6.355c2.059-6.904,0.596-15.375,5.693-20.467
		c2.984-2.981,7.457-3.875,10.921-6.282s5.501-8.121,2.077-10.584"/>
	<path fill="#F49600" d="M717.855,498.6c-0.367,2.382,1.035,4.793,3.029,6.147s4.476,1.799,6.886,1.851
		c2.703,0.058,6.013-0.037,7.376,2.298c0.79,1.354,0.564,3.046,0.314,4.593c-1.201,7.419-2.402,14.837-3.602,22.256
		c-0.165,1.021-0.328,2.084-0.025,3.073c0.303,0.988,1.223,1.87,2.252,1.766c0.784-0.079,1.405-0.681,1.906-1.289
		c2.124-2.58,3.257-5.808,4.822-8.76c1.565-2.952,3.833-5.836,7.056-6.715c2.085-0.569,4.398-0.243,6.349-1.173
		c3.137-1.494,4.03-5.456,4.552-8.891c0.316-2.085,0.633-4.208,0.312-6.292s-1.383-4.161-3.225-5.188
		c-2.075-1.157-4.624-0.889-6.598-2.302c-1.722-1.232-2.526-3.204-3.488-5.001c-1.583-2.957-3.135-5.081-6.714-5.148
		c-3.709-0.07-7.668,1.624-11.293,2.269C723.948,492.773,718.572,493.951,717.855,498.6z"/>
	<path fill="#F49600" d="M625.387,584.171c10.791,2.418,22.131,2.347,32.892-0.204c1.693-0.401,3.695-0.793,4.994,0.365
		c1.64,1.462,0.723,4.402-1.142,5.564s-4.205,1.112-6.402,1.165c-2.197,0.053-4.605,0.344-6.115,1.941
		c-3.597,3.805,0.84,11.238-2.902,14.901c-2.527,2.474-6.839,1.137-9.666-0.988c-5.032-3.782-8.429-9.668-9.187-15.917"/>
	<path fill="#F49600" d="M836.784,438.171c1.892,3.496,3.783,7.839,1.704,11.228c-2.572,4.193-10.042,4.611-10.679,9.488
		c-0.283,2.164,1.152,4.262,3.002,5.42c1.85,1.158,4.057,1.568,6.205,1.955c4.037,0.729,8.074,1.458,12.112,2.186
		c3.114,0.562,6.578,1.347,8.299,4.002c0.698,1.077,1.062,2.411,2.049,3.232c1.27,1.058,3.23,0.895,4.647,0.044
		s2.405-2.25,3.309-3.633c1.945-2.973,3.705-6.067,5.268-9.258c0.949-1.938,1.831-4.225,0.924-6.184
		c-0.875-1.89-3.069-2.718-5.062-3.324c-7.064-2.148-14.282-3.788-21.581-4.903"/>
	<path fill="#F49600" d="M757.509,609.914c-2.616-5.445-5.232-10.89-7.848-16.335c-0.741-1.542-1.494-3.316-0.852-4.902
		c1.015-2.511,4.477-2.587,6.879-3.84c2.182-1.139,3.535-3.357,5.051-5.296c1.515-1.94,3.593-3.811,6.052-3.717
		c1.945,0.075,3.604,1.364,5.113,2.594c3.302,2.692,6.604,5.384,9.906,8.076"/>
	<path fill="#F49600" d="M854.097,486.709c1.774-1.913,4.786-2.088,7.308-1.421c2.522,0.667,4.819,2.016,7.327,2.734
		c2.508,0.718,5.5,0.671,7.385-1.132c0.833-0.796,1.362-1.853,2.078-2.756c1.872-2.361,4.862-3.51,7.76-4.331
		c2.899-0.821,5.934-1.453,8.427-3.145s4.329-4.811,3.467-7.698c-1.045-3.499-5.189-4.848-8.746-5.673
		c-3.377-0.783-6.849-1.571-10.28-1.081s-6.866,2.554-7.954,5.846"/>
	<path fill="#F49600" d="M899.327,559.02c-1.499,2.696-1.558,6.24,0.182,8.787s5.343,3.769,8.144,2.478
		c1.838-0.847,3.391-2.659,5.41-2.522c2.102,0.142,3.386,2.289,4.407,4.132c3.04,5.487,6.946,10.493,11.531,14.775
		c1.383,1.292,3.062,2.598,4.945,2.406c1.64-0.168,2.988-1.5,3.593-3.034s0.587-3.24,0.428-4.881
		c-0.601-6.179-3.146-12.155-7.184-16.871c-2.248-2.625-4.954-4.884-6.803-7.805c-1.907-3.014-2.413-6.479-1.038-9.773
		c-4.056-3.102-6.29,1.866-9.286,3.712C908.747,553.445,902.472,553.363,899.327,559.02z"/>
	<path fill="#F49600" d="M1009.821,590.737c1.126,5.858-0.115,12.137-3.384,17.127c-1.079,1.647-2.372,3.166-3.216,4.944
		s-1.185,3.94-0.284,5.69c0.909,1.767,3.04,3.297,2.447,5.194c-0.676,2.165-4.327,2.234-4.885,4.433
		c-0.519,2.046,2.342,3.437,4.369,2.849c2.027-0.588,3.643-2.197,5.676-2.763c4.121-1.146,8.244,2.281,12.513,2.012
		c3.785-0.238,6.922-3.544,7.738-7.248c0.816-3.704-0.348-7.623-2.356-10.841c-2.008-3.218-4.803-5.855-7.566-8.454"/>
	<path fill="#F49600" d="M912.597,677.341c0.08-3.629,2.033-7.166,5.06-9.168c3.028-2.002,7.047-2.414,10.418-1.067
		c2.847,1.138,5.635,3.483,8.583,2.64c3.123-0.893,4.213-4.755,6.679-6.869c3.277-2.809,8.594-1.897,11.819,0.971
		c3.225,2.868,4.781,7.149,5.856,11.329c0.338,1.316,0.628,2.77,0.019,3.984c-0.609,1.214-2.525,1.782-3.33,0.687"/>
	<path fill="#F49600" d="M849.871,611.4c-3.163-0.72-6.76-1.782-9.422,0.072c-2.831,1.972-2.875,6.335-1.23,9.368
		s4.494,5.185,6.907,7.651c2.413,2.466,4.542,5.692,4.098,9.114c-0.307,2.36-1.82,4.637-1.252,6.948
		c0.579,2.356,3.354,3.739,5.729,3.244c2.375-0.495,4.236-2.491,5.115-4.752c0.879-2.262,0.911-4.763,0.71-7.181
		c-0.267-3.214-0.652-7.105,1.949-9.011c2.693-1.974,7.475-0.742,8.951-3.736c0.996-2.022-0.497-4.386-2.161-5.907
		c-2.428-2.22-3.611-5.063-6.909-5.137C858.076,611.975,854.133,612.37,849.871,611.4z"/>
	<path fill="#F49600" d="M730.955,651.822c1.575-1.234,3.422-2.196,5.411-2.411s4.127,0.405,5.455,1.901
		c1.328,1.496,1.642,3.91,0.477,5.536c-0.658,0.918-1.677,1.502-2.494,2.281s-1.46,1.963-1.046,3.015
		c0.393,0.998,1.532,1.431,2.522,1.844c2.633,1.1,5.003,2.824,6.861,4.99c0.963,1.123,1.807,2.401,2.119,3.848
		s0.013,3.086-1.042,4.123c-1.037,1.019-2.605,1.3-4.056,1.207c-1.451-0.093-2.863-0.504-4.308-0.66
		c-5.798-0.626-11.134,2.827-16.622,4.799c-1.844,0.663-3.78,1.168-5.738,1.097c-1.958-0.072-3.954-0.779-5.271-2.229
		c-1.953-2.15-2.03-5.511-0.955-8.209s3.101-4.888,5.083-7.011"/>
	<path fill="#F49600" d="M642.833,864.815c2.279-0.47,3.97,2.177,4.31,4.479c0.34,2.302,0.18,4.914,1.757,6.625
		c2.514,2.725,7,0.983,10.677,1.456c5.284,0.68,8.973,6.157,14.253,6.868c3.033,0.409,6.098-0.884,8.468-2.82
		s4.161-4.473,5.922-6.976c1.238-1.76,2.534-3.726,2.331-5.868c-0.302-3.19-3.744-5.111-6.896-5.691
		c-3.152-0.579-6.546-0.43-9.343-1.994"/>
	<path fill="#F49600" d="M546.755,901.18c-2.198-0.746-5.122-1.27-6.413,0.659c-0.545,0.814-0.608,1.872-1.118,2.708
		c-1.211,1.986-4.063,1.797-6.373,2.08c-4.466,0.549-8.424,4.035-9.534,8.395c-0.386,1.516-0.437,3.18,0.234,4.592
		c0.672,1.413,2.189,2.488,3.742,2.304c0.848-0.1,1.632-0.549,2.484-0.606c1.982-0.132,3.515,1.952,3.63,3.934
		c0.116,1.983-0.742,3.872-1.408,5.743c-0.667,1.871-1.142,3.995-0.304,5.795c1.297,2.784,5.344,3.363,7.971,1.772
		c2.627-1.591,4.01-4.646,4.677-7.645c0.667-2.998,0.776-6.113,1.635-9.063c0.739-2.539,2.181-5.087,4.537-6.433
		c1.906-1.089,5.465-0.991,6.068-3.637C557.632,907.182,550.139,902.328,546.755,901.18z"/>
	<path fill="#F49600" d="M445.776,864.862c-0.574,3.941,2.597,7.595,6.245,9.192c3.648,1.597,7.741,1.714,11.674,2.342
		s8.074,1.991,10.382,5.236c0.834,1.173,1.395,2.551,2.418,3.564c1.023,1.012,2.775,1.533,3.886,0.618
		c1.101-0.908,0.96-2.594,1.353-3.966c0.712-2.492,3.244-3.967,4.676-6.127c2.165-3.266,1.447-7.898-1.041-10.925
		c-2.488-3.027-6.397-4.605-10.288-5.069c-3.891-0.464-7.823,0.068-11.705,0.6"/>
	<path fill="#F49600" d="M378.469,862.809c-2.194,1.589-2.841,4.956-1.393,7.245c0.979,1.547,2.663,2.49,3.916,3.825
		s2.01,3.556,0.808,4.937c-1.576,1.81-5.424,0.969-6.086,3.276c-0.417,1.452,0.946,2.725,1.747,4.007
		c2.225,3.561,0.14,8.203-2.269,11.643c-1.517,2.166-3.525,4.429-6.169,4.498c-2.73,0.071-4.983-2.36-5.769-4.976
		s-0.486-5.412-0.431-8.142c0.064-3.165-0.291-6.55-2.271-9.021c-0.935-1.166-2.184-2.062-3.04-3.287
		c-1.647-2.357-1.55-5.588-0.499-8.265c1.011-2.574,2.931-4.882,5.505-5.892c2.574-1.01,5.803-0.498,7.622,1.586"/>
	<path fill="#F49600" d="M387.289,943.074c3.459,2.581,8.085,3.529,12.281,2.519c2.084-0.502,4.051-1.455,6.166-1.8
		c2.115-0.345,4.562,0.077,5.838,1.799c1.061,1.432,1.051,3.36,1.511,5.082s1.934,3.537,3.669,3.129
		c0.703-0.165,1.277-0.671,1.957-0.914c1.969-0.706,4.134,1.168,4.412,3.242c0.278,2.074-0.795,4.093-2.082,5.742
		c-1.287,1.649-2.836,3.124-3.787,4.987c-1.143,2.239-1.318,4.829-1.51,7.336s-0.454,5.106-1.734,7.269s-3.879,3.758-6.3,3.077
		c-7.578-7.838-5.18-21.916-12.972-29.54"/>
	<path fill="#F49600" d="M444.066,1021.477c3.707,1.479,8.05,1.268,11.597-0.562c2.253-1.163,4.172-2.928,6.5-3.933
		s5.414-1.015,7.015,0.951c1.322,1.622,1.173,3.975,0.717,6.017c-0.456,2.043-1.154,4.138-0.7,6.181
		c0.26,1.17,0.883,2.229,1.22,3.379c0.337,1.151,0.323,2.537-0.526,3.384c-1.283,1.28-3.441,0.554-5.068-0.243
		c-4.59-2.249-9.18-4.498-13.771-6.748"/>
	<path fill="#F49600" d="M596.958,988.116c-1.943,2.256-5.52,2.266-8.281,1.151c-2.761-1.115-5.077-3.106-7.743-4.432
		c-2.701-1.343-5.751-1.979-8.764-1.826c-1.436,0.073-2.925,0.347-4.072,1.216s-1.84,2.462-1.303,3.796
		c0.472,1.173,1.69,1.825,2.681,2.611c3.48,2.763,4.35,8.288,1.888,11.987c4.574,1.542,9.002,3.514,13.208,5.881"/>
	<path fill="#F49600" d="M637.252,935.793c-3.336-0.889-4.84-4.676-5.859-7.975c-0.759-2.457-1.482-5.271-0.152-7.472
		c1.379-2.282,4.354-2.908,6.539-4.437c2.356-1.65,3.801-4.524,3.719-7.399c-0.032-1.135-0.285-2.277-0.097-3.397
		c0.188-1.12,1.003-2.261,2.138-2.309c0.783-0.033,1.483,0.451,2.117,0.914c2.633,1.923,5.266,3.845,7.899,5.768"/>
	<path fill="#F49600" d="M542.803,1057.969c-1.076,4.962,1.695,10.49,6.314,12.596c1.608,0.734,3.388,1.087,4.905,1.996
		c1.516,0.909,2.767,2.647,2.331,4.36c-0.179,0.704-0.629,1.353-0.604,2.079c0.04,1.172,1.225,1.901,2.068,2.716
		c2.362,2.284,2.262,6.38,0.306,9.02c-1.956,2.64-5.327,3.939-8.607,4.113c-3.281,0.175-6.528-0.634-9.697-1.499
		c-5.943-1.622-10.881-6.574-14.494-11.564c-0.867-1.198-1.649-2.455-2.491-3.671"/>
	<path fill="#F49600" d="M850.315,1051.352c0.118,2.521,0.231,5.095-0.462,7.521c-0.693,2.427-2.346,4.725-4.743,5.514
		c-1.894,0.623-4.021,0.252-5.883,0.966c-2.644,1.013-4.099,4.183-3.562,6.963c0.536,2.78,2.763,5.051,5.39,6.108
		c1.31,0.528,2.84,0.878,3.619,2.056c0.783,1.185,0.497,2.747,0.688,4.155c0.308,2.283,1.937,4.219,3.882,5.454
		c1.945,1.235,4.198,1.877,6.415,2.504c4.638-2.655,9.276-5.31,13.914-7.965c1.531-0.877,3.229-1.989,3.47-3.737
		c0.209-1.515-0.775-2.909-1.706-4.122c-3.314-4.314-6.627-8.628-9.941-12.941"/>
	<path fill="#F49600" d="M743.791,1072.322c-2.419-1.899-6.035-2.423-8.608-0.739c-2.837,1.857-3.659,5.674-3.486,9.06
		c0.174,3.386,1.086,6.758,0.693,10.126c-0.335,2.866-1.595,5.53-2.359,8.313c-0.764,2.782-0.968,5.966,0.641,8.361
		c1.953,2.906,6.185,3.681,9.406,2.311C750.434,1105.351,752.36,1079.05,743.791,1072.322z"/>
	<path fill="#F49600" d="M703.207,1000.997c-2.698,1.282-5.864,1.566-8.299,3.296c-2.971,2.11-4.227,6.334-2.894,9.725
		s5.131,5.627,8.743,5.147c-1.178,3.824-2.37,7.792-1.863,11.761c0.507,3.969,3.206,7.955,7.152,8.618
		c4.673,0.785,9.159-3.891,8.883-8.621c-0.239-4.081-3.169-7.532-3.963-11.542c-0.856-4.322,0.868-8.749,3.126-12.532
		c2.258-3.783,5.09-7.251,6.811-11.307c2.055-4.844-1.257-15.74-7.043-9.474C709.444,990.851,710.041,997.75,703.207,1000.997z"/>
	<path fill="#F49600" d="M634.985,947.351c5.048,5.001,11.195,8.887,17.877,11.304c1.062,0.384,2.316,0.712,3.26,0.092
		c1.061-0.697,1.154-2.217,0.934-3.468c-0.865-4.908-4.724-9.097-4.711-14.081c0.008-2.991,1.426-5.765,2.437-8.58
		c0.509-1.416,0.924-2.918,0.727-4.41s-1.138-2.971-2.581-3.397c-1.632-0.482-3.312,0.452-4.757,1.35
		c-3.414,2.12-6.828,4.241-10.242,6.361"/>
	<path fill="#F49600" d="M725.855,894.423c-1.433,4.914-2.813,10.437-0.382,14.942c1.013,1.877,2.611,3.384,3.653,5.245
		c1.406,2.512,1.703,5.475,1.929,8.345c0.226,2.87,0.43,5.825,1.686,8.415c1.256,2.59,3.849,4.76,6.723,4.592
		c2.547-0.148,4.729-2.123,5.721-4.473c0.993-2.35,0.975-5.007,0.624-7.533c-0.557-4.007-1.922-7.9-3.987-11.379"/>
	<path fill="#F49600" d="M656.855,1083.619c0.537-1.457,1.221-2.876,1.483-4.406c0.262-1.53,0.029-3.248-1.054-4.359
		c-1.396-1.433-3.845-1.395-5.537-0.326c-1.691,1.068-2.728,2.929-3.37,4.823c-0.894,2.636-1.153,5.442-1.822,8.145
		s-1.851,5.433-4.091,7.087c-1.464,1.08-3.358,1.694-4.351,3.219c-1.586,2.436-0.017,5.659,1.75,7.967
		c3.795,4.958,17.471,12.064,18.882,1.094c0.371-2.884-1.661-6.083-2.405-8.778C655.018,1093.298,655.128,1088.306,656.855,1083.619
		z"/>
	<path fill="#F49600" d="M804.818,995.155c2.067,2.347,1.319,5.975,0.264,8.919c-1.055,2.944-2.288,6.269-0.883,9.063
		c1.303,2.592,4.555,3.711,7.439,3.389s5.497-1.785,8.019-3.219"/>
	<path fill="#F49600" d="M727.95,890.166c-1.126-3.044,0.836-6.846,3.97-7.692c1.766-0.477,3.995-0.274,5.024-1.786
		c0.941-1.382,0.156-3.301-0.959-4.546c-1.115-1.245-2.575-2.253-3.242-3.786c-1.151-2.646,0.447-5.935-0.847-8.514
		c-0.917-1.827-3.004-2.711-4.965-3.287c-3.286-0.964-6.801-1.473-10.134-0.69c-3.334,0.783-6.455,3.04-7.593,6.27
		c-1.138,3.23,0.194,7.338,3.316,8.743"/>
	<path fill="#F49600" d="M838.63,922.457c-1.354,2.76-4.861,3.659-6.951,5.914c-2.372,2.559-2.44,6.925-0.148,9.557
		c2.292,2.631,6.626,3.164,9.486,1.166c1.869-1.306,2.998-3.406,4.553-5.074c3.026-3.244,7.825-4.721,12.152-3.741
		c2.251,0.51,4.322,1.619,6.541,2.255c2.219,0.636,4.794,0.727,6.649-0.646c2.603-1.926,2.664-5.965,1.179-8.843
		c-2.218-4.298-6.875-6.722-11.412-8.396c-3.295-1.216-6.739-2.173-9.845-3.846c-2.483-1.337-5.263-4.845-8.352-4.25
		C835.293,907.94,840.647,918.345,838.63,922.457z"/>
	<path fill="#F49600" d="M930.763,961.879c-1.694-1.536-4.057-2.134-6.342-2.223c-2.439-0.095-4.982,0.367-6.958,1.801
		s-3.255,3.969-2.742,6.355c0.904,4.202,6.369,5.865,8.029,9.83c0.854,2.042,0.552,4.371,0.062,6.529
		c-0.49,2.158-1.159,4.329-0.994,6.536c0.166,2.207,1.416,4.518,3.544,5.129c1.661,0.477,3.498-0.206,4.755-1.392
		c1.256-1.186,2.014-2.807,2.56-4.447c1.618-4.853,1.013-9.295,0.556-14.212C932.795,971.083,934.811,965.552,930.763,961.879z"/>
	<path fill="#F49600" d="M1012.617,935.932c-2.154,4.251-7.529,6.568-12.099,5.216c0.009,1.267-0.944,2.477-2.178,2.765
		c-1.234,0.288-2.624-0.376-3.176-1.516c-2.072,1.239-3.227,3.642-3.541,6.036c-0.314,2.394,0.095,4.816,0.504,7.196
		c0.402,2.341,0.804,4.683,1.346,6.995c0.402,1.714,0.902,3.455,1.954,4.867c1.052,1.412,2.769,2.448,4.518,2.238"/>
	<path fill="#F49600" d="M961.151,865.332c0.795,2.133,0.58,4.489,0.454,6.762c-0.126,2.273-0.118,4.686,1.04,6.646
		c1.158,1.96,3.864,3.176,5.8,1.979c2.231-1.379,2.149-4.847,4.147-6.545c1.538-1.307,3.854-1.16,5.759-0.494
		c1.905,0.666,3.659,1.77,5.631,2.2c3.089,0.675,6.51-0.516,8.513-2.962c2.003-2.446,2.494-6.036,1.223-8.93"/>
	<path fill="#F49600" d="M842.062,863.599c5.326,4.752,10.161,10.055,14.402,15.796c2.099-7.204,4.695-14.263,7.764-21.11"/>
	<path fill="#F49600" d="M807.609,998.685c5.099,1.494,10.36,3.004,15.643,2.437c1.547-0.166,3.141-0.506,4.631-0.059
		c2.983,0.895,4.19,4.384,4.966,7.4c2.384,9.273,4.768,18.546,7.152,27.819"/>
	<path fill="#F49600" d="M773.817,950.169c2.32,1.583,5.607,1.591,7.934,0.019c1.303-0.88,2.413-2.239,3.974-2.424
		c1.987-0.236,3.706,1.702,3.951,3.688c0.245,1.986-0.576,3.937-1.451,5.737c-0.874,1.8-1.841,3.641-1.913,5.641
		c-0.038,1.062,0.18,2.132,0.024,3.183c-0.156,1.051-0.848,2.146-1.903,2.273c-1.351,0.163-2.34-1.291-2.631-2.62
		c-0.291-1.329-0.269-2.808-1.098-3.887"/>
	<path fill="#F49600" d="M868.912,1066.764c3.992-1.213,7.466-4.047,9.456-7.714c0.843-1.553,1.605-3.414,3.274-3.995
		c1.716-0.598,3.669,0.586,4.453,2.225s0.647,3.569,0.255,5.344c-0.392,1.774-1.021,3.506-1.175,5.317
		c-0.154,1.811,0.255,3.794,1.612,5.002c-1.921,3.399-5.541,5.78-9.423,6.195c-1.749,0.187-3.994-0.404-4.253-2.144"/>
	<circle fill="#FFFFFF" cx="609.844" cy="877.219" r="1.969"/>
	<circle fill="#FFFFFF" cx="426.998" cy="896.392" r="1.969"/>
	<circle fill="#FFFFFF" cx="512.888" cy="1016.96" r="1.969"/>
	<circle fill="#FFFFFF" cx="596.958" cy="1073.75" r="1.969"/>
	<circle fill="#FFFFFF" cx="702.449" cy="945.477" r="1.969"/>
	<circle fill="#FFFFFF" cx="775.449" cy="1059.477" r="1.969"/>
	<circle fill="#FFFFFF" cx="892.449" cy="1003.143" r="1.969"/>
	<circle fill="#FFFFFF" cx="804.449" cy="899.477" r="1.969"/>
	<circle fill="#FFFFFF" cx="965.029" cy="914.661" r="1.969"/>
	<circle fill="#FFFFFF" cx="964.991" cy="627.268" r="1.969"/>
	<circle fill="#FFFFFF" cx="798.387" cy="643.393" r="1.969"/>
	<circle fill="#FFFFFF" cx="894.762" cy="526.695" r="1.969"/>
	<path fill="#D3A762" d="M265.667,837.333H1133v11.833c0,0-6.667,5.167-23,5.167s-830.25,0-830.25,0s-10.25-2.667-10.25-7.292"/>
	<path fill="#FFFFFF" d="M272.25,698h859c0,0-0.5-13.5-17.75-13.5s-832,0-832,0"/>
</g>
<g id="Layer_2_copy">
	<g>
		<path fill="#30021D" d="M1113.233,672.907h-17.859c-21.088-85.833-70.495-163.559-139.692-219.472
			c-35.441-28.638-75.053-50.952-117.737-66.323c-22.925-8.256-46.46-14.379-70.416-18.379v-33.068h8.196
			c14.003,0,25.397-11.393,25.397-25.397v-42.223c0-14.003-11.394-25.396-25.397-25.396H624.276
			c-14.004,0-25.397,11.393-25.397,25.396v42.223c0,14.004,11.393,25.397,25.397,25.397h8.197v33.066
			c-23.961,4-47.5,10.124-70.429,18.381c-42.681,15.371-82.292,37.685-117.732,66.323
			c-69.192,55.912-118.595,133.638-139.684,219.472h-17.861c-16.176,0-29.336,13.16-29.336,29.336v136.012
			c0,16.176,13.16,29.335,29.336,29.335h17.862c21.09,85.832,70.493,163.555,139.682,219.466
			c35.439,28.638,75.05,50.953,117.732,66.324c44.166,15.905,90.579,23.97,137.949,23.97c47.37,0,93.784-8.065,137.951-23.97
			c42.684-15.371,82.296-37.686,117.737-66.324c69.195-55.912,118.602-133.635,139.691-219.466h17.861
			c16.176,0,29.335-13.16,29.335-29.335V702.244C1142.568,686.067,1129.409,672.907,1113.233,672.907z M624.276,318.324
			c-4.442,0-8.056-3.614-8.056-8.056v-42.223c0-4.441,3.614-8.055,8.056-8.055h151.449c4.441,0,8.056,3.614,8.056,8.055v42.223
			c0,4.442-3.615,8.056-8.056,8.056h-8.196H632.473H624.276z M750.188,335.665v30.557c-1.948-0.239-3.896-0.482-5.849-0.693v-29.863
			H750.188z M736.457,335.665v29.096c-2.754-0.244-5.513-0.457-8.276-0.645v-28.45H736.457z M720.298,335.665v27.993
			c-2.755-0.135-5.514-0.24-8.276-0.32v-27.673H720.298z M704.14,335.665v27.521c-1.382-0.014-2.763-0.044-4.147-0.044
			c-1.379,0-2.753,0.03-4.13,0.044v-27.521H704.14z M687.98,335.665v27.672c-2.763,0.08-5.521,0.185-8.276,0.32v-27.992H687.98z
			 M671.822,335.665v28.449c-2.763,0.189-5.522,0.401-8.276,0.645v-29.094H671.822z M655.663,335.665v29.861
			c-1.953,0.211-3.901,0.454-5.849,0.693v-30.555H655.663z M699.993,380.483c179.589,0,333.281,119.697,377.503,292.424h-25.264
			c-20.997-76.74-64.914-142.782-127.345-191.349c-64.451-50.138-142.218-76.64-224.895-76.64
			c-82.67,0-160.433,26.502-224.881,76.64c-62.43,48.568-106.345,114.61-127.341,191.349h-25.264
			C366.728,500.18,520.413,380.483,699.993,380.483z M1015.052,653.218c-1.784-1.116-3.896-1.468-5.95-0.995
			c-2.052,0.474-3.796,1.718-4.911,3.504c-1.116,1.786-1.469,3.899-0.995,5.95l2.595,11.231H898.356l1.706-12.048
			c0.61-4.304-2.396-8.3-6.698-8.911c-2.075-0.294-4.158,0.239-5.842,1.505c-1.683,1.265-2.773,3.11-3.068,5.195l-2.019,14.259
			H714.866l163.378-207.239c37.673,22.003,71.042,50.861,98.259,85.151l-16.257,3.757c-2.051,0.474-3.795,1.718-4.911,3.504
			s-1.469,3.899-0.995,5.95c0.841,3.64,4.092,6.109,7.679,6.109c0.585,0,1.181-0.066,1.775-0.203l18.431-4.258
			c1.503-0.347,2.834-1.115,3.88-2.198c23.453,32.465,41.582,69.309,53.012,109.428h-17.149l-3.414-14.779
			C1018.082,656.077,1016.837,654.333,1015.052,653.218z M1015.499,672.907h-3.237l-2.923-12.65
			c-0.128-0.553,0.071-0.983,0.199-1.19c0.129-0.206,0.43-0.573,0.984-0.701c0.119-0.028,0.237-0.041,0.354-0.041
			c0.717,0,1.367,0.493,1.536,1.222L1015.499,672.907z M893.818,659.974l-1.832,12.933h-3.183l1.894-13.374
			c0.08-0.563,0.419-0.893,0.613-1.04c0.168-0.125,0.496-0.316,0.944-0.316c0.072,0,0.148,0.005,0.226,0.015
			C893.339,658.315,893.939,659.114,893.818,659.974z M614.941,646.889c-10.649,0-19.312,8.663-19.312,19.312
			c0,2.361,0.447,4.614,1.225,6.707h-74.47l6.705-10.371c2.359-3.649,1.309-8.539-2.34-10.899c-1.767-1.142-3.873-1.527-5.934-1.087
			c-2.058,0.442-3.822,1.659-4.965,3.427l-10.272,15.886c-0.606,0.938-0.984,1.973-1.154,3.044H360.885
			c25.472-89.402,84.272-162.503,160.871-207.241l163.379,207.241h-52.107c0.779-2.093,1.225-4.346,1.225-6.707
			C634.253,655.552,625.59,646.889,614.941,646.889z M626.371,666.201c0,2.507-0.821,4.82-2.195,6.707h-18.469
			c-1.374-1.886-2.195-4.2-2.195-6.707c0-6.302,5.127-11.429,11.429-11.429C621.243,654.771,626.371,659.899,626.371,666.201z
			 M514.876,672.907h-3.755l10.026-15.507c0.308-0.477,0.754-0.634,0.993-0.685c0.085-0.018,0.2-0.035,0.334-0.035
			c0.242,0,0.546,0.054,0.852,0.252c0.73,0.472,0.94,1.45,0.468,2.18L514.876,672.907z M532.894,459.425
			c50.081-26.867,107.133-41.895,167.099-41.895c59.971,0,117.027,15.028,167.111,41.896L700,671.392L532.894,459.425z
			 M980.096,556.461c0.293-0.068,0.576-0.022,0.843,0.067c0.357,0.47,0.724,0.932,1.079,1.404c0.017,0.411-0.125,0.732-0.229,0.901
			c-0.129,0.206-0.43,0.573-0.984,0.701l-18.431,4.258c-0.551,0.127-0.982-0.069-1.19-0.199c-0.208-0.129-0.574-0.429-0.702-0.982
			c-0.128-0.553,0.071-0.983,0.2-1.189c0.129-0.207,0.428-0.573,0.982-0.701L980.096,556.461z M699.993,1160.01
			c-179.578,0-333.261-119.694-377.486-292.419h25.263c20.996,76.738,64.911,142.782,127.342,191.35
			c64.448,50.139,142.211,76.64,224.881,76.64c82.677,0,160.444-26.501,224.895-76.64c62.431-48.568,106.348-114.61,127.345-191.35
			h25.262C1033.27,1040.315,879.58,1160.01,699.993,1160.01z M515.852,886.521c1.143,1.767,2.907,2.985,4.965,3.427
			c0.556,0.12,1.115,0.179,1.67,0.179c1.501,0,2.973-0.431,4.263-1.266c1.769-1.142,2.986-2.907,3.428-4.965
			c0.442-2.058,0.056-4.166-1.087-5.935l-6.705-10.37h74.47c-0.779,2.093-1.226,4.347-1.226,6.708
			c0,10.649,8.663,19.312,19.312,19.312c10.649,0,19.312-8.663,19.312-19.312c0-2.361-0.447-4.615-1.226-6.708h52.108
			l-163.379,207.241c-76.599-44.738-135.399-117.839-160.871-207.241h143.542c0.17,1.071,0.547,2.107,1.154,3.045L515.852,886.521z
			 M511.122,867.591h3.754l8.919,13.794c0.309,0.477,0.269,0.948,0.218,1.187c-0.052,0.239-0.209,0.685-0.686,0.993
			c-0.476,0.309-0.948,0.269-1.186,0.217c-0.239-0.051-0.685-0.208-0.993-0.685L511.122,867.591z M603.512,874.299
			c0-2.507,0.821-4.821,2.195-6.708h18.468c1.374,1.886,2.195,4.2,2.195,6.708c0,6.303-5.127,11.429-11.429,11.429
			C608.639,885.728,603.512,880.602,603.512,874.299z M892.241,888.629c0.373,0,0.748-0.026,1.122-0.079
			c4.303-0.61,7.308-4.606,6.698-8.909l-1.706-12.05h107.436l-2.595,11.231c-0.474,2.051-0.122,4.164,0.993,5.95
			c1.116,1.786,2.86,3.031,4.913,3.504c0.594,0.139,1.188,0.203,1.775,0.203c3.586,0,6.837-2.468,7.678-6.109l3.414-14.779h17.148
			c-11.431,40.119-29.56,76.963-53.013,109.428c-1.046-1.083-2.377-1.851-3.879-2.197l-18.433-4.261
			c-4.227-0.974-8.475,1.675-9.453,5.907c-0.474,2.051-0.122,4.164,0.995,5.95s2.859,3.03,4.911,3.504l16.257,3.756
			c-27.217,34.29-60.586,63.149-98.26,85.152L714.866,867.591h167.568l2.019,14.259c0.296,2.085,1.386,3.93,3.068,5.196
			C888.902,888.084,890.545,888.629,892.241,888.629z M888.803,867.591h3.183l1.832,12.933c0.122,0.861-0.479,1.66-1.338,1.781
			c-0.562,0.082-0.974-0.152-1.17-0.3c-0.194-0.146-0.533-0.477-0.613-1.039L888.803,867.591z M1009.339,880.241l2.922-12.65h3.237
			l-3.086,13.36c-0.129,0.554-0.494,0.853-0.702,0.982c-0.206,0.129-0.637,0.322-1.188,0.2c-0.554-0.129-0.854-0.494-0.982-0.702
			C1009.41,881.225,1009.212,880.796,1009.339,880.241z M982.019,982.565c-0.355,0.471-0.721,0.933-1.078,1.402
			c-0.267,0.09-0.551,0.136-0.844,0.07l-18.431-4.258c-0.554-0.129-0.853-0.496-0.982-0.702s-0.328-0.637-0.2-1.19
			c0.197-0.847,1.047-1.367,1.892-1.182l18.431,4.26c0.554,0.129,0.854,0.494,0.984,0.702
			C981.894,981.835,982.035,982.155,982.019,982.565z M867.104,1081.073c-50.084,26.868-107.14,41.896-167.111,41.896
			c-59.966,0-117.018-15.028-167.099-41.895L700,869.107L867.104,1081.073z M1125.227,838.256c0,6.614-5.381,11.994-11.994,11.994
			H286.768c-6.615,0-11.995-5.381-11.995-11.994V702.244c0-6.615,5.381-11.995,11.995-11.995h826.465
			c6.614,0,11.994,5.381,11.994,11.995V838.256z"/>
		<path fill="#30021D" d="M512.888,507.38c-10.649,0-19.312,8.663-19.312,19.312c0,10.649,8.663,19.312,19.312,19.312
			s19.312-8.663,19.312-19.312C532.199,516.043,523.536,507.38,512.888,507.38z M512.888,538.121
			c-6.302,0-11.429-5.127-11.429-11.429c0-6.302,5.127-11.429,11.429-11.429s11.429,5.127,11.429,11.429
			C524.317,532.994,519.19,538.121,512.888,538.121z"/>
		<path fill="#30021D" d="M426.998,620.341c-10.649,0-19.312,8.663-19.312,19.312c0,10.649,8.663,19.312,19.312,19.312
			c10.649,0,19.312-8.663,19.312-19.312C446.31,629.004,437.647,620.341,426.998,620.341z M426.998,651.082
			c-6.302,0-11.429-5.127-11.429-11.429c0-6.302,5.127-11.429,11.429-11.429c6.302,0,11.429,5.127,11.429,11.429
			C438.428,645.955,433.3,651.082,426.998,651.082z"/>
		<path fill="#30021D" d="M599.571,453.274c-10.649,0-19.312,8.663-19.312,19.312c0,10.649,8.663,19.312,19.312,19.312
			c10.649,0,19.312-8.663,19.312-19.312C618.883,461.937,610.22,453.274,599.571,453.274z M599.571,484.015
			c-6.302,0-11.429-5.127-11.429-11.429c0-6.302,5.127-11.429,11.429-11.429c6.302,0,11.429,5.127,11.429,11.429
			C611,478.888,605.873,484.015,599.571,484.015z"/>
		<path fill="#30021D" d="M959.339,604.971c-10.649,0-19.312,8.663-19.312,19.312c0,10.649,8.663,19.312,19.312,19.312
			c10.649,0,19.312-8.663,19.312-19.312C978.651,613.633,969.988,604.971,959.339,604.971z M959.339,635.711
			c-6.303,0-11.429-5.127-11.429-11.429c0-6.302,5.127-11.429,11.429-11.429s11.429,5.127,11.429,11.429
			C970.769,630.584,965.642,635.711,959.339,635.711z"/>
		<path fill="#30021D" d="M890.931,511.716c-10.649,0-19.312,8.663-19.312,19.312c0,10.649,8.663,19.312,19.312,19.312
			c10.649,0,19.312-8.663,19.312-19.312C910.243,520.378,901.58,511.716,890.931,511.716z M890.931,542.457
			c-6.303,0-11.429-5.127-11.429-11.429c0-6.302,5.127-11.429,11.429-11.429s11.429,5.127,11.429,11.429
			C902.361,537.329,897.234,542.457,890.931,542.457z"/>
		<path fill="#30021D" d="M803.376,620.341c-10.649,0-19.312,8.663-19.312,19.312c0,10.649,8.663,19.312,19.312,19.312
			c10.649,0,19.312-8.663,19.312-19.312C822.688,629.004,814.025,620.341,803.376,620.341z M803.376,651.082
			c-6.303,0-11.429-5.127-11.429-11.429c0-6.302,5.127-11.429,11.429-11.429c6.303,0,11.429,5.127,11.429,11.429
			C814.806,645.955,809.679,651.082,803.376,651.082z"/>
		<path fill="#30021D" d="M719.313,591.869c0-10.649-8.663-19.312-19.312-19.312c-10.649,0-19.312,8.663-19.312,19.312
			c0,10.649,8.663,19.312,19.312,19.312C710.65,611.18,719.313,602.517,719.313,591.869z M688.571,591.869
			c0-6.302,5.127-11.429,11.429-11.429c6.302,0,11.43,5.127,11.43,11.429c0,6.302-5.128,11.429-11.43,11.429
			C693.699,603.298,688.571,598.171,688.571,591.869z"/>
		<path fill="#30021D" d="M778.216,496.195c10.649,0,19.312-8.663,19.312-19.312c0-10.649-8.663-19.312-19.312-19.312
			c-10.649,0-19.312,8.663-19.312,19.312C758.905,487.532,767.567,496.195,778.216,496.195z M778.216,465.454
			c6.303,0,11.429,5.127,11.429,11.429c0,6.302-5.127,11.429-11.429,11.429s-11.429-5.127-11.429-11.429
			C766.787,470.582,771.913,465.454,778.216,465.454z"/>
		<path fill="#30021D" d="M477.535,574.401l-16.383-9.459c-3.763-2.175-8.593-0.88-10.768,2.886
			c-2.172,3.764-0.878,8.594,2.886,10.767l16.383,9.459c1.215,0.701,2.563,1.06,3.929,1.06c0.685,0,1.374-0.09,2.053-0.273
			c2.034-0.545,3.733-1.849,4.786-3.672C482.593,581.405,481.298,576.575,477.535,574.401z M474.959,582.016
			c-0.284,0.492-0.722,0.672-0.958,0.735c-0.237,0.062-0.704,0.125-1.195-0.158l-16.384-9.459c-0.753-0.435-1.011-1.401-0.577-2.153
			c0.292-0.506,0.823-0.788,1.369-0.788c0.267,0,0.538,0.068,0.785,0.21l16.383,9.459
			C475.135,580.297,475.394,581.263,474.959,582.016z"/>
		<path fill="#30021D" d="M690.317,463.61l16.383,9.459c1.238,0.715,2.591,1.055,3.927,1.055c2.727,0,5.382-1.414,6.842-3.94
			c1.051-1.824,1.332-3.947,0.785-5.982c-0.545-2.033-1.849-3.733-3.672-4.785l-16.383-9.459c-3.762-2.173-8.594-0.879-10.767,2.884
			c-1.053,1.824-1.332,3.948-0.787,5.982S688.494,462.558,690.317,463.61z M692.893,455.996c0.292-0.506,0.823-0.788,1.368-0.788
			c0.267,0,0.538,0.068,0.786,0.211l16.383,9.459c0.753,0.435,1.011,1.401,0.579,2.152c-0.434,0.752-1.398,1.015-2.155,0.578
			l-16.383-9.46c-0.492-0.283-0.671-0.721-0.734-0.957S692.609,456.488,692.893,455.996z"/>
		<path fill="#30021D" d="M858.783,574.401l-16.383-9.459c-3.763-2.173-8.594-0.877-10.767,2.887
			c-1.052,1.824-1.332,3.947-0.787,5.981c0.545,2.034,1.85,3.734,3.673,4.786l16.382,9.459c1.215,0.701,2.563,1.06,3.929,1.06
			c0.685,0,1.375-0.09,2.054-0.273c2.034-0.545,3.733-1.849,4.786-3.672c1.052-1.824,1.332-3.947,0.787-5.981
			S860.608,575.454,858.783,574.401z M856.208,582.016c-0.283,0.492-0.72,0.671-0.956,0.734c-0.236,0.065-0.705,0.128-1.198-0.158
			l-16.383-9.46c-0.491-0.284-0.671-0.721-0.734-0.957s-0.126-0.704,0.157-1.195c0.436-0.755,1.402-1.013,2.155-0.579l16.382,9.459
			c0.493,0.285,0.673,0.722,0.736,0.958C856.429,581.055,856.492,581.524,856.208,582.016z"/>
		<path fill="#30021D" d="M598.628,588.756c-2.092-0.209-4.147,0.405-5.778,1.737l-14.654,11.965
			c-3.365,2.749-3.868,7.724-1.12,11.091c1.332,1.63,3.219,2.645,5.314,2.857c0.27,0.027,0.54,0.041,0.807,0.041
			c1.81,0,3.55-0.617,4.97-1.777l14.654-11.964h0.001c1.63-1.332,2.645-3.219,2.857-5.314c0.212-2.095-0.405-4.147-1.737-5.777
			C602.61,589.983,600.723,588.967,598.628,588.756z M599.404,596.757c-0.024,0.242-0.131,0.704-0.571,1.062h0.001l-14.655,11.964
			c-0.441,0.36-0.917,0.372-1.155,0.347c-0.243-0.024-0.704-0.131-1.063-0.572c-0.359-0.44-0.372-0.912-0.347-1.155
			c0.024-0.242,0.131-0.704,0.571-1.062l14.654-11.965c0.358-0.293,0.737-0.356,0.997-0.356c0.06,0,0.113,0.004,0.158,0.008
			c0.243,0.024,0.704,0.131,1.063,0.572C599.416,596.041,599.429,596.514,599.404,596.757z"/>
		<path fill="#30021D" d="M644.799,523.617c-4.294-0.598-8.299,2.397-8.909,6.7l-2.653,18.73c-0.295,2.085,0.239,4.16,1.505,5.843
			c1.265,1.683,3.11,2.772,5.194,3.067c0.376,0.054,0.75,0.08,1.122,0.08c1.697,0,3.34-0.547,4.72-1.584
			c1.683-1.265,2.773-3.111,3.067-5.194l2.653-18.73c0.296-2.085-0.239-4.16-1.504-5.842
			C648.73,525.002,646.885,523.912,644.799,523.617z M645.256,531.642l-2.654,18.732c-0.079,0.562-0.418,0.891-0.613,1.038
			c-0.196,0.147-0.612,0.379-1.168,0.301c-0.861-0.122-1.463-0.921-1.34-1.783l2.652-18.73c0.112-0.787,0.789-1.356,1.561-1.356
			c0.073,0,0.147,0.005,0.221,0.016c0.563,0.079,0.893,0.419,1.04,0.613C645.101,530.669,645.335,531.08,645.256,531.642z"/>
		<path fill="#30021D" d="M763.388,558.698c1.416,1.557,3.356,2.469,5.459,2.567c0.126,0.005,0.251,0.008,0.376,0.008
			c1.966,0,3.836-0.722,5.301-2.055c1.556-1.417,2.468-3.356,2.566-5.459c0.097-2.104-0.63-4.119-2.048-5.675l-12.738-13.986
			c-1.418-1.556-3.356-2.468-5.459-2.566c-2.128-0.094-4.12,0.629-5.673,2.046c-1.558,1.417-2.469,3.356-2.568,5.46
			c-0.099,2.103,0.628,4.118,2.046,5.675L763.388,558.698z M755.416,538.239c0.382-0.348,0.807-0.411,1.064-0.411
			c0.025,0,0.049,0.001,0.071,0.002c0.243,0.012,0.708,0.093,1.091,0.513l12.738,13.988c0.383,0.419,0.42,0.891,0.409,1.135
			c-0.011,0.243-0.092,0.709-0.513,1.091c-0.419,0.382-0.887,0.413-1.136,0.41c-0.243-0.012-0.708-0.093-1.091-0.513l-12.738-13.986
			c-0.382-0.421-0.42-0.892-0.409-1.136C754.914,539.087,754.996,538.622,755.416,538.239z"/>
		<path fill="#30021D" d="M493.576,1013.807c0,10.649,8.663,19.312,19.312,19.312s19.312-8.663,19.312-19.312
			c0-10.649-8.663-19.312-19.312-19.312S493.576,1003.159,493.576,1013.807z M512.888,1002.378c6.302,0,11.429,5.127,11.429,11.429
			s-5.127,11.429-11.429,11.429s-11.429-5.127-11.429-11.429S506.586,1002.378,512.888,1002.378z"/>
		<path fill="#30021D" d="M426.998,881.535c-10.649,0-19.312,8.663-19.312,19.312c0,10.649,8.663,19.312,19.312,19.312
			c10.649,0,19.312-8.663,19.312-19.312C446.31,890.197,437.647,881.535,426.998,881.535z M426.998,912.275
			c-6.302,0-11.429-5.127-11.429-11.429c0-6.303,5.127-11.429,11.429-11.429c6.302,0,11.429,5.127,11.429,11.429
			C438.428,907.149,433.3,912.275,426.998,912.275z"/>
		<path fill="#30021D" d="M599.571,1048.602c-10.649,0-19.312,8.663-19.312,19.312c0,10.649,8.663,19.312,19.312,19.312
			c10.649,0,19.312-8.663,19.312-19.312C618.883,1057.265,610.22,1048.602,599.571,1048.602z M599.571,1079.343
			c-6.302,0-11.429-5.126-11.429-11.429s5.127-11.429,11.429-11.429c6.302,0,11.429,5.127,11.429,11.429
			S605.873,1079.343,599.571,1079.343z"/>
		<path fill="#30021D" d="M959.339,935.528c10.649,0,19.312-8.663,19.312-19.312c0-10.649-8.663-19.312-19.312-19.312
			c-10.649,0-19.312,8.663-19.312,19.312C940.028,926.865,948.69,935.528,959.339,935.528z M959.339,904.787
			c6.303,0,11.429,5.127,11.429,11.429s-5.127,11.429-11.429,11.429s-11.429-5.127-11.429-11.429S953.036,904.787,959.339,904.787z"
			/>
		<path fill="#30021D" d="M871.62,1009.472c0,10.649,8.663,19.312,19.312,19.312c10.649,0,19.312-8.663,19.312-19.312
			c0-10.649-8.663-19.312-19.312-19.312C880.282,990.161,871.62,998.823,871.62,1009.472z M890.931,998.043
			c6.303,0,11.429,5.127,11.429,11.429c0,6.303-5.127,11.429-11.429,11.429s-11.429-5.127-11.429-11.429
			C879.502,1003.169,884.628,998.043,890.931,998.043z"/>
		<path fill="#30021D" d="M803.376,881.535c-10.649,0-19.312,8.663-19.312,19.312c0,10.649,8.663,19.312,19.312,19.312
			c10.649,0,19.312-8.663,19.312-19.312C822.688,890.197,814.025,881.535,803.376,881.535z M803.376,912.275
			c-6.303,0-11.429-5.127-11.429-11.429c0-6.303,5.127-11.429,11.429-11.429c6.303,0,11.429,5.127,11.429,11.429
			C814.806,907.149,809.679,912.275,803.376,912.275z"/>
		<path fill="#30021D" d="M680.689,948.629c0,10.649,8.663,19.312,19.312,19.312c10.65,0,19.312-8.663,19.312-19.312
			c0-10.649-8.663-19.312-19.312-19.312C689.352,929.318,680.689,937.981,680.689,948.629z M700.001,937.2
			c6.302,0,11.43,5.127,11.43,11.429s-5.128,11.429-11.43,11.429c-6.302,0-11.429-5.127-11.429-11.429S693.699,937.2,700.001,937.2z
			"/>
		<path fill="#30021D" d="M758.905,1063.615c0,10.649,8.663,19.312,19.312,19.312c10.649,0,19.312-8.663,19.312-19.312
			c0-10.649-8.663-19.312-19.312-19.312C767.567,1044.304,758.905,1052.966,758.905,1063.615z M778.216,1052.186
			c6.303,0,11.429,5.127,11.429,11.429s-5.127,11.429-11.429,11.429s-11.429-5.126-11.429-11.429S771.913,1052.186,778.216,1052.186
			z"/>
		<path fill="#30021D" d="M469.653,952.444l-16.383,9.459c-1.823,1.053-3.128,2.753-3.673,4.786s-0.266,4.158,0.787,5.981
			c1.052,1.824,2.753,3.128,4.786,3.673c0.679,0.182,1.368,0.272,2.053,0.272c1.366,0,2.713-0.359,3.928-1.059l16.383-9.459
			c3.763-2.172,5.057-7.003,2.885-10.769C478.245,951.564,473.414,950.271,469.653,952.444z M475.116,959.68
			c-0.063,0.236-0.242,0.673-0.734,0.956l-16.383,9.459c-0.493,0.285-0.959,0.22-1.196,0.159c-0.236-0.063-0.673-0.243-0.958-0.736
			c-0.434-0.753-0.175-1.718,0.577-2.152l16.383-9.459c0.492-0.285,0.961-0.22,1.196-0.159c0.236,0.063,0.673,0.243,0.958,0.736
			C475.243,958.975,475.18,959.444,475.116,959.68z"/>
		<path fill="#30021D" d="M706.7,1067.43l-16.382,9.459c-1.824,1.053-3.128,2.753-3.673,4.786c-0.546,2.034-0.266,4.158,0.787,5.981
			c1.053,1.823,2.753,3.128,4.786,3.672c0.679,0.183,1.368,0.272,2.052,0.272c1.366,0,2.715-0.359,3.929-1.059l16.383-9.459
			c1.823-1.053,3.127-2.753,3.672-4.786c0.547-2.034,0.266-4.158-0.787-5.983C715.29,1066.55,710.459,1065.261,706.7,1067.43z
			 M711.429,1075.62l-16.383,9.46c-0.492,0.282-0.962,0.222-1.195,0.157c-0.236-0.063-0.674-0.243-0.958-0.734
			c-0.284-0.493-0.221-0.961-0.158-1.196c0.063-0.235,0.242-0.673,0.735-0.956l16.383-9.459l0.002-0.002
			c0.282-0.162,0.556-0.211,0.782-0.211c0.169,0,0.313,0.026,0.413,0.054c0.236,0.063,0.674,0.243,0.958,0.734
			C712.441,1074.221,712.182,1075.186,711.429,1075.62z"/>
		<path fill="#30021D" d="M850.903,952.444l-16.382,9.459c-1.824,1.053-3.13,2.753-3.675,4.786s-0.265,4.158,0.788,5.981
			c1.458,2.526,4.114,3.94,6.84,3.94c1.336,0,2.69-0.34,3.927-1.053l16.38-9.459c1.824-1.053,3.13-2.753,3.675-4.786
			s0.265-4.158-0.787-5.982C859.499,951.568,854.667,950.274,850.903,952.444z M856.366,959.68
			c-0.063,0.236-0.243,0.673-0.736,0.956l-16.38,9.459c-0.754,0.434-1.721,0.176-2.155-0.577c-0.285-0.491-0.222-0.961-0.159-1.196
			s0.243-0.673,0.736-0.956l16.382-9.459c0.754-0.439,1.721-0.174,2.154,0.577C856.492,958.975,856.429,959.444,856.366,959.68z"/>
		<path fill="#30021D" d="M578.196,938.041l14.654,11.965c1.421,1.161,3.161,1.778,4.971,1.778c0.268,0,0.536-0.014,0.807-0.04
			c2.095-0.212,3.983-1.227,5.314-2.859c1.332-1.63,1.948-3.682,1.737-5.776c-0.212-2.095-1.226-3.981-2.857-5.313l-14.654-11.965
			c-1.632-1.332-3.681-1.949-5.778-1.737c-2.095,0.211-3.982,1.225-5.314,2.857c-1.332,1.63-1.948,3.682-1.737,5.776
			C575.552,934.823,576.566,936.709,578.196,938.041z M581.961,930.939c0.359-0.44,0.821-0.547,1.063-0.571
			c0.045-0.005,0.099-0.008,0.158-0.008c0.26,0,0.64,0.063,0.997,0.354l14.654,11.965c0.44,0.36,0.547,0.821,0.571,1.062
			c0.025,0.243,0.012,0.716-0.348,1.156c-0.359,0.44-0.819,0.547-1.061,0.571c-0.246,0.025-0.716,0.014-1.155-0.346l-14.654-11.965
			c-0.44-0.36-0.547-0.821-0.571-1.062C581.59,931.852,581.602,931.379,581.961,930.939z"/>
		<path fill="#30021D" d="M648.846,989.242c-0.295-2.084-1.384-3.93-3.067-5.196c-1.683-1.266-3.751-1.797-5.842-1.504
			c-2.084,0.296-3.929,1.386-5.194,3.068c-1.265,1.683-1.8,3.758-1.505,5.841l2.653,18.731c0.296,2.085,1.385,3.93,3.067,5.196
			c1.38,1.038,3.024,1.583,4.721,1.583c0.372,0,0.747-0.026,1.122-0.079c2.085-0.296,3.93-1.386,5.194-3.068
			c1.265-1.683,1.8-3.758,1.505-5.842L648.846,989.242z M644.955,1010.025c-0.147,0.194-0.477,0.533-1.04,0.613
			c-0.848,0.131-1.66-0.48-1.781-1.339l-2.653-18.731c-0.079-0.562,0.155-0.973,0.301-1.168c0.147-0.194,0.477-0.533,1.04-0.613
			c0.078-0.011,0.154-0.017,0.226-0.017c0.446,0,0.774,0.191,0.942,0.317c0.195,0.146,0.533,0.476,0.613,1.039l2.654,18.73
			C645.335,1009.418,645.101,1009.829,644.955,1010.025z"/>
		<path fill="#30021D" d="M756.469,1008.977c0.125,0,0.249-0.003,0.376-0.008c2.103-0.099,4.041-1.01,5.459-2.566l12.738-13.986
			c1.418-1.556,2.145-3.573,2.048-5.676c-0.099-2.103-1.01-4.041-2.568-5.461c-1.556-1.416-3.552-2.149-5.675-2.044
			c-2.103,0.099-4.043,1.01-5.459,2.566l-12.738,13.986c-1.418,1.556-2.145,3.572-2.046,5.675c0.099,2.103,1.01,4.043,2.565,5.459
			C752.633,1008.255,754.502,1008.977,756.469,1008.977z M755.311,1000.034l12.739-13.988c0.309-0.34,0.736-0.513,1.165-0.513
			c0.379,0,0.759,0.135,1.061,0.41c0.42,0.382,0.502,0.848,0.513,1.091c0.011,0.243-0.026,0.716-0.409,1.136l-12.738,13.986
			c-0.382,0.42-0.848,0.502-1.091,0.513c-0.243,0.026-0.716-0.028-1.136-0.411c-0.419-0.382-0.5-0.847-0.513-1.09
			C754.891,1000.925,754.93,1000.454,755.311,1000.034z"/>
	</g>
</g>
<g id="Layer_5">
	
		<text transform="matrix(1 0 0 1 390.0985 805.127)" fill="#30021D" font-family="'Exo-ExtraBold'" font-size="92.7721px" letter-spacing="9">PIZZA TIME!</text>
	<g>
		
			<rect x="1062.713" y="760.362" transform="matrix(0.7071 0.7071 -0.7071 0.7071 858.8058 -532.8419)" fill="#7F2E19" width="19.775" height="19.775"/>
		
			<rect x="317.513" y="760.362" transform="matrix(-0.7071 0.7071 -0.7071 -0.7071 1103.5553 1083.3911)" fill="#7F2E19" width="19.775" height="19.775"/>
	</g>
</g>
</svg>
