<?xml version="1.0" encoding="utf-8"?>
<!-- Generator: Adobe Illustrator 21.0.0, SVG Export Plug-In . SVG Version: 6.00 Build 0)  -->
<svg version="1.1" xmlns="http://www.w3.org/2000/svg" xmlns:xlink="http://www.w3.org/1999/xlink" x="0px" y="0px"
	 viewBox="0 0 1400 1400" enable-background="new 0 0 1400 1400" xml:space="preserve">
<g id="Layer_2" display="none">
	<g display="inline">
		<path fill="none" stroke="#0E1235" stroke-width="6" stroke-miterlimit="10" d="M657.833,622.422
			c-21.88,33.44-110.67,170.63-106.57,188.75c4.67,20.67,76.14-36,82.47-31.33c6.34,4.67-4,39,11.67,36.67
			c15.67-2.34-2-49.17,12.33-49.17c14.34,0-1.66,93.67,15.17,96.17s-2.75-100.42,22-113.42c19.41-10.2,86.96-49.18,115.18-65.52"/>
		<path fill="none" stroke="#0E1235" stroke-width="6" stroke-miterlimit="10" d="M555.188,815.403c0,0,10.964,13.689,25.714,8.439
			s55.165-28.502,55.165-28.502"/>
		
			<line fill="none" stroke="#0E1235" stroke-width="6" stroke-miterlimit="10" x1="651.876" y1="788.888" x2="663.615" y2="781.65"/>
		<path fill="none" stroke="#0E1235" stroke-width="6" stroke-miterlimit="10" d="M683.504,773.016
			c0,0,141.614-76.875,143.232-78.507"/>
		<g>
			<path fill="none" stroke="#0E1235" stroke-width="6" stroke-miterlimit="10" d="M834.367,699.48
				c-3.262,0-6.542-1.095-9.249-3.339c-62.425-51.774-145.85-69.889-169.932-74.208c-7.882-1.414-13.126-8.95-11.713-16.832
				c1.414-7.882,8.952-13.125,16.832-11.713c25.845,4.635,115.447,24.134,183.326,80.431c6.164,5.112,7.017,14.254,1.904,20.417
				C842.668,697.693,838.532,699.48,834.367,699.48z"/>
		</g>
		<path fill="none" stroke="#0E1235" stroke-width="4" stroke-miterlimit="10" d="M669.272,649.834
			c2.506-0.309,4.845-0.042,5.598,1.75c0.299,0.712,0.203,1.576-0.246,2.205c-0.498,0.697-1.335,1.053-2.129,1.375
			c-4.579,1.859-9.05,3.985-13.704,5.658c-1.572,0.565-4.439,2.243-5.816,0.85c-1.146-1.158-0.619-3.771,0.275-4.915
			c1.861-2.381,6.454-4.132,9.222-5.143C663.833,651.116,666.645,650.159,669.272,649.834z"/>
		<path fill="none" stroke="#0E1235" stroke-width="4" stroke-miterlimit="10" d="M752.428,716.713
			c2.042-4.764,4.083-9.528,6.125-14.292c0.775-1.808,1.57-3.648,2.862-5.132c1.292-1.483,3.186-2.578,5.147-2.419
			c1.208,0.098,2.489,0.837,2.696,2.031c0.129,0.746-0.181,1.49-0.484,2.183c-1.535,3.511-3.071,7.022-4.606,10.533"/>
		<path fill="none" stroke="#0E1235" stroke-width="4" stroke-miterlimit="10" d="M622.741,710.731
			c-3.577,2.632-6.15,6.417-7.168,10.546c-0.584,2.367-0.65,4.928,0.402,7.152c1.638,3.46,5.887,5.514,9.955,5.321
			c4.068-0.194,7.838-2.378,10.351-5.352c3.305-3.912,4.786-10.275,3.394-15.084C637.479,705.728,628.25,706.677,622.741,710.731z"
			/>
		<path fill="none" stroke="#0E1235" stroke-width="4" stroke-miterlimit="10" d="M718.972,662.804
			c-4.618,2.444-8.288,7.259-8.399,12.243c-0.127,5.745,3.605,10.041,8.985,11.38c2.724,0.679,5.629,0.796,8.326,0.018
			c5.385-1.553,9.416-6.929,9.4-12.533c-0.014-5.004-3.263-9.738-7.76-11.839C726.173,660.507,722.322,661.031,718.972,662.804z"/>
		<path fill="none" stroke="#0E1235" stroke-width="4" stroke-miterlimit="10" d="M691.729,719.402
			c0.242-3.926,0.142-7.872,0.25-11.802c0.069-2.512,0.269-6.739-2.597-7.9c-3.95-1.6-4.309,5.97-4.416,8.049
			c-0.548,10.691-1.782,19.874,2.604,19.052c2.921-0.548,3.878-3.726,4.082-6.306C691.681,720.131,691.707,719.766,691.729,719.402z
			"/>
		<path fill="none" stroke="#0E1235" stroke-width="4" stroke-miterlimit="10" d="M601.46,795.907
			c-1.419,0.578-4.906,0.713-6.436,0.797c-1.53,0.083-3.18-0.427-4.08-1.667c-0.782-1.078-0.878-2.506-0.775-3.835
			c0.261-3.383,1.649-6.669,3.891-9.215c2.3-2.612,5.611-4.46,9.092-4.479c3.481-0.018,7.026,2.029,8.282,5.275
			c1.255,3.247-0.282,7.458-3.528,8.714"/>
		<g>
			<g>
				<g>
					<path fill="#0E1235" d="M664.166,631.483l4.433-6.215l-0.95-0.677l-0.95-0.677l-4.434,6.215c0,0-5.449,7.639-7.511,12.538
						C658.717,639.122,664.166,631.483,664.166,631.483z"/>
				</g>
			</g>
		</g>
		<g>
			<g>
				<g>
					<path fill="#0E1235" d="M798.56,682.103l3.359-1.793l-0.549-1.029l-0.549-1.029l-3.359,1.793c0,0-4.129,2.203-5.861,4.45
						C794.431,684.306,798.56,682.103,798.56,682.103z"/>
				</g>
			</g>
		</g>
		<g>
			<g>
				<g>
					<path fill="#0E1235" d="M828.051,678.291c5.676,4.525,11.129,9.326,16.392,14.324l1.208-1.266l1.208-1.266
						c-5.337-5.068-10.867-9.936-16.622-14.525c0,0-1.313-1.074-3.535-2.744c-2.21-1.684-5.337-3.951-8.935-6.356
						c-7.166-4.856-16.37-10.014-23.305-12.864c6.084,4.381,14.711,10.215,21.54,15.367c3.429,2.553,6.447,4.877,8.594,6.581
						C826.743,677.249,828.051,678.291,828.051,678.291z"/>
				</g>
			</g>
		</g>
		<g>
			<g>
				<g>
					<path fill="#0E1235" d="M664.812,605.096c-6.618-1.111-13.307-1.78-20.009-2.101l-0.052,1.166l-0.052,1.166
						c6.609,0.316,13.205,0.976,19.732,2.072c0,0,1.508,0.227,3.965,0.685c2.46,0.437,5.865,1.123,9.662,2.002
						c7.613,1.695,16.688,4.505,23.182,6.57c-6.046-3.143-15.048-6.549-22.683-8.55c-3.807-1.033-7.245-1.8-9.732-2.279
						C666.342,605.326,664.812,605.096,664.812,605.096z"/>
				</g>
			</g>
		</g>
		<g>
			<g>
				<g>
					<path fill="#0E1235" d="M660.168,689.267c0,0-0.242,0.054-0.538,0.29c-0.29,0.242-0.602,0.72-0.797,1.463
						c-0.1,0.366-0.169,0.792-0.206,1.247c-0.046,0.507-0.096,1.101-0.238,1.762c-0.152,0.654-0.373,1.431-1.006,2.186
						c-0.317,0.372-0.733,0.702-1.226,0.925c-0.503,0.228-1.065,0.321-1.595,0.293c-1.067-0.066-1.945-0.531-2.614-1.152
						c-0.692-0.655-1.056-1.425-1.27-2.14c-0.405-1.445-0.247-2.673-0.115-3.609c0.152-0.907,0.277-1.646,0.363-2.16
						c0.074-0.502,0.092-0.785,0.092-0.785s0.146,0.252,0.324,0.756c0.184,0.5,0.369,1.268,0.555,2.179
						c0.188,0.903,0.415,1.947,0.88,2.809c0.225,0.418,0.531,0.804,0.834,1.015c0.321,0.239,0.73,0.397,1.058,0.422
						c0.326,0.024,0.524-0.039,0.798-0.237c0.261-0.197,0.526-0.615,0.748-1.083c0.222-0.474,0.415-0.995,0.616-1.499
						c0.215-0.554,0.476-1.04,0.772-1.446c0.583-0.824,1.336-1.262,1.837-1.318C659.948,689.133,660.167,689.284,660.168,689.267z"
						/>
				</g>
			</g>
		</g>
		<g>
			<g>
				<g>
					<path fill="#0E1235" d="M756.933,676.517c0,0,0.052,0.797-0.086,2.069c-0.136,1.269-0.484,3.02-1.267,4.833
						c-0.234,0.478-0.463,1.156-1.384,1.715c-0.476,0.264-1.107,0.34-1.637,0.155c-0.534-0.179-0.87-0.519-1.086-0.823
						c-0.43-0.592-0.516-1.327-0.488-1.748c0.02-0.448,0.078-0.753,0.096-0.989c0.015-0.252,0.037-0.343-0.019-0.504
						c-0.048-0.145-0.126-0.258-0.189-0.324c-0.122-0.142-0.249-0.128-0.252-0.135c0.012,0.023,0.001-0.192,0.368-0.266
						c0.341-0.079,1.061,0.187,1.398,0.959c0.174,0.348,0.283,0.74,0.41,1.053c0.124,0.338,0.275,0.461,0.424,0.537
						c0.031,0.013,0.065,0.005,0.065,0.005c-0.076,0.091-0.125,0.184-0.144,0.241c-0.019,0.037-0.007,0.081-0.015-0.015
						c0.004,0.049,0.009,0.015-0.033-0.065c-0.019-0.035-0.056-0.102-0.102-0.158c-0.049-0.071-0.14-0.163-0.114-0.143
						c0.001-0.014,0.017-0.042,0.041-0.088c0.049-0.096,0.114-0.232,0.194-0.42c0.739-1.708,1.687-3.145,2.455-4.199
						C756.336,677.159,756.933,676.517,756.933,676.517z"/>
				</g>
			</g>
		</g>
		<g>
			<g>
				<g>
					<path fill="#0E1235" d="M698.608,654.047c0,0-0.234,0.255-0.578,0.755c-0.337,0.501-0.771,1.268-1.036,2.271
						c-0.136,0.499-0.219,1.055-0.233,1.641c-0.008,0.296,0.008,0.661-0.041,1.121c-0.045,0.443-0.193,1.054-0.589,1.58
						c-0.196,0.263-0.459,0.523-0.823,0.718c-0.355,0.2-0.839,0.294-1.23,0.263c-0.792-0.075-1.227-0.344-1.459-0.382
						c-0.118-0.032-0.127-0.008-0.096-0.01c0.025,0.003,0.023,0-0.019,0.031c-0.099,0.08-0.229,0.214-0.393,0.534
						c-0.171,0.314-0.354,0.771-0.693,1.283c-0.354,0.529-0.832,0.977-1.409,1.288c-0.585,0.308-1.27,0.477-2.002,0.364
						c-0.697-0.116-1.305-0.45-1.763-0.975c-0.471-0.517-0.681-1.325-0.6-1.913c0.065-0.605,0.271-1.028,0.439-1.375
						c0.179-0.354,0.323-0.601,0.441-0.859c0.118-0.257,0.213-0.504,0.277-0.738c0.284-0.939,0.012-1.669-0.36-2.067
						c-0.175-0.199-0.356-0.3-0.483-0.359c-0.128-0.059-0.204-0.075-0.204-0.075c-0.006,0.024,0.304-0.16,0.93,0.095
						c0.304,0.131,0.661,0.39,0.954,0.822c0.297,0.435,0.476,1.046,0.49,1.722c0.027,0.663-0.15,1.437-0.334,2.093
						c-0.082,0.32-0.131,0.62-0.101,0.814c0.033,0.207,0.103,0.242,0.197,0.302c0.098,0.061,0.265,0.12,0.406,0.108
						c0.115-0.011,0.266-0.056,0.43-0.167c0.373-0.25,0.516-0.533,0.979-1.514c0.231-0.46,0.615-1.07,1.216-1.492
						c0.304-0.217,0.686-0.405,1.128-0.479c0.449-0.081,0.905-0.007,1.208,0.094c0.617,0.214,0.929,0.415,1.016,0.441
						c0.063,0.206-0.07,0.055,0.087,0.046c0.258-0.113,0.428-0.709,0.584-1.458c0.185-0.751,0.466-1.406,0.795-1.946
						c0.655-1.089,1.431-1.73,1.978-2.096C698.272,654.166,698.608,654.047,698.608,654.047z"/>
				</g>
			</g>
		</g>
		<g>
			<g>
				<g>
					<path fill="#0E1235" d="M717.768,704.281c0,0,0.11-0.005,0.321-0.013c0.213-0.005,0.528-0.017,0.956,0.019
						c0.423,0.043,0.986,0.118,1.604,0.47c0.301,0.176,0.613,0.413,0.879,0.765c0.267,0.341,0.475,0.841,0.503,1.356
						c0.051,1.025-0.414,1.9-0.476,2.455c-0.027,0.223,0.025,0.522,0.106,0.637c0.037,0.061,0.064,0.034,0.014-0.014
						c-0.044-0.049-0.135-0.06-0.103-0.073c0.149-0.058,0.301-0.117,0.454-0.177c0.244-0.098,0.678-0.235,1.151-0.229
						c0.979,0.011,1.789,0.602,2.244,1.168c0.472,0.584,0.762,1.206,0.954,1.87c0.182,0.691,0.235,1.17,0.35,1.65
						c0.103,0.462,0.238,0.82,0.374,1.008c0.146,0.19,0.247,0.265,0.464,0.318c0.214,0.049,0.514,0.018,0.773-0.088
						c0.251-0.097,0.481-0.274,0.7-0.531c0.431-0.51,0.696-1.238,0.836-1.996c0.148-0.775,0.232-1.654,0.486-2.456
						c0.497-1.586,1.351-2.626,1.985-3.24c0.648-0.614,1.076-0.852,1.076-0.852s-0.325,0.374-0.745,1.107
						c-0.413,0.728-0.892,1.852-1.003,3.229c-0.064,0.68,0.018,1.426,0.021,2.342c-0.002,0.917-0.134,2.022-0.765,3.091
						c-0.315,0.527-0.774,1.052-1.411,1.422c-0.62,0.359-1.352,0.57-2.163,0.516c-0.802-0.034-1.716-0.481-2.252-1.142
						c-0.559-0.662-0.795-1.393-0.945-2.007c-0.147-0.608-0.223-1.209-0.304-1.602c-0.078-0.369-0.223-0.742-0.387-0.996
						c-0.171-0.272-0.304-0.357-0.355-0.387c-0.042-0.017-0.068-0.047-0.257-0.004c-0.178,0.035-0.446,0.132-0.829,0.19
						c-0.379,0.067-0.925,0.023-1.353-0.229c-0.446-0.247-0.709-0.646-0.847-0.987c-0.265-0.701-0.209-1.291-0.066-1.843
						c0.174-0.565,0.395-0.885,0.569-1.229c0.177-0.328,0.313-0.611,0.37-0.876c0.139-0.517-0.123-1.072-0.501-1.454
						c-0.374-0.388-0.837-0.612-1.214-0.77c-0.382-0.156-0.693-0.249-0.899-0.317C717.877,704.316,717.768,704.281,717.768,704.281z
						"/>
				</g>
			</g>
		</g>
		<g>
			<g>
				<g>
					<path fill="#0E1235" d="M603.84,746.936c0,0-0.087,0.451-0.365,1.293c-0.148,0.418-0.351,0.946-0.749,1.515
						c-0.41,0.57-1.033,1.174-1.996,1.477c-0.478,0.142-1.069,0.196-1.652,0.028c-0.578-0.156-1.083-0.48-1.481-0.804
						c-0.779-0.654-1.437-1.34-1.872-1.369c-0.383-0.108-1.104,0.214-2.208,0.756c-0.596,0.257-1.274,0.504-2.16,0.506
						c-0.438-0.002-0.948-0.099-1.42-0.342c-0.469-0.233-0.889-0.637-1.15-1.063c-0.528-0.865-0.596-1.756-0.51-2.535
						c0.093-0.757,0.309-1.36,0.461-1.864c0.3-0.914,0.375-1.79,0.249-2.583c-0.131-0.787-0.46-1.361-0.956-1.667
						c-0.129-0.088-0.354-0.187-0.606-0.334c-0.244-0.146-0.581-0.352-0.84-0.777c-0.271-0.42-0.26-1.004-0.153-1.307
						c0.102-0.332,0.204-0.494,0.286-0.671c1.391-2.838,2.349-4.579,2.349-4.579s-0.326,1.959-1.086,5.014
						c-0.045,0.188-0.109,0.403-0.119,0.535c-0.013,0.151,0.033,0.162,0.057,0.157c0.021,0,0.338,0.13,0.84,0.286
						c1.133,0.393,2.055,1.528,2.396,2.722c0.374,1.196,0.378,2.518,0.073,3.776c-0.139,0.584-0.279,1.084-0.32,1.491
						c-0.048,0.384,0.021,0.707,0.119,0.888c0.108,0.151,0.093,0.165,0.333,0.214c0.235,0.037,0.661-0.038,1.082-0.186
						c0.421-0.145,0.981-0.403,1.596-0.575c0.613-0.176,1.393-0.288,2.154-0.067c0.758,0.226,1.292,0.688,1.658,1.084
						c0.378,0.405,0.648,0.78,0.911,1.086c0.519,0.627,0.968,0.916,1.615,0.893c0.628-0.027,1.239-0.333,1.678-0.704
						c0.453-0.377,0.779-0.806,1.033-1.159C603.589,747.35,603.84,746.936,603.84,746.936z"/>
				</g>
			</g>
		</g>
		<g>
			<g>
				<g>
					<path fill="#0E1235" d="M661.235,735.398c0.009,0.007-0.194,0.125-0.288,0.459c-0.101,0.318-0.073,0.947,0.262,1.569
						c0.175,0.356,0.43,0.764,0.683,1.329c0.247,0.534,0.493,1.401,0.301,2.285c-0.171,0.851-0.56,1.508-0.821,2.049
						c-0.282,0.548-0.38,0.942-0.336,1.141c0.02,0.225,0.212,0.546,0.506,0.77c0.297,0.231,0.602,0.333,1.019,0.345
						c0.819,0.016,1.694-0.415,2.305-0.941c0.634-0.533,1.093-1.128,1.41-1.539c0.314-0.424,0.49-0.661,0.49-0.661
						s-0.019,0.304-0.113,0.839c-0.102,0.532-0.261,1.312-0.761,2.214c-0.498,0.881-1.429,1.948-3.034,2.319
						c-1.58,0.41-3.966-0.502-4.444-2.863c-0.203-1.224,0.317-2.195,0.686-2.786c0.395-0.618,0.73-1.046,0.903-1.398
						c0.395-0.558,0.07-1.664-0.052-2.664c-0.132-1.059,0.245-1.891,0.636-2.217C660.987,735.32,661.246,735.419,661.235,735.398z"
						/>
				</g>
			</g>
		</g>
		<g>
			<g>
				<g>
					<path fill="#0E1235" d="M628.312,690.25c0,0,0.13-1.139,0.598-2.943c0.468-1.8,1.306-4.267,2.704-6.806
						c1.396-2.54,3.068-4.633,4.387-6.046c1.319-1.418,2.26-2.19,2.26-2.19s-0.411,1.178-1.153,2.934
						c-0.746,1.759-1.785,4.099-3.124,6.526c-1.338,2.427-2.747,4.522-3.827,6.056C629.079,689.311,628.312,690.25,628.312,690.25z"
						/>
				</g>
			</g>
		</g>
		<g>
			<g>
				<g>
					<path fill="#0E1235" d="M619.586,703.818c0,0-0.024-1.891,1.034-3.64c1.059-1.749,2.799-2.693,2.799-2.693
						s0.555,2.303-0.504,4.052S619.586,703.818,619.586,703.818z"/>
				</g>
			</g>
		</g>
		<g>
			<g>
				<g>
					<path fill="#0E1235" d="M570.871,783.684c0,0-0.294,0.99-0.845,2.543c-0.551,1.555-1.341,3.672-2.345,5.981
						c-1.005,2.308-2.041,4.388-2.819,5.915c-0.779,1.524-1.318,2.479-1.318,2.479s-0.106-1.125,0.045-2.875
						c0.148-1.747,0.581-4.128,1.62-6.521c1.039-2.393,2.469-4.305,3.627-5.579C569.995,784.349,570.871,783.684,570.871,783.684z"
						/>
				</g>
			</g>
		</g>
		<g>
			<g>
				<g>
					<path fill="#0E1235" d="M576.048,774.45c0,0,0.584,1.374,0.123,2.709c-0.461,1.335-1.791,2.124-1.791,2.124
						s-1.197-1.643-0.736-2.977C574.104,774.971,576.048,774.45,576.048,774.45z"/>
				</g>
			</g>
		</g>
		<g>
			<g>
				<g>
					<path fill="#0E1235" d="M772.79,683.018c0,0-0.646-1.826-0.221-3.894c0.425-2.069,1.76-3.598,1.76-3.598
						s1.283,2.039,0.858,4.108C774.762,681.702,772.79,683.018,772.79,683.018z"/>
				</g>
			</g>
		</g>
		<g>
			<g>
				<path fill="#0E1235" d="M691.903,687.342c2.574,0,2.578-4,0-4C689.329,683.342,689.325,687.342,691.903,687.342L691.903,687.342
					z"/>
			</g>
		</g>
		<g>
			<g>
				<path fill="#0E1235" d="M630.903,762.592c2.574,0,2.578-4,0-4C628.329,758.592,628.325,762.592,630.903,762.592L630.903,762.592
					z"/>
			</g>
		</g>
		<g>
			<g>
				<path fill="#0E1235" d="M626.153,755.842c2.574,0,2.578-4,0-4C623.579,751.842,623.575,755.842,626.153,755.842L626.153,755.842
					z"/>
			</g>
		</g>
		<g>
			<g>
				<path fill="#0E1235" d="M635.403,754.342c2.574,0,2.578-4,0-4C632.829,750.342,632.825,754.342,635.403,754.342L635.403,754.342
					z"/>
			</g>
		</g>
		<g>
			<g>
				<path fill="#0E1235" d="M675.403,636.176c2.574,0,2.578-4,0-4C672.829,632.176,672.825,636.176,675.403,636.176L675.403,636.176
					z"/>
			</g>
		</g>
		<g>
			<g>
				<g>
					<path fill="#0E1235" d="M803.187,703.547l-0.41,3.323l1.158,0.143l1.158,0.143l0.41-3.323c0,0,0.504-4.084-0.376-6.484
						C803.691,699.463,803.187,703.547,803.187,703.547z"/>
				</g>
			</g>
		</g>
		<g>
			<g>
				<g>
					<path fill="#0E1235" d="M797.512,707l-0.825,4.8l1.15,0.198l1.15,0.198l0.825-4.8c0,0,1.014-5.9,0.425-9.358
						C798.526,701.1,797.512,707,797.512,707z"/>
				</g>
			</g>
		</g>
		<g>
			<g>
				<g>
					<path fill="#0E1235" d="M770.568,722.122c-0.054,1.025-0.068,2.051-0.05,3.078l1.166-0.023l1.166-0.023
						c-0.017-0.971-0.004-1.942,0.047-2.911c0,0,0.039-0.892,0.01-2.046c-0.035-1.156-0.114-2.577-0.496-3.686
						c-0.764,0.89-1.275,2.296-1.535,3.479C770.61,721.174,770.568,722.122,770.568,722.122z"/>
				</g>
			</g>
		</g>
		<g>
			<g>
				<g>
					<path fill="#0E1235" d="M721.612,749.769c0.061,0.77,0.17,1.537,0.315,2.296l1.145-0.223l1.145-0.223
						c-0.129-0.674-0.226-1.355-0.28-2.039c0,0-0.059-0.626-0.207-1.439c-0.156-0.814-0.375-1.821-0.855-2.635
						c-0.677,0.66-1.052,1.739-1.187,2.643C721.545,749.054,721.612,749.769,721.612,749.769z"/>
				</g>
			</g>
		</g>
		<g>
			<g>
				<g>
					<path fill="#0E1235" d="M709.654,754.582l-0.055,2.063l1.166,0.031l1.166,0.031l0.055-2.063c0,0,0.068-2.536-1.061-3.968
						C709.721,752.046,709.654,754.582,709.654,754.582z"/>
				</g>
			</g>
		</g>
		<g>
			<g>
				<g>
					<path fill="#0E1235" d="M586.569,807.551v-1.375h-1.167h-1.167v1.375c0,0,0,1.69,1.167,2.625
						C586.569,809.241,586.569,807.551,586.569,807.551z"/>
				</g>
			</g>
		</g>
		<g>
			<g>
				<g>
					<path fill="#0E1235" d="M674.238,792.188c0,0-0.111,0.313-0.192,0.881c-0.079,0.563-0.088,1.405,0.209,2.326
						c0.153,0.456,0.378,0.928,0.696,1.354c0.291,0.417,0.815,0.837,1.368,1.649c0.271,0.401,0.511,0.964,0.594,1.509
						c0.093,0.549,0.074,1.092-0.007,1.599c-0.161,1.028-0.578,1.914-0.888,2.667c-0.325,0.764-0.51,1.369-0.512,1.906
						c-0.001,0.262,0.039,0.478,0.109,0.653c0.057,0.151,0.14,0.26,0.281,0.371c0.135,0.1,0.285,0.155,0.376,0.166
						c0.093,0.012,0.14,0.029,0.284-0.077c0.269-0.2,0.609-0.861,0.891-1.333c0.568-0.992,0.998-1.828,1.291-2.412
						c0.29-0.588,0.452-0.916,0.452-0.916s0.004,0.371-0.052,1.034c-0.056,0.663-0.174,1.623-0.451,2.785
						c-0.172,0.585-0.218,1.177-0.713,1.988c-0.244,0.391-0.742,0.808-1.338,0.948c-0.587,0.143-1.191,0.067-1.722-0.158
						c-0.53-0.221-1.034-0.612-1.382-1.161c-0.331-0.507-0.509-1.096-0.569-1.659c-0.13-1.13,0.2-2.217,0.555-3.069
						c0.362-0.868,0.705-1.537,0.866-2.136c0.164-0.623,0.194-1.061,0.021-1.521c-0.184-0.506-0.664-1.117-0.988-1.848
						c-0.323-0.714-0.441-1.423-0.463-2.047c-0.031-1.262,0.362-2.184,0.689-2.728C673.98,792.411,674.238,792.188,674.238,792.188z
						"/>
				</g>
			</g>
		</g>
		<g>
			<g>
				<g>
					<path fill="#0E1235" d="M645.886,791.386c-0.018,0.015,0.383,0.013,0.855,0.483c0.437,0.446,0.892,1.419,0.465,2.603
						c-0.388,1.131-1.476,2.002-2.407,2.644c-0.988,0.686-1.442,1.154-1.855,2.22c-0.414,1.038-0.633,2.324-1.138,3.573
						c-0.48,1.219-1.287,2.364-2.305,2.927c-0.482,0.275-1.021,0.463-1.561,0.438c-0.534-0.002-1.051-0.319-1.245-0.647
						c-0.216-0.325-0.25-0.657-0.209-0.871c0.04-0.216,0.108-0.309,0.108-0.309s-0.028,0.116,0.007,0.309
						c0.031,0.192,0.167,0.433,0.402,0.589c0.506,0.371,1.219,0.051,1.689-0.57c0.5-0.612,0.778-1.465,0.957-2.514
						c0.194-1.022,0.228-2.33,0.781-3.823c0.283-0.737,0.713-1.488,1.33-2.069c0.62-0.592,1.279-0.906,1.825-1.15
						c1.102-0.459,1.894-0.755,2.407-1.305c0.515-0.505,0.588-1.293,0.415-1.792C646.232,791.6,645.867,791.388,645.886,791.386z"/>
				</g>
			</g>
		</g>
		<g>
			<g>
				<g>
					<path fill="#0E1235" d="M705.111,730.129c0,0-2.241,2.858-5.841,5.466c-3.601,2.608-7.198,3.979-7.198,3.979
						s1.987-3.498,5.588-6.106C701.26,730.861,705.111,730.129,705.111,730.129z"/>
				</g>
			</g>
		</g>
		<g>
			<g>
				<g>
					<path fill="#0E1235" d="M715.111,724.353c0,0-0.188,1.431-1.224,2.26s-2.526,0.74-2.526,0.74s-0.189-1.984,0.847-2.812
						S715.111,724.353,715.111,724.353z"/>
				</g>
			</g>
		</g>
		
			<line fill="none" stroke="#0E1235" stroke-width="5" stroke-linecap="round" stroke-miterlimit="10" x1="726.956" y1="609.991" x2="735.119" y2="536.443"/>
		<polyline fill="none" stroke="#0E1235" stroke-width="5" stroke-linecap="round" stroke-miterlimit="10" points="735.119,540.443 
			811.619,570.693 729.351,588.413 		"/>
		<g>
			<g>
				<g>
					<path fill="#0E1235" d="M782.758,650.024c0,0-3.636-1.514-9.582-3.991c-5.922-2.518-14.141-6.014-23.35-9.93
						c-9.2-3.927-17.647-7.531-23.798-10.157c-6.168-2.597-10.032-4.223-10.032-4.223s4.028,0.973,10.385,2.931
						c6.356,1.951,15.028,4.941,24.26,8.896c9.234,3.949,17.267,8.09,22.985,11.221
						C779.342,647.909,782.758,650.024,782.758,650.024z"/>
				</g>
			</g>
		</g>
		<g>
			<path fill="none" d="M715.372,781.554c-1.11-0.436-2.495-0.332-4.155,0.27c-1.287,0.467-2.58,0.91-3.879,1.329
				c-0.347,0.112-0.53,0.487-0.402,0.829c0.953,2.547,1.906,5.093,2.858,7.64c0.122,0.325,0.481,0.498,0.81,0.386
				c1.282-0.434,2.559-0.894,3.829-1.376c1.625-0.618,2.706-1.497,3.258-2.593c0.551-1.097,0.58-2.35,0.085-3.745
				C717.28,782.896,716.481,781.988,715.372,781.554z"/>
			<path fill="none" d="M816.845,731.968c1.726-0.775,3.462-1.51,5.208-2.202c0.369-0.146,0.518-0.586,0.312-0.925
				c-1.121-1.844-2.255-3.683-3.401-5.518c-0.301-0.482-1.041-0.367-1.176,0.184c-0.629,2.562-1.24,5.14-1.833,7.733
				C815.837,731.757,816.362,732.185,816.845,731.968z"/>
			<path fill="#0E1235" d="M722.213,775.549c-1.58-1.183-3.472-1.798-5.686-1.891c-2.215-0.095-4.636,0.356-7.261,1.288
				c-4.186,1.486-8.43,2.733-12.743,3.69c-0.383,0.085-0.6,0.487-0.457,0.852c3.805,9.759,7.61,19.517,11.415,29.276
				c0.12,0.307,0.454,0.477,0.772,0.389c2.226-0.615,4.432-1.315,6.619-2.09c0.339-0.12,0.513-0.497,0.387-0.834
				c-0.833-2.226-1.666-4.452-2.499-6.679c-0.125-0.335,0.048-0.704,0.385-0.822c1.41-0.497,2.812-1.024,4.208-1.58
				c2.488-0.991,4.464-2.389,5.964-4.12c1.498-1.732,2.454-3.685,2.88-5.813c0.423-2.129,0.265-4.317-0.49-6.551
				C724.95,778.429,723.793,776.732,722.213,775.549z M717.69,788.038c-0.552,1.097-1.633,1.976-3.258,2.593
				c-1.271,0.482-2.547,0.942-3.829,1.376c-0.329,0.112-0.689-0.061-0.81-0.386c-0.953-2.547-1.906-5.093-2.858-7.64
				c-0.128-0.341,0.055-0.717,0.402-0.829c1.299-0.419,2.592-0.862,3.879-1.329c1.661-0.602,3.045-0.706,4.155-0.27
				c1.11,0.434,1.908,1.342,2.404,2.739C718.271,785.688,718.241,786.941,717.69,788.038z"/>
			<path fill="#0E1235" d="M729.021,766.758c3.05,9.425,6.099,18.849,9.149,28.274c0.127,0.392,0.586,0.567,0.94,0.357
				c2.077-1.234,4.143-2.512,6.2-3.827c0.243-0.156,0.354-0.456,0.269-0.732c-2.875-9.384-5.75-18.768-8.625-28.153
				c-0.12-0.392-0.573-0.57-0.929-0.366c-2.221,1.271-4.453,2.503-6.695,3.687C729.055,766.144,728.926,766.463,729.021,766.758z"/>
			<path fill="#0E1235" d="M760.554,772.012c2.639-8.331,5.44-16.674,8.418-24.965c-1.988-1.559-1.932-1.515-3.92-3.074
				c-6.794,4.5-13.588,8.999-20.447,13.229c-0.244,0.151-0.357,0.444-0.277,0.72c0.509,1.757,1.018,3.513,1.527,5.27
				c0.119,0.411,0.6,0.596,0.962,0.367c3.653-2.31,7.288-4.696,10.914-7.117c0.508-0.339,1.152,0.155,0.957,0.734
				c-2.953,8.743-5.725,17.481-8.333,26.145c1.753,1.283,1.749,1.28,3.501,2.563c6.975-4.794,13.88-9.879,20.795-14.922
				c0.208-0.152,0.305-0.413,0.246-0.664c-0.4-1.709-0.8-3.417-1.2-5.126c-0.104-0.444-0.625-0.641-0.997-0.376
				c-3.718,2.653-7.433,5.315-11.158,7.937C761.038,773.088,760.368,772.597,760.554,772.012z"/>
			<path fill="#0E1235" d="M788.366,752.442c3.14-8.352,6.488-16.558,10.066-24.531c-1.628-1.491-1.58-1.447-3.208-2.938
				c-7.19,4.067-14.278,8.557-21.335,13.171c-0.224,0.146-0.334,0.416-0.276,0.677c0.377,1.702,0.755,3.403,1.132,5.105
				c0.097,0.44,0.606,0.643,0.98,0.393c3.574-2.385,7.155-4.735,10.755-7.012c0.525-0.332,1.165,0.204,0.934,0.781
				c-2.947,7.358-5.728,14.843-8.355,22.397c2.535,1.892,2.429,1.813,4.964,3.704c5.953-4.237,11.941-8.332,18.013-12.078
				c0.22-0.136,0.335-0.389,0.293-0.644c-0.273-1.664-0.547-3.328-0.82-4.992c-0.074-0.449-0.579-0.685-0.968-0.45
				c-3.766,2.277-7.501,4.684-11.215,7.173C788.809,753.546,788.147,753.026,788.366,752.442z"/>
			<path fill="#0E1235" d="M820.865,712.963c-2.438,0.867-4.856,1.814-7.257,2.833c-0.184,0.078-0.323,0.236-0.375,0.429
				c-2.864,10.568-5.413,21.431-7.665,32.515c-0.11,0.543,0.475,0.96,0.954,0.682c2.002-1.165,4.013-2.287,6.038-3.359
				c0.168-0.089,0.286-0.248,0.324-0.434c0.4-1.978,0.809-3.949,1.228-5.911c0.041-0.194,0.17-0.359,0.348-0.446
				c3.522-1.733,7.083-3.308,10.69-4.689c0.294-0.112,0.628,0.005,0.789,0.276c0.72,1.212,1.434,2.426,2.143,3.642
				c0.155,0.265,0.474,0.38,0.763,0.276c2.246-0.807,4.51-1.535,6.796-2.174c0.409-0.114,0.598-0.583,0.379-0.947
				c-4.582-7.595-9.382-15.076-14.401-22.445C821.453,712.967,821.142,712.864,820.865,712.963z M815.956,731.24
				c0.593-2.594,1.204-5.172,1.833-7.733c0.135-0.552,0.875-0.666,1.176-0.184c1.146,1.835,2.28,3.674,3.401,5.518
				c0.206,0.339,0.057,0.779-0.312,0.925c-1.746,0.692-3.482,1.428-5.208,2.202C816.362,732.185,815.837,731.757,815.956,731.24z"/>
		</g>
	</g>
</g>
<g id="Layer_4">
	<rect x="-10" y="-10" fill="#F2C673" width="1420" height="1420"/>
	<g>
		<path fill="#D59750" d="M529.29,699.998c0-4.249-3.155-7.453-7.338-7.453H259.357c-4.183,0-7.338,3.206-7.338,7.457
			c0,4.249,3.155,7.453,7.338,7.453h262.595C526.135,707.455,529.29,704.249,529.29,699.998z"/>
		<path fill="#D59750" d="M610.767,846.782c-2.618,0-4.895,1.343-6.247,3.684l-131.298,227.415
			c-1.331,2.305-1.355,5.016-0.065,7.251c1.363,2.361,4.005,3.888,6.73,3.888c0,0,0.001,0,0.001,0c2.618,0,4.895-1.343,6.246-3.684
			l131.298-227.414c1.331-2.307,1.355-5.018,0.064-7.253C616.134,848.309,613.492,846.782,610.767,846.782z"/>
		<path fill="#D59750" d="M795.479,850.466c-1.33-2.306-3.666-3.682-6.247-3.682c-2.727,0-5.369,1.525-6.731,3.886
			c-1.31,2.268-1.285,4.91,0.066,7.252l131.298,227.414c1.331,2.306,3.667,3.682,6.248,3.682c2.727,0,5.369-1.524,6.731-3.885
			c1.31-2.268,1.285-4.91-0.066-7.252L795.479,850.466z"/>
		<path fill="#D59750" d="M1140.644,692.545H878.048c-4.184,0-7.338,3.206-7.338,7.458c0,4.249,3.154,7.453,7.338,7.453h262.596
			c4.184,0,7.338-3.206,7.338-7.458C1147.981,695.749,1144.827,692.545,1140.644,692.545z"/>
		<path fill="#D59750" d="M789.233,553.217c2.58,0,4.915-1.377,6.246-3.684l131.299-227.415c1.331-2.305,1.355-5.016,0.064-7.251
			c-1.363-2.361-4.005-3.887-6.73-3.887c-2.618,0-4.896,1.342-6.247,3.684L782.567,542.079c-1.331,2.305-1.355,5.016-0.064,7.251
			C783.866,551.691,786.508,553.217,789.233,553.217z"/>
		<path fill="#D59750" d="M486.134,314.664c-1.331-2.306-3.667-3.682-6.248-3.682c-2.727,0-5.369,1.525-6.732,3.886
			c-1.309,2.268-1.285,4.911,0.067,7.251L604.52,549.534c1.331,2.305,3.666,3.682,6.247,3.682c0,0,0,0,0.001,0
			c2.727,0,5.369-1.525,6.731-3.885c1.29-2.234,1.265-4.945-0.067-7.252L486.134,314.664z"/>
		<path fill="#D59750" d="M744.414,450.163C744.415,450.163,744.415,450.163,744.414,450.163c3.701,0,6.608-2.444,7.235-6.082
			l25.418-147.553c0.378-2.194-0.17-4.3-1.541-5.928c-1.417-1.681-3.63-2.685-5.919-2.685c-3.7,0-6.607,2.444-7.235,6.082
			l-25.417,147.552c-0.378,2.194,0.17,4.3,1.541,5.928C739.913,449.159,742.125,450.163,744.414,450.163z"/>
		<path fill="#D59750" d="M379.578,442.982l115.076,95.788c1.367,1.138,2.98,1.739,4.667,1.739c0,0,0.001,0,0.001,0
			c3.087,0,6.007-2.113,7.102-5.138c1.064-2.941,0.21-6.03-2.23-8.061l-115.076-95.789c-1.367-1.138-2.981-1.739-4.667-1.739
			c-3.087,0-6.008,2.113-7.102,5.138C376.284,437.863,377.138,440.951,379.578,442.982z"/>
		<path fill="#D59750" d="M462.373,789.045c-0.651-3.648-3.678-6.296-7.198-6.296c-0.88,0-1.766,0.162-2.632,0.481L312.05,834.994
			c-3.442,1.268-5.321,4.553-4.676,8.174c0.65,3.648,3.677,6.298,7.198,6.298c0,0,0,0,0.001,0c0.88,0,1.765-0.162,2.632-0.481
			l140.494-51.764C461.141,795.952,463.02,792.666,462.373,789.045z"/>
		<path fill="#D59750" d="M655.585,949.837c-3.701,0-6.608,2.444-7.234,6.083l-25.417,147.552c-0.378,2.194,0.169,4.3,1.542,5.928
			c1.417,1.682,3.629,2.686,5.918,2.686c0,0,0,0,0,0c3.7,0,6.607-2.444,7.233-6.082l25.417-147.553
			c0.378-2.194-0.169-4.299-1.541-5.928C660.087,950.841,657.875,949.837,655.585,949.837z"/>
		<path fill="#D59750" d="M1020.422,957.018l-115.075-95.788c-1.367-1.138-2.98-1.739-4.667-1.739c-3.087,0-6.007,2.113-7.102,5.138
			c-1.064,2.941-0.21,6.03,2.23,8.062l115.075,95.788c1.366,1.138,2.98,1.739,4.666,1.739c0.001,0,0.001,0,0.001,0
			c3.087,0,6.007-2.112,7.102-5.138C1023.717,962.138,1022.862,959.049,1020.422,957.018z"/>
		<path fill="#D59750" d="M937.627,610.954c0.65,3.649,3.678,6.298,7.198,6.298c0.88,0,1.766-0.162,2.632-0.481l140.493-51.764
			c3.442-1.269,5.321-4.555,4.676-8.176c-0.651-3.648-3.679-6.296-7.198-6.296c-0.88,0-1.766,0.162-2.632,0.481l-140.493,51.764
			C938.86,604.047,936.981,607.333,937.627,610.954z"/>
		<path fill="#D59750" d="M373.213,587.501l175.068,64.525c0.866,0.319,1.75,0.48,2.629,0.48c0.001,0,0.001,0,0.001,0
			c3.522,0,6.551-2.649,7.202-6.298c0.646-3.62-1.233-6.904-4.676-8.173L378.37,573.51c-0.866-0.319-1.751-0.48-2.63-0.48
			c-3.522,0-6.551,2.649-7.203,6.299C367.891,582.948,369.77,586.231,373.213,587.501z"/>
		<path fill="#D59750" d="M299.728,560.416l32.42,11.949c0.866,0.319,1.751,0.48,2.63,0.48c3.522,0,6.551-2.649,7.202-6.299
			c0.646-3.619-1.234-6.903-4.676-8.172l-32.42-11.949c-0.866-0.319-1.751-0.48-2.63-0.48c-3.522,0-6.552,2.649-7.203,6.3
			C294.405,555.863,296.285,559.147,299.728,560.416z"/>
		<path fill="#D59750" d="M584.823,799.343c-1.094-3.025-4.013-5.139-7.098-5.139c-1.686,0-3.3,0.602-4.668,1.74L429.642,915.295
			c-2.439,2.03-3.294,5.119-2.23,8.062c1.094,3.026,4.013,5.14,7.099,5.14c0,0,0,0,0,0c1.686,0,3.3-0.602,4.667-1.74
			l143.415-119.351C585.033,805.375,585.887,802.286,584.823,799.343z"/>
		<path fill="#D59750" d="M400.669,941.551c-1.687,0-3.301,0.603-4.668,1.741l-26.559,22.102c-2.439,2.03-3.293,5.119-2.229,8.063
			c1.094,3.025,4.013,5.138,7.098,5.139h0c1.686,0,3.301-0.603,4.668-1.741l26.559-22.102c2.439-2.03,3.293-5.119,2.229-8.063
			C406.673,943.664,403.754,941.551,400.669,941.551z"/>
		<path fill="#D59750" d="M764.425,1045.186c1.372-1.628,1.919-3.733,1.542-5.931l-31.654-183.876
			c-0.626-3.638-3.535-6.082-7.238-6.082c-2.289,0-4.5,1.003-5.915,2.683c-1.372,1.628-1.919,3.733-1.541,5.93l31.653,183.876
			c0.627,3.638,3.536,6.081,7.238,6.082h0.001C760.799,1047.867,763.01,1046.864,764.425,1045.186z"/>
		<path fill="#D59750" d="M773.392,1082.387c-0.627-3.638-3.536-6.082-7.239-6.082c-2.289,0-4.5,1.003-5.915,2.683
			c-1.372,1.628-1.919,3.733-1.541,5.93l5.862,34.05c0.626,3.639,3.534,6.083,7.237,6.083c0.001,0,0.001,0,0.002,0
			c2.288,0,4.499-1.002,5.914-2.682c1.372-1.628,1.919-3.734,1.541-5.93L773.392,1082.387z"/>
		<path fill="#D59750" d="M1026.787,812.5l-175.068-64.525c-0.866-0.319-1.751-0.481-2.631-0.481c-3.522,0-6.551,2.649-7.202,6.3
			c-0.646,3.618,1.233,6.902,4.676,8.171l175.068,64.525c0.866,0.319,1.751,0.481,2.631,0.481c0,0,0,0,0.001,0
			c3.521,0,6.551-2.649,7.201-6.299C1032.109,817.053,1030.229,813.769,1026.787,812.5z"/>
		<path fill="#D59750" d="M1100.272,839.585l-32.42-11.949c-0.866-0.319-1.751-0.481-2.631-0.481c-3.522,0-6.551,2.649-7.202,6.3
			c-0.646,3.618,1.233,6.902,4.676,8.171l32.42,11.949c0.866,0.319,1.751,0.481,2.631,0.481c0,0,0,0,0.001,0
			c3.521,0,6.551-2.649,7.201-6.3C1105.595,844.138,1103.715,840.854,1100.272,839.585z"/>
		<path fill="#D59750" d="M815.177,600.657c1.095,3.025,4.013,5.139,7.098,5.139c0.001,0,0.001,0,0.001,0
			c1.687,0,3.301-0.602,4.668-1.74l143.415-119.351c2.439-2.03,3.294-5.12,2.229-8.063c-1.095-3.025-4.014-5.138-7.099-5.138
			c-1.687,0-3.301,0.602-4.668,1.74L817.406,592.595C814.967,594.625,814.113,597.714,815.177,600.657z"/>
		<path fill="#D59750" d="M999.33,458.449L999.33,458.449c1.687,0,3.301-0.602,4.669-1.74l26.559-22.102
			c2.439-2.03,3.293-5.119,2.229-8.062c-1.095-3.026-4.014-5.139-7.099-5.139c-1.687,0-3.301,0.602-4.669,1.74l-26.559,22.103
			c-2.439,2.03-3.293,5.119-2.229,8.062C993.326,456.335,996.245,458.449,999.33,458.449z"/>
		<path fill="#D59750" d="M648.728,358.215c-0.626-3.638-3.535-6.082-7.238-6.082c-2.289,0-4.5,1.003-5.915,2.683
			c-1.372,1.628-1.919,3.734-1.541,5.929l31.653,183.876c0.626,3.637,3.535,6.082,7.238,6.082c0,0,0,0,0.001,0
			c2.288,0,4.499-1.002,5.915-2.682c1.372-1.628,1.919-3.734,1.541-5.93L648.728,358.215z"/>
		<path fill="#D59750" d="M633.848,323.695c2.289,0,4.5-1.003,5.915-2.683c1.372-1.628,1.919-3.734,1.541-5.929l-5.862-34.051
			c-0.626-3.638-3.535-6.083-7.238-6.083c-2.289,0-4.5,1.003-5.915,2.683c-1.372,1.628-1.919,3.734-1.541,5.93l5.862,34.051
			C627.235,321.251,630.144,323.695,633.848,323.695z"/>
	</g>
</g>
<g id="Layer_3">
	<path fill="#F49600" d="M579.136,900.651c-2.245,0-3.2,0.688-3.903,1.434c-4.781,5.056-5.311,20.39-4.789,36.563l16.755-10.329
		C584.231,902.875,579.191,900.672,579.136,900.651z"/>
	<path fill="#48A146" d="M612.827,561.359c-6.357,0.784-13.406,3.036-18.201,4.786c-5.279,1.929-19.302,7.05-23.853,12.872
		c-1.197,1.532-1.778,5.15-1.286,6.377c1.602,0.152,5.713-1.594,7.526-2.365c1.163-0.496,2.243-0.952,3.177-1.287
		c8.213-2.952,16.442-6.503,24.401-9.935c4.856-2.095,9.71-4.189,14.608-6.177c1.23-0.499,3.085-1.251,3.59-1.96
		c0.133-0.185,0.173-0.555,0.087-0.763C622.198,561.296,618.261,560.691,612.827,561.359z"/>
	<path fill="#48A146" d="M667.543,703.733c-0.495-0.201-0.737-0.212-0.784-0.212c-0.004,0-0.007,0-0.008,0
		c-0.02,0.042-3.146,1.946-3.974,18.118c-0.218,4.255-0.466,8.306-0.705,12.222c-0.815,13.335-2.041,33.413,1.015,36.583
		c0.047-0.02,0.179-0.028,0.365-0.064c5.511-1.034,6.755-9.351,7.035-12.879c0.08-1.006,0.15-2.016,0.212-3.025
		c0.421-6.832,0.472-13.877,0.523-20.693c0.032-4.3,0.064-8.602,0.183-12.896l0.017-0.598
		C671.579,714.747,671.84,705.475,667.543,703.733z"/>
	<path fill="#E53722" d="M757.461,654.877c7.45,1.855,14.671,1.89,20.866,0.105c13.022-3.755,22.809-16.807,22.77-30.359
		c-0.031-11.723-7.808-23.533-18.912-28.722c-9.877-4.62-19.972-0.752-25.107,1.964c-12.111,6.41-20.746,18.793-20.995,30.115
		C735.789,641.212,743.98,651.52,757.461,654.877z M775.212,649.726c-0.596,1.734-3.648,2.956-5.307,2.903
		c-1.174-0.038-2.365-0.606-2.968-1.615c-0.602-1.008-0.48-2.452,0.412-3.216c0.923-0.791,2.287-0.691,3.494-0.546
		C772.264,647.422,775.991,647.458,775.212,649.726z M765.856,608.157c0.582-0.986,2.903-3.194,4.253-2.429
		c1.513,0.857-0.549,3.846-1.322,4.699c-0.624,0.689-1.571,1.295-2.435,0.953c-0.576-0.228-0.936-0.844-0.984-1.461
		C765.32,609.302,765.541,608.691,765.856,608.157z"/>
	<path fill="#F5CD00" d="M762.055,727.732c0.015,0.028,0.027,0.07,0.044,0.093c0.106,0.175,0.183,0.097,0.039-0.041
		C762.115,727.759,762.083,727.752,762.055,727.732z"/>
	<path fill="#F49600" d="M689.493,850.283c-11.586,6.086-19.328,21.264-24.536,41.685c20.038-10.882,41.125-22.342,62.705-34.078
		l0.063-2.353c0,0,0.194-7.259,3.639-11.182c2.333,2.961,2.879,7.556,3.003,9.888c9.135-4.969,18.342-9.979,27.587-15.01
		c0.036-0.634,0.102-1.344,0.223-2.114c0.385-2.588,1.459-5.679,3.397-7.567c1.178,1.997,1.796,4.382,2.232,6.495
		c45.88-24.975,92.364-50.318,134.291-73.236c0.003-0.066,0.003-0.132,0.007-0.198c0,0,0.119-2.715,0.885-6.103
		c0.745-3.388,2.208-7.414,4.395-9.96c1.094,3.174,1.319,7.242,1.42,10.551c0.018,0.721,0.025,1.397,0.028,2.028
		c25.659-14.03,49.457-27.068,70.17-38.452l0.233-1.354c0,0,2.904-16.889,7.8-25.656c1.188,6.97,0.101,17.384-0.647,22.949
		c3.008-1.655,5.948-3.273,8.805-4.846l0.287-2.33c0,0,1.443-11.691,5.554-17.743c1.81,4.94,1.573,12.353,1.297,16.139
		c16.443-9.069,29.893-16.53,39.459-21.9c-8.903-7.094-17.942-13.954-27.09-20.59C946.773,704.663,746.289,820.441,689.493,850.283z
		"/>
	<path fill="#F49600" d="M435.649,973.328c-21.898,13.051-42.077,24.888-60.354,34.825c-0.185,1.549-0.845,4.595-3.261,6.53
		c-1.216-0.974-1.981-2.234-2.472-3.443c-24.829,13.233-45.91,22.614-62.676,26.238c11.557,8.038,29.063,15.468,49.387,8.236
		c36.492-12.989,131.043-66.419,152.256-78.508c0.088-11.322-0.016-26.704-2.525-31.454
		C495.94,937.391,462.656,957.231,435.649,973.328z"/>
	<path fill="#F2C673" d="M1105.777,630.946c-192.7-159.82-447.373-215.23-520.837-228.405c-1.954-0.349-3.901-0.519-5.822-0.519
		c-13.168,0-25.086,7.967-30.229,19.986c16.905,1.021,33.766,2.792,50.468,5.597c0,0,4.379,0.659,11.489,2.092
		c7.119,1.371,16.96,3.568,27.859,6.524c21.857,5.726,47.627,15.478,64.934,24.475c-18.588-5.91-44.567-13.954-66.362-18.807
		c-10.868-2.518-20.615-4.482-27.658-5.732c-7.032-1.312-11.35-1.961-11.35-1.961c-17.014-2.857-34.195-4.634-51.416-5.62
		c-0.037,0.189-0.093,0.37-0.127,0.561c-1.553,8.655,0.358,17.397,5.382,24.615c5.022,7.218,12.555,12.048,21.212,13.601
		c69.459,12.457,310.105,64.724,490.426,214.276c5.896,4.89,13.349,7.582,20.992,7.582c9.843,0,19.088-4.34,25.362-11.906
		c0.38-0.458,0.711-0.943,1.063-1.416c-14.322-13.489-29.117-26.481-44.502-38.747c0,0-3.746-2.983-9.884-7.87
		c-6.146-4.878-14.787-11.529-24.603-18.838c-19.549-14.749-44.245-31.449-61.662-43.992c19.851,8.161,46.2,22.926,66.715,36.827
		c10.299,6.884,19.25,13.376,25.577,18.196c6.358,4.78,10.118,7.855,10.118,7.855c14.866,11.852,29.18,24.382,43.064,37.37
		c1.426-4.277,1.984-8.834,1.553-13.458C1116.722,644.473,1112.545,636.559,1105.777,630.946z M909.57,544.797
		c-16.952-7.209-40.483-17.216-66.844-28.426c-26.337-11.24-50.518-21.56-68.125-29.075c-17.658-7.433-28.719-12.089-28.719-12.089
		s11.532,2.787,29.729,8.39c18.196,5.586,43.02,14.146,69.448,25.467c26.434,11.306,49.43,23.158,65.797,32.122
		C927.221,550.164,937,556.221,937,556.221S926.59,551.886,909.57,544.797z"/>
	<path fill="#E53722" d="M399.262,970.401l1.202-0.061c1.621-0.085,4.512-0.238,7.407-0.494c6.613-3.899,12.992-7.701,18.985-11.273
		c4.633-2.761,9-5.358,13.165-7.824c0.36-0.624,0.706-1.262,0.979-1.96c1.36-3.469,1.435-7.28,0.208-10.453
		c-2.569-6.645-10.225-11.442-18.231-11.442c-0.035,0-0.071,0-0.106,0c-7.663,0.042-15.797,4.107-21.76,10.878
		c-5.618,6.38-9.073,14.562-9.727,23.038c-0.26,3.358,0.126,5.77,1.143,7.173C393.71,969.61,396.36,970.547,399.262,970.401z
		 M413.523,937.764c0.817-1.585,1.783-3.133,3.147-4.282c0.988-0.84,4.407-2.77,4.568-0.22c0.098,1.561-3.448,4.991-4.382,6.262
		c-0.399,0.543-0.813,1.101-1.389,1.452c-0.575,0.352-1.358,0.452-1.909,0.062c-0.488-0.346-0.683-0.998-0.628-1.594
		C412.985,938.85,413.25,938.296,413.523,937.764z M411.102,945.388c1.509,1.385-0.045,3.467-1.57,3.999
		c-0.374,0.13-0.812,0.133-1.142-0.085c-0.482-0.318-0.589-0.974-0.598-1.551C407.767,946.059,409.305,943.738,411.102,945.388z"/>
	<path fill="#E53722" d="M511.868,727.962c-2.171-0.735-4.613-1.09-7.196-1.09c-7.248,0-15.622,2.787-22.358,7.747h-0.001
		c-9.221,6.785-15.741,16.354-18.354,26.949c-1.113,4.506-1.881,11.054,0.769,16.653c3.503,7.397,13.181,12.482,23.051,11.959
		c9.323-0.444,18.867-5.415,25.529-13.299c8.304-9.829,11.999-26.122,8.591-37.891C520.275,733.38,516.9,729.67,511.868,727.962z
		 M507.836,768.093c-1.121-0.096-2.028-1.071-2.322-2.157c-0.294-1.086-0.077-2.25,0.3-3.311c0.877-2.465,4.555-6.413,5.861-2.254
		C512.413,762.724,510.99,768.363,507.836,768.093z M508.435,746.816c-0.951-1.33-1.838-2.707-2.654-4.124
		c-2.594-4.502,5.818-1.141,7.18,1.064C515.038,747.121,510.96,750.345,508.435,746.816z"/>
	<path fill="#F5CD00" d="M986.49,645.78l-4.25,2.27c0,0-10.55,5.63-18.55,6.7c-0.47,0.07-0.93,0.12-1.38,0.15
		c0.24-0.31,0.5-0.62,0.77-0.93c5.31-6.1,16.01-11.81,16.01-11.81l1.03-0.55c-138.93-90.23-293.94-132.86-374.2-150.26l-8.41,11.79
		c0,0-11.4,15.99-21.8,26.96c-1.76,1.87-3.5,3.59-5.14,5.06c0.64-1.52,1.39-3.14,2.24-4.81c6.86-13.71,19.26-31.09,19.26-31.09
		l6.73-9.43c-5.56-1.17-10.69-2.2-15.38-3.11c-10.56,16.15-20.9,32.07-31.03,47.73c-68.04,105.27-126.05,199.04-170.65,275.4
		c3.2,1.16,5.8,4.37,6.77,7.75c1.07,3.43,1.08,7.21,0.21,10.81c-0.4,1.67-0.8,3.11-0.92,4.27c-0.14,1.1,0.06,2.02,0.34,2.54
		c0.31,0.43,0.27,0.47,0.96,0.61c0.67,0.11,1.89-0.11,3.1-0.53c1.2-0.41,2.8-1.15,4.56-1.65s3.99-0.82,6.17-0.19
		c2.17,0.65,3.7,1.97,4.75,3.1c1.08,1.16,1.85,2.24,2.6,3.11c1.49,1.8,2.77,2.62,4.63,2.56c1.79-0.08,3.54-0.95,4.8-2.02
		c1.29-1.08,2.23-2.3,2.96-3.31c1.42-2.07,2.14-3.25,2.14-3.25s-0.25,1.29-1.04,3.7c-0.42,1.2-1,2.71-2.15,4.34
		c-1.17,1.63-2.95,3.36-5.71,4.23c-1.37,0.41-3.06,0.56-4.73,0.08c-1.65-0.45-3.1-1.38-4.24-2.31c-2.23-1.87-4.11-3.83-5.35-3.91
		c-1.1-0.31-3.17,0.61-6.32,2.16c-1.71,0.74-3.65,1.44-6.19,1.45c-1.25-0.01-2.71-0.28-4.06-0.98c-1.34-0.67-2.55-1.82-3.29-3.04
		c-1.51-2.48-1.71-5.03-1.46-7.26c0.26-2.17,0.88-3.89,1.32-5.34c0.86-2.61,1.07-5.12,0.71-7.39c-0.37-2.25-1.31-3.9-2.74-4.77
		c-0.11-0.08-0.28-0.17-0.44-0.25c-64.61,110.93-100.3,184.24-96.44,201.28c0.8,3.54,2.35,4.65,3.9,5.31
		c15.84,6.79,61.63-16.68,103.6-40.8c-2.8-1.22-5.19-3.06-6.92-5.44c-2.7-3.72-3.77-8.55-3.29-14.78
		c0.84-10.94,5.3-21.49,12.55-29.73c8.21-9.32,19.25-14.7,30.29-14.76h0.17c12.76,0,24.63,7.7,28.91,18.76
		c1.05,2.72,1.57,5.65,1.6,8.63c20.6-11.98,34.56-19.39,44.45-22.55c-2.73-3.94-6.1-7.75-10.03-10.21
		c-0.91-0.56-0.44-1.96,0.62-1.83c8.35,0.97,23.91,4.48,31.13,17.06c6.37,9.32,6.21,25.75,6.01,45.73
		c-0.08,8.26-0.16,17.36,0.36,25.69c0.57-1.36,1-2.91,1.3-4.69c0.56-2.93,0.65-6.67,2.24-10.95c0.81-2.11,2.04-4.26,3.8-5.92
		c1.78-1.7,3.67-2.59,5.23-3.29c3.16-1.32,5.42-2.16,6.89-3.74c1.48-1.45,1.68-3.7,1.19-5.13c-0.47-1.37-1.38-1.99-1.49-2.1
		c0.13,0.05,1.19,0.14,2.44,1.38c1.25,1.27,2.55,4.06,1.33,7.45c-1.11,3.24-4.23,5.73-6.89,7.57c-2.83,1.96-4.13,3.3-5.31,6.35
		c-1.19,2.98-1.81,6.66-3.26,10.23c-1.37,3.49-3.68,6.77-6.6,8.38c-0.13,0.07-0.26,0.13-0.39,0.2c0.97,9.09,2.95,16.63,6.91,20.07
		c1.33,1.16,3.72,2.6,9.11,1.8c15.23-2.27,13.24-37.85,11.64-66.44c-1.66-29.65-3.1-55.25,8.58-67.61c1.94-2.05,4.2-3.63,6.69-4.77
		c-4.64-4.67-11.31-9.41-20.79-12.54c-0.26-0.09-0.25-0.44,0.02-0.46c9.35-0.6,41.8-0.55,50.15,28.14c6.86,18.19,8,50.57,8,96.22
		c0,7.03-0.02,14.37-0.06,22.02c-0.17,34.89-0.35,70.96,2.6,98.34c4.01,37.25,12.05,41.29,14.42,41.64c0.66,0.11,0.91,0.03,1.41-0.4
		c10.71-9.16,11.15-65.42,11.53-115.06c0.09-11.23,0.18-22.65,0.36-34.07c-0.02,0.03-0.02,0.05-0.04,0.09
		c-0.7,1.12-2.13,2.31-3.83,2.71c-1.68,0.41-3.41,0.19-4.93-0.45c-1.52-0.64-2.96-1.75-3.96-3.33c-0.94-1.45-1.46-3.14-1.63-4.75
		c-0.37-3.23,0.58-6.34,1.59-8.78c1.04-2.49,2.02-4.4,2.48-6.12c0.47-1.78,0.56-3.03,0.06-4.35c-0.53-1.45-1.9-3.2-2.83-5.29
		c-0.92-2.04-1.26-4.07-1.32-5.86c-0.09-3.61,1.03-6.25,1.97-7.81c0.96-1.57,1.7-2.21,1.7-2.21s-0.32,0.89-0.55,2.52
		c-0.23,1.61-0.25,4.03,0.6,6.66c0.44,1.31,1.08,2.66,1.99,3.88c0.84,1.19,2.34,2.4,3.92,4.72c0.78,1.15,1.46,2.76,1.7,4.32
		c0.27,1.57,0.21,3.13-0.02,4.58c-0.46,2.94-1.66,5.48-2.54,7.63c-0.93,2.19-1.46,3.92-1.47,5.46c0,0.75,0.11,1.37,0.31,1.87
		c0.16,0.43,0.4,0.74,0.81,1.06c0.38,0.29,0.81,0.44,1.07,0.47c0.27,0.04,0.4,0.09,0.82-0.22c0.77-0.57,1.74-2.46,2.55-3.81
		c0.65-1.14,1.22-2.18,1.74-3.16c1.09-50.45,4.51-99.92,18.18-132.15v-0.01c1.08-2.54,2.22-4.97,3.43-7.29
		c5.57-11.28,17.14-32.4,28.71-39.32c0,0-2.07,6.17-4.15,13.66c30.1-15.94,96.06-53.32,162.37-91.27l16.64-38.83
		c2.25-5.26,4.81-11.23,9.14-16.2c5.32-6.11,12.62-9.41,19.51-8.87c6.61,0.54,11.91,4.88,12.89,10.54c0.68,3.9-0.8,7.28-1.78,9.52
		l-6.7,15.32c30.97-17.8,59.92-34.5,82.88-47.76c7.68-4.44,14.7-8.5,20.89-12.08C995.03,651.5,990.77,648.62,986.49,645.78z
		 M328.02,946.13c-1.58,4.45-3.84,10.51-6.72,17.12c-2.87,6.6-5.84,12.56-8.07,16.93c-2.23,4.36-3.77,7.09-3.77,7.09
		s-0.3-3.21,0.13-8.23c0.42-5,1.66-11.81,4.63-18.67c2.98-6.85,7.07-12.32,10.39-15.97c3.32-3.65,5.83-5.55,5.83-5.55
		S329.59,941.68,328.02,946.13z M496.58,662.95c1.34-5.15,3.74-12.22,7.74-19.48c4-7.28,8.78-13.27,12.56-17.31
		c3.77-4.06,6.47-6.27,6.47-6.27s-1.18,3.37-3.3,8.4c-2.14,5.03-5.11,11.73-8.94,18.68c-3.84,6.95-7.87,12.94-10.96,17.34
		c-3.08,4.38-5.28,7.06-5.28,7.06S495.24,668.11,496.58,662.95z M472.85,699.79c3.03-5,8.01-7.71,8.01-7.71s1.59,6.6-1.44,11.6
		c-3.03,5.01-9.53,6.53-9.53,6.53S469.82,704.8,472.85,699.79z M488.69,859.14c-7.38,0-7.37-11.45,0-11.45
		C496.07,847.69,496.06,859.14,488.69,859.14z M502.29,878.47c-7.38,0-7.37-11.45,0-11.45
		C509.67,867.02,509.65,878.47,502.29,878.47z M515.17,854.85c-7.38,0-7.37-11.45,0-11.45C522.55,843.4,522.54,854.85,515.17,854.85
		z M522.05,784.27c-8.67,10.27-21.28,16.75-33.73,17.35c-0.61,0.03-1.22,0.04-1.82,0.04c-13.84,0-26.87-7.45-32.12-18.54
		c-3.24-6.84-3.77-15.25-1.54-24.3c3.26-13.18,11.31-25.06,22.69-33.43c8.73-6.42,19.48-9.94,29.21-9.94
		c3.82,0,7.49,0.54,10.81,1.67c8.66,2.94,14.66,9.4,17.35,18.68C537.35,751.18,532.79,771.57,522.05,784.27z M907.83,639.52
		c1.22-5.92,5.04-10.3,5.04-10.3s3.67,5.84,2.46,11.76c-1.22,5.92-6.87,9.69-6.87,9.69S906.62,645.44,907.83,639.52z M678.96,590.55
		c-0.34-0.09-0.36-0.03-0.28-0.03c0.08,0.01,0.07,0-0.05,0.09c-0.28,0.22-0.66,0.61-1.13,1.52c-0.48,0.9-1.01,2.21-1.98,3.68
		c-1.01,1.51-2.38,2.79-4.03,3.68c-1.68,0.88-3.64,1.37-5.74,1.04c-1.99-0.33-3.73-1.28-5.04-2.79c-1.35-1.48-1.95-3.79-1.72-5.47
		c0.18-1.73,0.78-2.94,1.26-3.94c0.51-1.01,0.92-1.72,1.26-2.46c0.33-0.73,0.6-1.44,0.79-2.11c0.81-2.69,0.03-4.78-1.03-5.92
		c-0.5-0.57-1.02-0.86-1.38-1.03c-0.3-0.13-0.5-0.19-0.57-0.2c0.12-0.02,1.01-0.41,2.65,0.26c0.86,0.38,1.89,1.12,2.73,2.36
		c0.85,1.24,1.36,2.99,1.4,4.93c0.08,1.89-0.43,4.11-0.96,5.99c-0.23,0.91-0.37,1.77-0.29,2.33c0.1,0.59,0.3,0.69,0.57,0.86
		c0.28,0.18,0.76,0.34,1.16,0.31c0.33-0.03,0.76-0.16,1.23-0.48c1.07-0.71,1.48-1.52,2.8-4.33c0.66-1.32,1.76-3.06,3.48-4.27
		c0.87-0.62,1.97-1.16,3.23-1.37c1.29-0.23,2.59-0.02,3.46,0.27c1.77,0.61,2.66,1.18,2.91,1.26c0.04,0.12,0.04,0.17,0.04,0.22
		c0.03-0.04,0.08-0.08,0.21-0.09c0.74-0.32,1.23-2.03,1.67-4.17c0.53-2.15,1.34-4.03,2.28-5.58c1.87-3.11,4.09-4.95,5.66-6
		c1.49-0.97,2.43-1.32,2.54-1.36c-0.1,0.11-0.74,0.84-1.64,2.15c-0.97,1.43-2.21,3.63-2.97,6.5c-0.39,1.43-0.62,3.02-0.66,4.7
		c-0.03,0.84,0.02,1.89-0.12,3.21c-0.13,1.26-0.55,3.01-1.69,4.52c-0.56,0.75-1.31,1.5-2.35,2.06c-1.02,0.57-2.4,0.84-3.52,0.75
		C680.87,591.42,679.63,590.65,678.96,590.55z M676.91,663.05c-7.38,0-7.37-11.45,0-11.45C684.29,651.6,684.28,663.05,676.91,663.05
		z M629.68,505.13c7.38,0,7.36,11.45,0,11.45C622.3,516.58,622.31,505.13,629.68,505.13z M574.58,691.1
		c-1.44,0.65-3.05,0.92-4.57,0.84c-3.05-0.19-5.56-1.52-7.48-3.3c-1.98-1.88-3.02-4.08-3.63-6.13c-1.16-4.14-0.71-7.65-0.33-10.33
		c0.43-2.6,0.79-4.71,1.04-6.19c0.21-1.43,0.26-2.24,0.26-2.24s0.42,0.72,0.93,2.16c0.52,1.43,1.05,3.63,1.58,6.24
		c0.54,2.58,1.19,5.57,2.52,8.04c0.65,1.2,1.52,2.3,2.39,2.91c0.92,0.68,2.09,1.13,3.03,1.2c0.93,0.07,1.5-0.11,2.29-0.67
		c0.74-0.57,1.5-1.76,2.14-3.1c0.63-1.36,1.19-2.85,1.76-4.29c0.62-1.59,1.36-2.98,2.21-4.14c1.67-2.36,3.83-3.61,5.26-3.77
		c1.37-0.14,2.01,0.23,2.07,0.23c-0.1,0.03-0.75,0.21-1.53,0.83c-0.83,0.69-1.72,2.06-2.28,4.19c-0.28,1.05-0.48,2.27-0.59,3.57
		c-0.13,1.45-0.27,3.15-0.68,5.04c-0.43,1.88-1.07,4.1-2.88,6.26C577.18,689.52,575.99,690.46,574.58,691.1z M604.62,822.51
		c-0.29,1.52-0.74,3.75-2.18,6.33c-1.42,2.52-4.09,5.58-8.68,6.64c-4.52,1.18-11.35-1.43-12.72-8.19c-0.58-3.51,0.9-6.29,1.96-7.98
		c1.13-1.77,2.09-2.99,2.59-4c1.13-1.6,0.2-4.77-0.15-7.63c-0.38-3.03,0.7-5.41,1.82-6.34c1.15-0.95,1.89-0.66,1.86-0.72
		c0,0.03-0.56,0.37-0.83,1.31c-0.28,0.91-0.21,2.71,0.75,4.49c0.5,1.02,1.24,2.19,1.96,3.81c0.71,1.52,1.41,4.01,0.86,6.54
		c-0.49,2.43-1.6,4.32-2.35,5.87c-0.81,1.56-1.09,2.69-0.96,3.26c0.05,0.65,0.6,1.57,1.45,2.21c0.85,0.66,1.72,0.95,2.91,0.98
		c2.35,0.05,4.85-1.19,6.6-2.69c1.82-1.53,3.13-3.23,4.04-4.41c0.89-1.21,1.4-1.89,1.4-1.89S604.89,820.97,604.62,822.51z
		 M632.11,570.32c-2.44,3.42-6.15,4.92-8.6,5.92c-4.82,1.96-9.6,4.02-14.38,6.08c-8.12,3.5-16.52,7.13-25.07,10.2
		c-0.75,0.27-1.62,0.64-2.56,1.04c-3.18,1.36-7.65,3.26-12,3.26c-2.89,0-5.73-0.83-8.1-3.23c-5.73-5.79-3.66-16.5,0.35-21.62
		c5.79-7.41,17.88-12.54,28.95-16.58c5.35-1.96,13.29-4.48,20.72-5.39h0.01c14.48-1.79,19.96,3.62,22,8.47
		C635.06,562.35,634.56,566.89,632.11,570.32z M665.56,781.63c-0.91,0.18-1.76,0.25-2.56,0.25c-3.46,0-5.88-1.42-7.39-2.75
		c-7.38-6.52-6.42-22.21-4.97-45.97c0.24-3.88,0.48-7.89,0.69-11.99c0.53-10.34,2.07-22.68,9.37-27.33
		c2.29-1.46,6.08-2.77,11.14-0.72c11.67,4.73,11.25,19.54,11.03,27.49l-0.02,0.59c-0.11,4.22-0.15,8.44-0.18,12.67
		c-0.05,6.96-0.1,14.17-0.54,21.31c-0.07,1.08-0.14,2.15-0.23,3.23C680.87,771.41,674.92,779.88,665.56,781.63z M698,801.18
		c-10.31,7.47-20.61,11.4-20.61,11.4s5.69-10.02,16-17.48c10.31-7.47,21.33-9.56,21.33-9.56S708.31,793.72,698,801.18z
		 M739.84,775.47c-2.96,2.37-7.23,2.12-7.23,2.12s-0.54-5.68,2.43-8.05c2.96-2.38,8.31-0.54,8.31-0.54S742.81,773.1,739.84,775.47z
		 M793.62,720.57c-1.18,2.09-2.55,5.31-2.87,9.25c-0.18,1.94,0.05,4.08,0.06,6.7c0,2.63-0.38,5.79-2.19,8.85
		c-0.9,1.51-2.21,3.01-4.04,4.07c-1.77,1.03-3.87,1.63-6.19,1.48c-2.3-0.1-4.91-1.38-6.45-3.27c-1.6-1.9-2.27-3.99-2.7-5.75
		c-0.42-1.74-0.64-3.46-0.87-4.58c-0.23-1.06-0.64-2.13-1.11-2.86c-0.49-0.77-0.87-1.02-1.02-1.1c-0.12-0.05-0.19-0.14-0.74-0.02
		c-0.51,0.1-1.27,0.38-2.37,0.55c-1.08,0.19-2.65,0.06-3.87-0.66c-1.28-0.7-2.03-1.85-2.42-2.82c-0.76-2.01-0.6-3.7-0.19-5.28
		c0.5-1.61,1.13-2.53,1.63-3.52c0.5-0.93,0.89-1.75,1.06-2.51c0.4-1.47-0.36-3.06-1.44-4.16c-1.07-1.11-2.39-1.75-3.47-2.2
		c-1.1-0.45-1.98-0.71-2.57-0.91c-0.59-0.19-0.91-0.29-0.91-0.29s0.32-0.01,0.92-0.04c0.61-0.01,1.51-0.04,2.74,0.06
		c1.21,0.12,2.82,0.34,4.59,1.34c0.86,0.51,1.76,1.19,2.52,2.19c0.76,0.98,1.36,2.41,1.44,3.89c0.15,2.93-1.19,5.43-1.36,7.02
		c-0.06,0.5,0.01,1.12,0.16,1.53c0.39-0.15,0.78-0.3,1.18-0.46c0.7-0.28,1.94-0.67,3.3-0.65c2.8,0.03,5.12,1.72,6.42,3.34
		c1.35,1.67,2.18,3.45,2.73,5.35c0.52,1.98,0.67,3.35,1,4.73c0.3,1.32,0.69,2.34,1.07,2.88c0.42,0.55,0.71,0.76,1.33,0.91
		c0.62,0.14,1.48,0.06,2.22-0.25c0.71-0.28,1.37-0.78,2-1.52c1.23-1.46,1.99-3.54,2.39-5.71c0.43-2.22,0.66-4.74,1.39-7.03
		c1.43-4.54,3.87-7.52,5.68-9.28c1.74-1.64,2.93-2.35,3.08-2.43C795.64,717.54,794.75,718.61,793.62,720.57z M781.5,665.99
		c-4.06,1.17-8.42,1.76-12.93,1.76s-9.17-0.59-13.88-1.76c-18.67-4.65-30.47-19.67-30.06-38.26c0.35-15.53,11.23-31.59,27.09-39.98
		c11.94-6.33,24.82-7.13,35.31-2.22c15.22,7.11,25.47,22.81,25.52,39.06C812.6,643.07,799.25,660.86,781.5,665.99z M862.83,637.98
		c-0.4,3.64-1.39,8.65-3.63,13.84c-0.67,1.37-1.33,3.31-3.96,4.91c-1.36,0.75-3.17,0.97-4.69,0.44c-1.53-0.51-2.49-1.49-3.11-2.36
		c-1.23-1.69-1.48-3.79-1.4-5c0.06-1.28,0.23-2.16,0.28-2.83c0.04-0.72,0.1-0.98-0.06-1.44c-0.13-0.42-0.36-0.74-0.54-0.93
		c-0.31-0.37-0.65-0.37-0.71-0.39c0.04-0.06,0.12-0.56,1.05-0.76c0.97-0.22,3.03,0.54,4,2.75c0.5,1,0.81,2.12,1.17,3.01
		c0.13,0.34,0.26,0.59,0.4,0.8c0.14-0.27,0.3-0.62,0.51-1.1c2.08-4.82,4.75-8.88,6.92-11.88c0.03-0.05,0.07-0.09,0.1-0.14
		c2.2-3,3.91-4.84,3.91-4.84s0.04,0.61,0.02,1.71C863.08,634.79,863.02,636.22,862.83,637.98z"/>
	<polygon fill="#E53722" points="995.04,327.09 970.68,332.34 952.94,336.16 914.51,344.44 896.76,348.26 858.34,356.54 
		840.59,360.36 802.17,368.64 802.16,368.64 792.32,370.76 793.63,358.98 793.63,358.97 799.99,301.66 802.93,275.18 805.49,252.14 
		815.86,256.24 827.78,260.95 853.58,271.16 865.51,275.87 891.31,286.07 903.23,290.79 929.04,300.99 940.96,305.7 967.19,316.08 
		978.68,320.62 	"/>
	<path fill="#48A146" d="M880.218,695.285c-3.142,3.609-5.228,8.476-7.243,13.184l-10.655,24.861
		c5.528-3.169,11.034-6.328,16.505-9.469l12.898-29.491c0.319-0.731,1.071-2.454,0.99-2.981c-0.143-0.278-1.185-0.971-2.541-1.081
		C886.93,690.047,883.123,691.952,880.218,695.285z"/>
	<path fill="#D59750" d="M542,425.667c0,0,345.766,41.524,569.162,250.219s0,0,0,0l9.088-3.886l2.5-17.5
		c0,0,0.25-24.451-27.75-45.975S924.333,496.747,858.333,475.207S625.667,386.333,573,392.333
		C573,392.333,549.667,404.333,542,425.667z"/>
	<path fill="#F49600" d="M592.07,499.26c0,0-12.4,17.38-19.26,31.09c-6.84,0.68-13.7,2.13-20.42,4.1
		c10.13-15.66,20.47-31.58,31.03-47.73c4.69,0.91,9.82,1.94,15.38,3.11L592.07,499.26z"/>
	<path fill="#F49600" d="M963.08,653.97c-2.11-2.65-4.35-5.11-7.32-6.66c-7.22-3.77-16-0.87-23.46,2.38
		c-7.46,3.26-15.68,6.92-23.44,4.46c-7.23-2.29-11.79-9.19-16.48-15.15c-4.69-5.97-11.31-11.87-18.82-10.79
		c-3.95,0.57-7.26,2.97-10.47,5.56c-1.35,1.1-2.68,2.23-4.03,3.27c-3.13,2.43-6.38,4.41-10.26,4.47
		c-9.15,0.15-14.46-10.3-16.27-19.27c-1.81-8.97-0.83-20.54-8.71-25.19c-5.1-9.59-10.3-19.33-17.88-27.1
		c-7.58-7.78-18-13.48-28.85-12.91c-7.57,0.4-14.61,3.74-21.78,6.18c-7.17,2.43-15.27,3.94-22.15,0.76
		c-8.37-3.86-14.06-14.19-23.28-13.89c-6.37,0.21-11.15,5.56-16.15,9.53c-4.99,3.97-12.99,6.49-17.2,1.7
		c-2.09-2.37-2.43-5.74-3.24-8.79c-3.48-13.03-18.47-21.74-31.51-18.31c-6.13,1.61-11.72,5.47-18.05,5.66
		c-6.07,0.19-11.63-3.02-17.25-5.3c-9.83-3.99-20.26-5.18-30.77-4.48c10.4-10.97,21.8-26.96,21.8-26.96l8.41-11.79
		c80.26,17.4,235.27,60.03,374.2,150.26l-1.03,0.55C979.09,642.16,968.39,647.87,963.08,653.97z"/>
	<path fill="#F49600" d="M999.28,654.43c-6.19,3.58-13.21,7.64-20.89,12.08c-2.47-0.55-4.81-1.56-6.88-3.1
		c-3.12-2.3-5.42-5.56-7.82-8.66c8-1.07,18.55-6.7,18.55-6.7l4.25-2.27C990.77,648.62,995.03,651.5,999.28,654.43z"/>
	<path fill="#F49600" d="M656.952,611.585c-4.372,1.15-6.883,6.122-6.586,10.633c0.297,4.511,2.754,8.581,5.449,12.211
		c0.478,0.644,0.988,1.3,1.692,1.685c1.787,0.975,3.996-0.152,5.52-1.502c1.524-1.35,2.979-3.033,4.988-3.358
		c3.694-0.598,6.245,3.567,7.353,7.141c1.108,3.574,2.548,7.907,6.214,8.653c2.803,0.57,5.616-1.525,6.767-4.144
		c1.151-2.619,1.011-5.608,0.695-8.452c-0.781-7.011,1.864-10.23,3.109-16.579c0.829-4.227-0.207-5.532-4.747-5.913
		c-4.983-0.418-9.101,3.157-13.963,3.13C667.773,615.059,662.732,610.066,656.952,611.585z"/>
	<path fill="#F49600" d="M899.783,696.351c3.333,2.132,5.504,5.976,5.609,9.932c0.105,3.956-1.859,7.909-5.074,10.215
		c-1.373,0.985-3.029,1.692-4.713,1.557s-3.351-1.28-3.716-2.93c-0.393-1.778,0.734-3.518,1.928-4.893
		c1.194-1.375,2.579-2.764,2.855-4.564"/>
	<path fill="#F49600" d="M764.425,748.082c-1.119,1.784-0.226,4.296,1.454,5.565c1.681,1.269,3.897,1.562,6.003,1.594
		c1.597,0.024,3.606,0.183,4.158,1.682c0.366,0.993-0.154,2.079-0.724,2.971c-1.742,2.725-4.105,5.051-6.858,6.749
		c-2.548,1.572-6.084,2.512-8.366,0.574c-2.148-1.824-1.99-5.182-1.217-7.893c0.303-1.065,0.676-2.131,0.68-3.238
		s-0.446-2.294-1.416-2.829c-2.641-1.458-4.557-0.416-5.407-4.023c-0.485-2.057-0.185-4.517,1.83-5.604
		c2.227-1.201,4.567,0.389,6.732,0.878C764.016,745.12,766.529,744.728,764.425,748.082z"/>
	<path fill="#F49600" d="M559.093,681.261c0.645,2.26,0.749,4.637,1.204,6.943c0.455,2.306,1.343,4.657,3.166,6.14
		c1.161,0.945,2.609,1.461,4.054,1.853c1.404,0.382,2.916,0.659,4.293,0.191c1.974-0.671,3.155-2.69,3.832-4.662
		c0.677-1.972,1.048-4.094,2.202-5.83c-4.098,3.174-10.426,3.019-14.364-0.352"/>
	<path fill="#F49600" d="M625.191,571.58c1.036,4.157-0.447,8.839-3.687,11.642c-2.073,1.793-4.696,2.795-7.26,3.762
		c-3.847,1.451-7.695,2.903-11.542,4.354c-3.135,1.183-6.271,2.366-9.345,3.699c-5.768,2.502-11.317,5.536-16.419,9.21
		c-3.452,2.486-7.111,5.404-11.362,5.222c-3.542-0.151-6.803-2.691-8.032-6.017c-1.229-3.326-0.477-7.248,1.713-10.036
		c2.191-2.788,5.698-4.427,9.241-4.565"/>
	<path fill="#F49600" d="M772.001,661.549c-0.16,4.868,3.725,9.291,8.396,10.667s9.825,0.111,13.973-2.442
		c4.148-2.553,7.432-6.281,10.418-10.129c3.26-4.202,6.325-8.807,7.187-14.055c0.862-5.248-1.023-11.276-5.68-13.844
		c0.251,3.979-1.14,7.274-3.338,10.6c-2.198,3.326-5.502,5.909-9.261,7.238"/>
	<path fill="#F49600" d="M676.521,783.424c-0.555,0.737-1.129,1.521-1.236,2.436c-0.102,0.866,0.239,1.738,0.762,2.435
		c1.886,2.516,5.854,2.66,8.535,1.017c2.681-1.643,4.285-4.585,5.382-7.532c1.175-3.157,2.707-10.115-2.801-9.709
		C682.611,772.406,678.947,780.2,676.521,783.424z"/>
	<path fill="#F49600" d="M696.179,759.971c0.248,1.781,1.063,3.564,2.547,4.579c2.06,1.411,5.109,0.933,6.828-0.878
		s2.091-4.685,1.133-6.991c-0.887-2.133-4.587-6.08-7.181-5.948C695.788,750.923,695.816,757.361,696.179,759.971z"/>
	<path fill="#F49600" d="M666.31,845.913c0,0-26.81,19.087-34.81,67.087s-6,156-6,170.5s1.833,85.167-5.833,84.833
		c-7.667-0.333,8.333-2,15-12.667C641.333,1145,645,1095,645,1095l6.667-168.106l3.333-39.56"/>
	<path fill="#F49600" d="M569.44,885.51c0,0-24.19,2.49-25.94,30.99s13.194,112.327-3,116.5s19-0.75,21.75-23.25s-2.5-85.5-2.5-85.5
		l12.5-25"/>
	<path fill="#F49600" d="M454.441,812.36c-2.354-2.139-6.213-1.74-8.849,0.041c-2.636,1.781-4.335,4.614-5.95,7.355
		c-1.362,2.312-2.743,4.669-3.362,7.28c-0.619,2.611-0.373,5.563,1.285,7.674c1.199,1.527,3.026,2.496,4.103,4.112
		c2.701,4.053-0.532,9.287-1.182,14.114c-0.558,4.146,1.032,8.524,4.123,11.344c3.09,2.82,7.595,4.006,11.673,3.072
		c5.386-7.689-0.654-19.449,4.555-27.259c2.752-4.126,7.833-5.857,12.407-7.774c4.11-1.723,9.114-4.455,10.329-9.134
		c1.13-4.351-1.233-8.367-5.744-7.416c-4.42,0.932-7.861,4.538-12.571,4.902C458.314,821.208,458.496,816.045,454.441,812.36z"/>
	<path fill="#F49600" d="M585.63,832.211c-2.394-2.154-2.346-5.94-1.467-9.038s2.405-6.103,2.344-9.323
		c-0.086-4.519-3.23-8.319-4.935-12.505c-1.939-4.764-1.932-10.421,0.592-14.902c2.524-4.481,7.717-7.498,12.823-6.88
		c3.822,4.936,0.058,12.296,1.863,18.273c0.851,2.817,2.881,5.1,4.864,7.273c4.405,4.828,8.81,13.244,4.994,19.717
		C603.428,830.386,591.563,837.55,585.63,832.211z"/>
	<path fill="#F49600" d="M568.649,640.527c-0.66,3.933-1.322,7.944-0.733,11.888c0.588,3.944,2.645,7.882,6.183,9.722
		c1.579-4.204,3.211-8.498,6.107-11.929c2.897-3.431,7.356-5.89,11.792-5.193c2.686,0.422,5.06,1.922,7.575,2.956
		c2.515,1.034,5.546,1.559,7.843,0.105c2.251-1.424,3.104-4.376,2.872-7.03s-1.339-5.136-2.218-7.65
		c-1.764-5.046-2.643-10.456-2.066-15.771c0.245-2.25,0.715-4.677-0.372-6.662c-1.494-2.728-5.407-3.271-8.244-1.996
		c-4.073,1.83-6.013,5.938-8.852,9.096c-2.518,2.8-4.596,3.075-8.002,4.036C572.005,624.506,570.017,632.733,568.649,640.527z"/>
	<path fill="#FBEB99" d="M475.583,651.6c0,0-191.083,329.647-185.083,355.524c0,0-6.5,13.043,14.333,6.543
		c20.833-6.5,84.667-35.917,84.667-35.917l7,3c0,0-101.75,62.5-119.75,44.5S350.25,845,350.25,845l56.25-88.25L425.75,717"/>
	<path fill="#FBEB99" d="M564.74,634.602c0.144,3.744,2.416,7.335,5.738,9.067c2.858,1.49,1.072-2.941,0.814-3.878
		c-0.348-1.26-0.159-2.605-0.503-3.84C570.086,633.436,564.573,630.162,564.74,634.602z"/>
	<path fill="#FBEB99" d="M464.167,779.483c0,0,36.657,20.85,58.995-22.65c0,0-3.5,36-29.498,37.167
		c-25.998,1.167-36.164-14.517-36.164-14.517"/>
	<path fill="#FBEB99" d="M394,969.833c0,0-4.833-10.087,8-28.544s37.333-16.623,37.333-16.623s-19.667-7.833-35.167,5.667
		s-17.833,36.667-17,37.167"/>
	<path fill="#FBEB99" d="M733,629.223c0,0,7.309,22.784,36.905,23.405S803.25,615,803.25,615s1.75,52.5-42.5,44.5
		s-31.5-30.28-31.5-30.28"/>
	<g>
		<polygon fill="#F5CD00" points="799.99,301.66 827.78,260.95 815.86,256.24 802.93,275.18 		"/>
		<polygon fill="#F5CD00" points="865.51,275.87 802.17,368.64 802.16,368.64 794.17,380.35 783.85,373.3 793.63,358.98 
			793.63,358.97 853.58,271.16 		"/>
		<polygon fill="#F5CD00" points="903.23,290.79 858.34,356.54 840.59,360.36 891.31,286.07 		"/>
		<polygon fill="#F5CD00" points="940.96,305.7 914.51,344.44 896.76,348.26 929.04,300.99 		"/>
		<polygon fill="#F5CD00" points="978.68,320.62 970.68,332.34 952.94,336.16 966.53,316.25 967.19,316.08 		"/>
	</g>
</g>
<g id="Layer_2_copy">
	<g>
		<path fill="#42161A" d="M1116.742,617.725c-105.347-87.373-228.723-144.01-331.877-179.793l5.791-52.174l253.549-54.613
			l-237.082-93.747l0.614-5.535c0.436-3.929-2.393-7.467-6.324-7.903c-3.945-0.447-7.464,2.396-7.9,6.324l-22.521,202.912
			c-82.478-27.629-150.383-41.708-183.019-47.561c-27.184-4.855-53.276,13.283-58.154,40.468
			c-4.569,25.484,11.089,49.997,35.456,56.99c-34.747,53.27-108.367,167.324-173.691,276.31
			c-133.934,223.457-127.922,250.026-125.659,260.026c1.858,8.222,6.658,14.207,13.88,17.307c0.239,0.103,0.497,0.177,0.74,0.273
			c6.172,6.889,28.273,28.885,58.925,28.885c7.094,0,14.646-1.18,22.562-3.998c34.487-12.275,114.893-57.04,146.442-74.896
			c0.296,20.08,2.469,38.734,13.665,48.486c6.013,5.236,13.729,7.204,22.925,5.832c30.364-4.534,28.397-45.997,26.325-83.074
			l17.335-10.687c1.09,20.676,0.986,45.336,0.859,71.253c-0.464,94.726,1.437,152.564,31.674,157.056
			c1.001,0.148,1.989,0.221,2.962,0.221c4.465,0,8.615-1.552,12.138-4.568c15.885-13.592,16.978-55.344,17.542-127.974
			c0.333-42.894,0.724-91.524,6.67-129.65c222.986-121.053,355.568-193.627,395.549-216.517c8.367,5.829,18.38,9.005,28.619,9.005
			c14.973,0,29.035-6.602,38.585-18.117c8.54-10.299,12.561-23.308,11.319-36.632
			C1133.398,638.31,1127.041,626.267,1116.742,617.725z M805.486,252.141l189.55,74.953l-202.715,43.664L805.486,252.141z
			 M508.528,967.207c-21.213,12.089-115.764,65.518-152.256,78.508c-20.323,7.232-37.83-0.198-49.387-8.236
			c16.765-3.624,37.846-13.005,62.676-26.238c0.492,1.209,1.256,2.469,2.472,3.443c2.416-1.935,3.076-4.981,3.261-6.53
			c18.277-9.937,38.456-21.773,60.354-34.825c27.007-16.097,60.291-35.937,70.354-37.576
			C508.513,940.503,508.616,955.885,508.528,967.207z M391.384,960.81c0.654-8.476,4.11-16.659,9.727-23.038
			c5.963-6.771,14.097-10.836,21.76-10.878c0.035,0,0.071,0,0.106,0c8.007,0,15.662,4.797,18.231,11.442
			c1.227,3.173,1.152,6.983-0.208,10.453c-0.273,0.698-0.62,1.336-0.979,1.96c-4.165,2.466-8.532,5.063-13.165,7.824
			c-5.992,3.572-12.372,7.374-18.985,11.273c-2.895,0.256-5.787,0.409-7.407,0.494l-1.202,0.061
			c-2.902,0.145-5.552-0.791-6.735-2.418C391.51,966.58,391.124,964.167,391.384,960.81z M570.444,938.649
			c-0.522-16.174,0.009-31.507,4.789-36.563c0.703-0.746,1.658-1.434,3.903-1.434c0.055,0.02,5.095,2.224,8.063,27.668
			L570.444,938.649z M658.876,859.721c-1.207,2.317-2.349,4.746-3.426,7.285c0,0.001-0.004,0.01-0.004,0.01l0,0
			c-13.663,32.237-17.09,81.702-18.172,132.156c-0.525,0.977-1.096,2.019-1.748,3.157c-0.807,1.352-1.78,3.242-2.55,3.816
			c-0.414,0.301-0.546,0.254-0.813,0.219c-0.26-0.031-0.69-0.188-1.075-0.475c-0.404-0.317-0.644-0.629-0.806-1.062
			c-0.198-0.5-0.314-1.118-0.311-1.868c0.007-1.538,0.536-3.27,1.465-5.456c0.886-2.155,2.079-4.691,2.542-7.635
			c0.233-1.452,0.288-3.007,0.021-4.579c-0.238-1.559-0.925-3.172-1.7-4.32c-1.583-2.322-3.084-3.525-3.917-4.719
			c-0.912-1.221-1.556-2.571-1.993-3.877c-0.849-2.636-0.826-5.048-0.599-6.66c0.23-1.628,0.549-2.522,0.549-2.522
			s-0.738,0.64-1.701,2.211c-0.934,1.557-2.059,4.197-1.971,7.81c0.062,1.786,0.4,3.815,1.325,5.859
			c0.926,2.093,2.302,3.842,2.828,5.29c0.495,1.318,0.41,2.571-0.059,4.354c-0.463,1.715-1.444,3.63-2.48,6.115
			c-1.016,2.438-1.96,5.551-1.587,8.785c0.171,1.61,0.681,3.297,1.628,4.749c0.996,1.573,2.44,2.69,3.956,3.323
			c1.52,0.644,3.248,0.863,4.929,0.453c1.707-0.399,3.133-1.592,3.831-2.713c0.019-0.032,0.027-0.058,0.046-0.089
			c-0.182,11.426-0.272,22.847-0.36,34.074c-0.386,49.636-0.822,105.894-11.533,115.058c-0.505,0.433-0.751,0.506-1.409,0.405
			c-2.371-0.352-10.414-4.395-14.424-41.649c-2.947-27.377-2.769-63.449-2.599-98.332c0.28-57.368-0.019-97.256-7.939-118.242h0.004
			c-8.35-28.695-40.8-28.743-50.153-28.138c-0.272,0.018-0.277,0.367-0.018,0.452c9.481,3.129,16.151,7.869,20.784,12.548
			c-2.489,1.135-4.745,2.718-6.685,4.769c-11.68,12.354-10.246,37.961-8.585,67.611c1.6,28.585,3.592,64.162-11.634,66.434
			c-5.394,0.805-7.784-0.637-9.112-1.795c-3.959-3.448-5.937-10.988-6.913-20.073c0.13-0.068,0.266-0.126,0.393-0.199
			c2.916-1.613,5.224-4.89,6.599-8.38c1.444-3.575,2.072-7.255,3.256-10.227c1.183-3.052,2.483-4.393,5.31-6.355
			c2.663-1.838,5.78-4.331,6.889-7.569c1.224-3.39-0.079-6.177-1.331-7.453c-1.352-1.346-2.498-1.34-2.448-1.382
			c-0.053,0.006,0.992,0.612,1.499,2.105c0.495,1.43,0.288,3.685-1.187,5.131c-1.47,1.576-3.735,2.424-6.891,3.737
			c-1.563,0.698-3.45,1.597-5.224,3.291c-1.768,1.663-2.999,3.812-3.809,5.923c-1.582,4.275-1.68,8.02-2.236,10.945
			c-0.304,1.778-0.729,3.331-1.303,4.689c-0.521-8.324-0.438-17.422-0.355-25.686c0.2-19.981,0.362-36.409-6.014-45.729
			c-7.217-12.578-22.776-16.089-31.129-17.064c-1.062-0.124-1.525,1.27-0.618,1.837c3.932,2.457,7.3,6.266,10.028,10.205
			c-9.89,3.159-23.847,10.567-44.444,22.552c-0.037-2.979-0.558-5.915-1.607-8.627c-4.277-11.065-16.149-18.761-28.909-18.761
			c-0.056,0-0.113,0-0.169,0c-11.041,0.059-22.082,5.44-30.292,14.761c-7.249,8.233-11.706,18.786-12.551,29.723
			c-0.481,6.231,0.597,11.065,3.293,14.783c1.729,2.382,4.123,4.219,6.919,5.444c-41.967,24.114-87.761,47.59-103.599,40.801
			c-1.553-0.668-3.102-1.772-3.903-5.314c-3.856-17.041,31.831-90.347,96.44-201.284c0.158,0.085,0.335,0.175,0.447,0.252
			c1.42,0.875,2.362,2.518,2.738,4.771c0.36,2.272,0.147,4.78-0.714,7.395c-0.436,1.445-1.056,3.171-1.321,5.337
			c-0.248,2.231-0.052,4.78,1.459,7.256c0.746,1.22,1.949,2.376,3.291,3.044c1.351,0.695,2.811,0.974,4.065,0.979
			c2.534-0.008,4.476-0.714,6.182-1.449c3.158-1.553,5.224-2.473,6.32-2.164c1.244,0.084,3.129,2.046,5.359,3.919
			c1.139,0.928,2.585,1.856,4.238,2.303c1.669,0.481,3.361,0.328,4.728-0.079c2.757-0.868,4.54-2.596,5.714-4.229
			c1.141-1.631,1.721-3.141,2.145-4.338c0.794-2.411,1.044-3.703,1.044-3.703s-0.72,1.184-2.148,3.247
			c-0.728,1.01-1.662,2.237-2.958,3.317c-1.257,1.063-3.005,1.937-4.803,2.015c-1.851,0.066-3.136-0.76-4.623-2.555
			c-0.752-0.875-1.526-1.948-2.607-3.108c-1.046-1.131-2.577-2.456-4.745-3.102c-2.179-0.633-4.412-0.313-6.166,0.192
			c-1.76,0.494-3.361,1.232-4.568,1.646c-1.206,0.423-2.424,0.638-3.098,0.532c-0.688-0.141-0.647-0.18-0.955-0.613
			c-0.281-0.516-0.479-1.441-0.341-2.541c0.115-1.163,0.517-2.595,0.915-4.267c0.87-3.602,0.862-7.387-0.21-10.81
			c-0.967-3.385-3.565-6.597-6.765-7.751c51.24-87.726,120.167-198.422,201.679-323.134c4.69,0.912,9.814,1.943,15.38,3.112
			l-6.73,9.434c0,0-15.6,21.869-21.501,35.892c11.339-10.145,26.939-32.013,26.939-32.013l8.411-11.792
			c80.26,17.399,235.265,60.032,374.198,150.258l-1.028,0.548c0,0-11.819,6.308-16.778,12.74c8.104-0.539,19.923-6.847,19.923-6.847
			l4.25-2.268c4.281,2.836,8.545,5.717,12.79,8.645c-24.688,14.283-62.424,36.082-103.762,59.845l6.7-15.318
			c0.978-2.239,2.455-5.623,1.781-9.519c-0.984-5.669-6.287-10.004-12.896-10.542c-6.891-0.544-14.188,2.759-19.513,8.87
			c-4.328,4.966-6.883,10.934-9.136,16.196l-16.64,38.828c-66.31,37.957-132.267,75.336-162.372,91.27
			c2.087-7.489,4.156-13.656,4.156-13.656C676.019,827.32,664.449,848.435,658.876,859.721z M892.711,691.388
			c0.081,0.527-0.671,2.25-0.99,2.981l-12.898,29.491c-5.47,3.141-10.977,6.3-16.505,9.469l10.655-24.861
			c2.016-4.708,4.101-9.575,7.243-13.184c2.905-3.332,6.712-5.238,9.952-4.978C891.526,690.416,892.569,691.109,892.711,691.388z
			 M1002.331,707.836c0.276-3.786,0.513-11.199-1.297-16.139c-4.112,6.051-5.554,17.743-5.554,17.743l-0.287,2.33
			c-2.857,1.573-5.796,3.192-8.805,4.846c0.748-5.565,1.835-15.978,0.647-22.949c-4.896,8.767-7.8,25.656-7.8,25.656l-0.233,1.354
			c-20.714,11.384-44.511,24.422-70.17,38.452c-0.003-0.631-0.01-1.307-0.028-2.028c-0.101-3.309-0.326-7.377-1.42-10.551
			c-2.187,2.546-3.65,6.572-4.395,9.96c-0.767,3.388-0.885,6.103-0.885,6.103c-0.004,0.066-0.003,0.132-0.007,0.198
			c-41.926,22.917-88.41,48.261-134.291,73.236c-0.436-2.113-1.053-4.497-2.232-6.495c-1.938,1.888-3.012,4.978-3.397,7.567
			c-0.122,0.769-0.187,1.48-0.223,2.114c-9.245,5.032-18.452,10.041-27.587,15.01c-0.124-2.333-0.67-6.928-3.003-9.888
			c-3.446,3.922-3.639,11.182-3.639,11.182l-0.063,2.353c-21.58,11.736-42.668,23.196-62.705,34.078
			c5.208-20.421,12.95-35.599,24.536-41.685c56.796-29.842,257.28-145.621,325.208-184.938c9.147,6.637,18.186,13.497,27.09,20.59
			C1032.225,691.306,1018.775,698.767,1002.331,707.836z M1115.985,666.687c-13.884-12.988-28.198-25.518-43.064-37.37
			c0,0-3.76-3.075-10.118-7.855c-6.326-4.819-15.278-11.311-25.577-18.196c-20.515-13.901-46.864-28.666-66.715-36.827
			c17.418,12.542,42.114,29.243,61.662,43.992c9.815,7.31,18.457,13.961,24.603,18.838c6.138,4.887,9.884,7.87,9.884,7.87
			c15.385,12.266,30.181,25.258,44.502,38.747c-0.352,0.473-0.683,0.958-1.063,1.416c-6.273,7.566-15.518,11.906-25.362,11.906
			c-7.643,0-15.096-2.692-20.992-7.582C883.424,532.074,642.779,479.808,573.32,467.35c-8.657-1.553-16.189-6.382-21.212-13.601
			c-5.024-7.218-6.934-15.96-5.382-24.615c0.034-0.191,0.089-0.372,0.127-0.561c17.221,0.987,34.401,2.763,51.416,5.62
			c0,0,4.318,0.649,11.35,1.961c7.043,1.25,16.79,3.214,27.658,5.732c21.795,4.853,47.773,12.898,66.362,18.807
			c-17.306-8.997-43.076-18.748-64.934-24.475c-10.899-2.956-20.739-5.153-27.859-6.524c-7.109-1.433-11.489-2.092-11.489-2.092
			c-16.702-2.804-33.564-4.576-50.468-5.597c5.143-12.018,17.062-19.986,30.229-19.986c1.921,0,3.868,0.169,5.822,0.519
			c73.464,13.176,328.137,68.586,520.837,228.405c6.768,5.614,10.945,13.528,11.761,22.284
			C1117.969,657.853,1117.411,662.41,1115.985,666.687z"/>
		<path fill="#42161A" d="M611.426,549.995h-0.001c-7.431,0.917-15.373,3.44-20.727,5.395c-11.066,4.041-23.16,9.172-28.947,16.576
			c-4.007,5.126-6.078,15.833-0.348,21.622c2.369,2.396,5.204,3.234,8.092,3.234c4.35,0,8.823-1.905,12.006-3.261
			c0.938-0.4,1.806-0.774,2.559-1.044c8.55-3.074,16.947-6.695,25.067-10.198c4.78-2.062,9.56-4.125,14.379-6.08
			c2.455-0.997,6.166-2.502,8.602-5.917c2.45-3.43,2.956-7.974,1.322-11.857C631.391,553.615,625.913,548.21,611.426,549.995z
			 M622.789,563.67c-0.505,0.709-2.359,1.461-3.59,1.96c-4.898,1.988-9.752,4.082-14.608,6.177
			c-7.959,3.433-16.188,6.983-24.401,9.935c-0.934,0.336-2.014,0.791-3.177,1.287c-1.813,0.772-5.924,2.517-7.526,2.365
			c-0.492-1.227,0.089-4.845,1.286-6.377c4.551-5.822,18.574-10.943,23.853-12.872c4.794-1.75,11.844-4.002,18.201-4.786
			c5.435-0.668,9.371-0.063,10.049,1.547C622.962,563.115,622.922,563.485,622.789,563.67z"/>
		<path fill="#42161A" d="M515.55,717.121c-11.775-3.998-27.861-0.674-40.023,8.272h0.001c-11.375,8.37-19.432,20.243-22.688,33.43
			c-2.232,9.052-1.701,17.453,1.536,24.297c5.252,11.096,18.282,18.543,32.121,18.543c0.607,0,1.216-0.014,1.824-0.042
			c12.445-0.595,25.054-7.078,33.732-17.347c10.735-12.706,15.295-33.091,10.843-48.47
			C530.209,726.523,524.211,720.062,515.55,717.121z M513.308,776.882c-6.662,7.884-16.206,12.854-25.529,13.299
			c-9.87,0.523-19.548-4.562-23.051-11.959c-2.65-5.6-1.881-12.147-0.769-16.653c2.614-10.595,9.133-20.165,18.354-26.949h0.001
			c6.736-4.959,15.11-7.747,22.358-7.747c2.583,0,5.025,0.355,7.196,1.09c5.032,1.708,8.406,5.418,10.031,11.029
			C525.307,750.76,521.612,767.053,513.308,776.882z"/>
		<path fill="#42161A" d="M754.693,665.99c4.702,1.17,9.368,1.756,13.875,1.756c4.515,0,8.868-0.587,12.935-1.76
			c17.752-5.122,31.101-22.918,31.045-41.394c-0.045-16.254-10.299-31.952-25.515-39.064c-10.495-4.906-23.368-4.102-35.311,2.218
			c-15.859,8.391-26.745,24.459-27.089,39.983C724.224,646.318,736.021,661.338,754.693,665.99z M757.078,597.865
			c5.135-2.716,15.23-6.584,25.107-1.964c11.104,5.189,18.881,16.999,18.912,28.722c0.039,13.552-9.748,26.604-22.77,30.359
			c-6.195,1.785-13.416,1.75-20.866-0.105c-13.48-3.357-21.671-13.665-21.378-26.896
			C736.332,616.659,744.967,604.276,757.078,597.865z"/>
		<path fill="#42161A" d="M682.128,755.18c0.44-7.143,0.493-14.347,0.545-21.311c0.031-4.227,0.063-8.451,0.178-12.67l0.017-0.587
			c0.225-7.956,0.644-22.763-11.023-27.492c-5.06-2.049-8.852-0.741-11.143,0.716c-7.301,4.655-8.837,16.992-9.367,27.338
			c-0.21,4.093-0.454,8.11-0.692,11.987c-1.451,23.757-2.408,39.451,4.968,45.965c1.514,1.336,3.933,2.754,7.386,2.754
			c0.8,0,1.655-0.075,2.566-0.246c9.355-1.756,15.31-10.221,16.339-23.229C681.987,757.333,682.062,756.256,682.128,755.18z
			 M671.422,720.288l-0.017,0.598c-0.119,4.294-0.151,8.596-0.183,12.896c-0.05,6.816-0.102,13.861-0.523,20.693
			c-0.063,1.009-0.133,2.018-0.212,3.025c-0.28,3.528-1.524,11.845-7.035,12.879c-0.186,0.036-0.317,0.045-0.365,0.064
			c-3.056-3.17-1.83-23.248-1.015-36.583c0.239-3.917,0.486-7.967,0.705-12.222c0.827-16.172,3.954-18.076,3.974-18.118
			c0.001,0,0.004,0,0.008,0c0.047,0,0.289,0.011,0.784,0.212C671.84,705.475,671.579,714.747,671.422,720.288z"/>
		<path fill="#42161A" d="M581.653,677.149c0.106-1.302,0.303-2.524,0.59-3.571c0.558-2.126,1.45-3.496,2.281-4.188
			c0.845-0.675,1.539-0.831,1.539-0.831c-0.004,0.048-0.629-0.382-2.084-0.233c-1.433,0.161-3.59,1.414-5.259,3.772
			c-0.849,1.161-1.595,2.552-2.211,4.138c-0.574,1.443-1.128,2.933-1.763,4.291c-0.635,1.338-1.394,2.536-2.142,3.099
			c-0.785,0.565-1.352,0.746-2.284,0.677c-0.937-0.071-2.11-0.526-3.028-1.208c-0.869-0.605-1.744-1.711-2.388-2.907
			c-1.333-2.466-1.982-5.455-2.52-8.04c-0.53-2.607-1.062-4.806-1.588-6.237c-0.509-1.443-0.927-2.165-0.927-2.165
			s-0.053,0.809-0.264,2.247c-0.247,1.471-0.604,3.589-1.04,6.184c-0.378,2.681-0.83,6.195,0.33,10.333
			c0.613,2.047,1.655,4.251,3.636,6.127c1.914,1.779,4.426,3.109,7.482,3.299c1.518,0.081,3.127-0.187,4.566-0.838
			c1.412-0.64,2.604-1.584,3.51-2.649c1.813-2.162,2.446-4.386,2.881-6.258C581.379,680.301,581.521,678.602,581.653,677.149z"/>
		<path fill="#42161A" d="M846.264,645.538c0.16,0.46,0.096,0.72,0.054,1.442c-0.051,0.675-0.218,1.548-0.274,2.83
			c-0.082,1.206,0.165,3.31,1.396,5.005c0.619,0.87,1.58,1.842,3.109,2.356c1.52,0.531,3.326,0.313,4.687-0.443
			c2.637-1.598,3.292-3.541,3.962-4.908c2.241-5.191,3.236-10.202,3.626-13.835c0.395-3.641,0.246-5.923,0.246-5.923
			s-1.709,1.838-3.907,4.84c-2.199,3.015-4.913,7.131-7.029,12.019c-0.205,0.483-0.369,0.829-0.504,1.096
			c-0.14-0.209-0.276-0.453-0.4-0.792c-0.362-0.897-0.676-2.018-1.173-3.015c-0.966-2.211-3.026-2.971-4.003-2.746
			c-1.048,0.212-1.019,0.826-1.052,0.761c0.007,0.018,0.372-0.021,0.72,0.385C845.904,644.8,846.127,645.122,846.264,645.538z"/>
		<path fill="#42161A" d="M665.754,600.535c2.095,0.325,4.057-0.161,5.731-1.041c1.655-0.891,3.021-2.173,4.035-3.687
			c0.97-1.463,1.495-2.774,1.984-3.672c0.468-0.916,0.842-1.302,1.125-1.529c0.121-0.089,0.128-0.08,0.055-0.089
			c-0.088,0.007-0.064-0.061,0.275,0.03c0.666,0.108,1.911,0.878,4.178,1.093c1.119,0.09,2.506-0.18,3.521-0.753
			c1.042-0.558,1.793-1.304,2.355-2.056c1.133-1.505,1.557-3.255,1.685-4.523c0.142-1.318,0.096-2.362,0.118-3.209
			c0.041-1.676,0.278-3.27,0.667-4.697c0.757-2.873,2.001-5.068,2.966-6.502c0.984-1.432,1.654-2.161,1.654-2.161
			s-0.962,0.342-2.556,1.378c-1.564,1.046-3.787,2.882-5.662,5.999c-0.941,1.546-1.745,3.423-2.276,5.572
			c-0.445,2.145-0.933,3.85-1.671,4.175c-0.132,0.008-0.183,0.048-0.208,0.089c-0.002-0.048-0.006-0.102-0.042-0.221
			c-0.251-0.074-1.142-0.648-2.909-1.262c-0.867-0.289-2.171-0.5-3.457-0.269c-1.264,0.213-2.359,0.751-3.229,1.371
			c-1.72,1.208-2.821,2.954-3.482,4.27c-1.324,2.807-1.734,3.617-2.802,4.333c-0.47,0.318-0.904,0.448-1.232,0.478
			c-0.403,0.034-0.882-0.134-1.161-0.309c-0.27-0.173-0.469-0.272-0.565-0.865c-0.086-0.556,0.057-1.414,0.29-2.33
			c0.527-1.878,1.034-4.093,0.956-5.991c-0.04-1.937-0.553-3.684-1.402-4.93c-0.838-1.237-1.861-1.978-2.73-2.353
			c-1.794-0.73-2.681-0.204-2.663-0.273c0,0,0.217,0.045,0.584,0.214c0.362,0.17,0.881,0.459,1.382,1.028
			c1.064,1.14,1.843,3.228,1.031,5.917c-0.184,0.672-0.456,1.379-0.792,2.114c-0.337,0.739-0.75,1.447-1.261,2.46
			c-0.479,0.994-1.07,2.204-1.256,3.935c-0.231,1.685,0.37,3.996,1.718,5.477C662.018,599.247,663.759,600.201,665.754,600.535z"/>
		<path fill="#42161A" d="M786.994,729.118c-0.729,2.295-0.969,4.811-1.392,7.03c-0.401,2.17-1.158,4.253-2.392,5.715
			c-0.628,0.735-1.286,1.241-2.004,1.519c-0.74,0.304-1.599,0.392-2.212,0.252c-0.62-0.152-0.912-0.365-1.329-0.91
			c-0.389-0.54-0.777-1.564-1.071-2.886c-0.329-1.376-0.48-2.747-1.001-4.724c-0.55-1.902-1.379-3.68-2.732-5.353
			c-1.303-1.622-3.621-3.312-6.424-3.344c-1.354-0.018-2.595,0.373-3.295,0.655c-0.399,0.155-0.792,0.308-1.182,0.46
			c-0.146-0.409-0.224-1.029-0.165-1.527c0.179-1.588,1.511-4.092,1.364-7.028c-0.081-1.476-0.674-2.908-1.44-3.883
			c-0.762-1.007-1.656-1.685-2.517-2.19c-1.769-1.006-3.381-1.221-4.591-1.344c-1.227-0.103-2.129-0.068-2.738-0.054
			c-0.602,0.024-0.918,0.037-0.918,0.037s0.31,0.1,0.9,0.29c0.59,0.193,1.478,0.461,2.572,0.907
			c1.079,0.452,2.405,1.092,3.474,2.204c1.081,1.094,1.833,2.684,1.435,4.163c-0.163,0.76-0.554,1.571-1.06,2.509
			c-0.498,0.984-1.13,1.902-1.629,3.519c-0.41,1.581-0.57,3.271,0.188,5.276c0.395,0.975,1.148,2.118,2.424,2.824
			c1.225,0.721,2.79,0.847,3.874,0.656c1.095-0.167,1.862-0.446,2.372-0.545c0.541-0.122,0.614-0.036,0.735,0.012
			c0.147,0.085,0.527,0.329,1.017,1.108c0.469,0.727,0.885,1.794,1.109,2.852c0.233,1.125,0.449,2.844,0.87,4.585
			c0.43,1.757,1.105,3.85,2.706,5.745c1.535,1.893,4.15,3.174,6.447,3.27c2.322,0.156,4.416-0.45,6.191-1.477
			c1.824-1.06,3.14-2.563,4.04-4.071c1.806-3.06,2.185-6.222,2.19-8.848c-0.008-2.622-0.243-4.757-0.06-6.703
			c0.318-3.942,1.688-7.161,2.87-9.244c1.204-2.097,2.134-3.169,2.134-3.169s-1.226,0.684-3.081,2.44
			C790.862,721.602,788.415,724.579,786.994,729.118z M762.098,727.826c-0.016-0.023-0.028-0.065-0.044-0.093
			c0.029,0.019,0.06,0.027,0.083,0.052C762.282,727.923,762.205,728.001,762.098,727.826z"/>
		<path fill="#42161A" d="M599.51,826.399c-1.747,1.505-4.252,2.74-6.598,2.694c-1.195-0.035-2.068-0.327-2.917-0.987
			c-0.841-0.641-1.392-1.561-1.448-2.204c-0.125-0.571,0.155-1.697,0.962-3.267c0.746-1.549,1.86-3.431,2.349-5.867
			c0.549-2.532-0.154-5.013-0.862-6.542c-0.722-1.618-1.453-2.786-1.954-3.804c-0.96-1.778-1.038-3.58-0.75-4.49
			c0.269-0.957,0.851-1.294,0.825-1.314c0.029,0.062-0.71-0.223-1.859,0.717c-1.12,0.933-2.2,3.314-1.821,6.346
			c0.348,2.863,1.279,6.029,0.149,7.627c-0.497,1.007-1.456,2.233-2.586,4.003c-1.057,1.692-2.546,4.474-1.965,7.977
			c1.37,6.758,8.2,9.368,12.722,8.195c4.594-1.064,7.259-4.119,8.684-6.64c1.431-2.582,1.887-4.813,2.18-6.337
			c0.271-1.532,0.325-2.403,0.325-2.403s-0.503,0.678-1.403,1.891C602.639,823.17,601.325,824.875,599.51,826.399z"/>
		<path fill="#42161A" d="M511.105,646.968c3.834-6.947,6.806-13.646,8.943-18.68c2.124-5.027,3.299-8.398,3.299-8.398
			s-2.695,2.211-6.47,6.269c-3.775,4.045-8.561,10.036-12.558,17.307c-4.002,7.268-6.401,14.331-7.74,19.483
			c-1.338,5.164-1.712,8.425-1.712,8.425s2.197-2.689,5.282-7.069C503.241,659.914,507.274,653.916,511.105,646.968z"/>
		<path fill="#42161A" d="M479.422,703.683c3.03-5.007,1.443-11.6,1.443-11.6s-4.983,2.704-8.013,7.711
			c-3.03,5.007-2.96,10.42-2.96,10.42S476.392,708.69,479.422,703.683z"/>
		<path fill="#42161A" d="M324.607,944.405c-3.314,3.646-7.407,9.119-10.383,15.97c-2.974,6.852-4.214,13.667-4.637,18.669
			c-0.431,5.012-0.128,8.231-0.128,8.231s1.545-2.732,3.774-7.095c2.226-4.371,5.192-10.326,8.069-16.933
			c2.873-6.608,5.134-12.669,6.713-17.12c1.579-4.444,2.42-7.28,2.42-7.28S327.927,940.748,324.607,944.405z"/>
		<path fill="#42161A" d="M915.327,640.983c1.217-5.923-2.456-11.759-2.456-11.759s-3.821,4.376-5.038,10.299
			c-1.217,5.922,0.632,11.148,0.632,11.148S914.11,646.905,915.327,640.983z"/>
		<path fill="#42161A" d="M676.909,663.05c7.368,0,7.38-11.451,0-11.451C669.542,651.599,669.529,663.05,676.909,663.05z"/>
		<path fill="#42161A" d="M502.286,867.016c-7.368,0-7.38,11.451,0,11.451C509.654,878.467,509.666,867.016,502.286,867.016z"/>
		<path fill="#42161A" d="M488.688,847.693c-7.368,0-7.38,11.451,0,11.451C496.056,859.144,496.068,847.693,488.688,847.693z"/>
		<path fill="#42161A" d="M515.168,843.399c-7.368,0-7.38,11.451,0,11.451C522.536,854.85,522.548,843.399,515.168,843.399z"/>
		<path fill="#42161A" d="M629.675,505.125c-7.368,0-7.38,11.451,0,11.451C637.043,516.576,637.055,505.125,629.675,505.125z"/>
		<path fill="#42161A" d="M714.72,785.536c0,0-11.024,2.093-21.332,9.56c-10.308,7.467-15.996,17.48-15.996,17.48
			s10.298-3.925,20.606-11.392C708.306,793.717,714.72,785.536,714.72,785.536z"/>
		<path fill="#42161A" d="M735.037,769.536c-2.964,2.372-2.424,8.051-2.424,8.051s4.267,0.252,7.232-2.119
			c2.964-2.372,3.504-6.469,3.504-6.469S738.001,767.165,735.037,769.536z"/>
		<path fill="#42161A" d="M845.058,509.063c-26.428-11.321-51.252-19.88-69.448-25.467c-18.197-5.603-29.729-8.39-29.729-8.39
			s11.061,4.656,28.719,12.089c17.608,7.515,41.788,17.835,68.125,29.075c26.362,11.211,49.892,21.217,66.844,28.426
			c17.02,7.088,27.43,11.424,27.43,11.424s-9.779-6.057-26.145-15.036C894.488,532.221,871.492,520.369,845.058,509.063z"/>
		<path fill="#42161A" d="M763.678,915.559c-4.523-3.387-9.938-5.146-16.277-5.413c-6.341-0.271-13.271,1.019-20.785,3.686
			c-11.983,4.253-24.131,7.824-36.48,10.563c-1.096,0.243-1.716,1.394-1.309,2.44c10.892,27.936,21.784,55.872,32.676,83.808
			c0.343,0.88,1.3,1.364,2.21,1.112c6.372-1.761,12.686-3.763,18.948-5.984c0.969-0.344,1.469-1.424,1.109-2.387
			c-2.385-6.373-4.769-12.746-7.153-19.118c-0.358-0.958,0.138-2.014,1.103-2.354c4.036-1.422,8.05-2.932,12.046-4.522
			c7.122-2.838,12.78-6.839,17.073-11.794c4.289-4.958,7.026-10.549,8.243-16.64c1.212-6.096,0.759-12.358-1.404-18.754
			C771.513,923.803,768.2,918.943,763.678,915.559z M750.732,951.311c-1.58,3.14-4.674,5.656-9.326,7.424
			c-3.638,1.381-7.292,2.696-10.962,3.939c-0.942,0.319-1.971-0.174-2.32-1.106c-2.728-7.29-5.455-14.58-8.182-21.87
			c-0.366-0.977,0.158-2.052,1.151-2.372c3.718-1.199,7.42-2.469,11.105-3.805c4.754-1.724,8.717-2.021,11.896-0.773
			c3.177,1.241,5.463,3.841,6.882,7.841C752.393,944.583,752.309,948.17,750.732,951.311z"/>
		<path fill="#42161A" d="M805.877,878.713c-0.344-1.123-1.639-1.631-2.659-1.048c-6.359,3.639-12.746,7.165-19.166,10.554
			c-0.786,0.415-1.157,1.329-0.884,2.175c8.73,26.98,17.46,53.959,26.19,80.939c0.363,1.122,1.677,1.624,2.691,1.022
			c5.945-3.532,11.86-7.191,17.749-10.955c0.697-0.445,1.013-1.304,0.771-2.095C822.338,932.441,814.107,905.577,805.877,878.713z"
			/>
		<path fill="#42161A" d="M911.056,885.853c-0.298-1.271-1.79-1.835-2.853-1.076c-10.642,7.594-21.278,15.215-31.941,22.722
			c-1.438,1.013-3.356-0.39-2.825-2.067c7.556-23.848,15.574-47.732,24.098-71.467c-5.692-4.463-5.531-4.337-11.223-8.8
			c-19.449,12.882-38.898,25.761-58.533,37.872c-0.699,0.431-1.022,1.272-0.794,2.06c1.457,5.029,2.913,10.058,4.37,15.087
			c0.341,1.177,1.718,1.705,2.753,1.05c10.458-6.612,20.863-13.444,31.244-20.375c1.455-0.971,3.298,0.444,2.738,2.101
			c-8.454,25.03-16.39,50.043-23.856,74.845c5.017,3.673,5.006,3.665,10.023,7.339c19.967-13.723,39.734-28.28,59.528-42.718
			c0.595-0.434,0.873-1.182,0.705-1.9C913.346,895.635,912.201,890.744,911.056,885.853z"/>
		<path fill="#42161A" d="M990.682,832.329c-0.211-1.285-1.657-1.961-2.772-1.287c-10.781,6.518-21.472,13.409-32.106,20.535
			c-1.483,0.994-3.378-0.496-2.75-2.167c8.988-23.91,18.573-47.4,28.815-70.224c-4.66-4.269-4.522-4.143-9.182-8.411
			c-20.583,11.642-40.873,24.496-61.077,37.706c-0.64,0.418-0.955,1.191-0.789,1.938c1.08,4.871,2.16,9.743,3.241,14.614
			c0.279,1.259,1.734,1.841,2.807,1.125c10.23-6.827,20.484-13.556,30.789-20.073c1.503-0.951,3.334,0.583,2.673,2.234
			c-8.438,21.065-16.397,42.49-23.917,64.116c7.257,5.415,6.954,5.189,14.211,10.604c17.043-12.128,34.183-23.853,51.566-34.575
			c0.63-0.388,0.959-1.114,0.839-1.843C992.247,841.857,991.464,837.093,990.682,832.329z"/>
		<path fill="#42161A" d="M1048.246,737.102c-0.474-0.696-1.365-0.991-2.159-0.709c-6.978,2.481-13.901,5.194-20.774,8.11
			c-0.526,0.223-0.924,0.677-1.073,1.229c-8.199,30.252-15.496,61.349-21.942,93.08c-0.316,1.555,1.36,2.749,2.731,1.951
			c5.73-3.335,11.489-6.548,17.284-9.616c0.481-0.254,0.82-0.709,0.927-1.242c1.145-5.664,2.317-11.305,3.516-16.922
			c0.119-0.555,0.487-1.028,0.997-1.278c10.083-4.961,20.275-9.47,30.602-13.423c0.841-0.322,1.798,0.016,2.258,0.79
			c2.06,3.469,4.105,6.944,6.134,10.425c0.442,0.759,1.357,1.088,2.184,0.79c6.428-2.311,12.911-4.393,19.456-6.222
			c1.17-0.327,1.711-1.67,1.084-2.71C1076.353,779.611,1062.612,758.197,1048.246,737.102z M1049.491,784.494
			c-4.999,1.982-9.968,4.087-14.91,6.305c-1.384,0.621-2.886-0.603-2.547-2.082c1.699-7.425,3.448-14.805,5.247-22.138
			c0.388-1.579,2.505-1.907,3.366-0.528c3.282,5.253,6.527,10.518,9.737,15.796C1050.974,782.817,1050.547,784.076,1049.491,784.494
			z"/>
		<path fill="#42161A" d="M766.352,611.381c0.864,0.342,1.812-0.265,2.435-0.953c0.773-0.853,2.834-3.842,1.322-4.699
			c-1.35-0.765-3.671,1.443-4.253,2.429c-0.315,0.533-0.536,1.145-0.488,1.762C765.415,610.536,765.776,611.153,766.352,611.381z"/>
		<path fill="#42161A" d="M767.349,647.797c-0.892,0.765-1.014,2.208-0.412,3.216c0.602,1.009,1.794,1.577,2.968,1.615
			c1.659,0.053,4.712-1.169,5.307-2.903c0.779-2.268-2.948-2.304-4.37-2.474C769.635,647.107,768.271,647.006,767.349,647.797z"/>
		<path fill="#42161A" d="M505.781,742.692c0.817,1.417,1.703,2.794,2.654,4.124c2.524,3.529,6.602,0.305,4.525-3.059
			C511.599,741.55,503.187,738.19,505.781,742.692z"/>
		<path fill="#42161A" d="M505.814,762.625c-0.377,1.06-0.594,2.224-0.3,3.311c0.294,1.086,1.201,2.062,2.322,2.157
			c3.154,0.269,4.577-5.369,3.839-7.722C510.369,756.213,506.691,760.16,505.814,762.625z"/>
		<path fill="#42161A" d="M413.559,941.04c0.55,0.389,1.333,0.289,1.909-0.062c0.575-0.352,0.989-0.909,1.389-1.452
			c0.934-1.271,4.48-4.701,4.382-6.262c-0.161-2.55-3.58-0.62-4.568,0.22c-1.364,1.148-2.33,2.697-3.147,4.282
			c-0.274,0.532-0.538,1.086-0.593,1.682C412.876,940.041,413.071,940.694,413.559,941.04z"/>
		<path fill="#42161A" d="M408.39,949.302c0.33,0.218,0.769,0.215,1.142,0.085c1.525-0.532,3.078-2.614,1.57-3.999
			c-1.797-1.65-3.335,0.671-3.31,2.363C407.801,948.328,407.907,948.984,408.39,949.302z"/>
	</g>
</g>
</svg>
